<?xml version="1.0" encoding="utf-8" standalone="no"?>
<!DOCTYPE svg PUBLIC "-//W3C//DTD SVG 1.1//EN"
  "http://www.w3.org/Graphics/SVG/1.1/DTD/svg11.dtd">
<svg xmlns:xlink="http://www.w3.org/1999/xlink" width="720pt" height="720pt" viewBox="0 0 720 720" xmlns="http://www.w3.org/2000/svg" version="1.1">
 <metadata>
  <rdf:RDF xmlns:dc="http://purl.org/dc/elements/1.1/" xmlns:cc="http://creativecommons.org/ns#" xmlns:rdf="http://www.w3.org/1999/02/22-rdf-syntax-ns#">
   <cc:Work>
    <dc:type rdf:resource="http://purl.org/dc/dcmitype/StillImage"/>
    <dc:date>2023-06-14T12:52:36.134184</dc:date>
    <dc:format>image/svg+xml</dc:format>
    <dc:creator>
     <cc:Agent>
      <dc:title>Matplotlib v3.6.3, https://matplotlib.org/</dc:title>
     </cc:Agent>
    </dc:creator>
   </cc:Work>
  </rdf:RDF>
 </metadata>
 <defs>
  <style type="text/css">*{stroke-linejoin: round; stroke-linecap: butt}</style>
 </defs>
 <g id="figure_1">
  <g id="patch_1">
   <path d="M 0 720 
L 720 720 
L 720 0 
L 0 0 
z
" style="fill: #ffffff"/>
  </g>
  <g id="axes_1">
   <g id="patch_2">
    <path d="M 117 640.8 
L 621 640.8 
L 621 86.4 
L 117 86.4 
z
" style="fill: #ffffff"/>
   </g>
   <g id="PolyCollection_1">
    <defs>
     <path id="m5df86615f1" d="M 117 -364.747987 
L 117 -348.052013 
L 122.090909 -345.463195 
L 127.181818 -342.953078 
L 132.272727 -340.528199 
L 137.363636 -338.244091 
L 142.454545 -336.474445 
L 147.545455 -334.509603 
L 152.636364 -333.113273 
L 157.727273 -324.85162 
L 162.818182 -322.490986 
L 167.909091 -320.069625 
L 173 -317.619615 
L 178.090909 -315.087211 
L 183.181818 -314.318207 
L 188.272727 -313.64467 
L 193.363636 -311.175879 
L 198.454545 -308.634305 
L 203.545455 -307.950592 
L 208.636364 -298.05535 
L 213.727273 -297.30746 
L 218.818182 -295.212939 
L 223.909091 -294.624736 
L 229 -292.303296 
L 234.090909 -289.70771 
L 239.181818 -287.612333 
L 244.272727 -284.917262 
L 249.363636 -282.133394 
L 254.454545 -285.28397 
L 259.545455 -283.945087 
L 264.636364 -284.598221 
L 269.727273 -281.920883 
L 274.818182 -272.003752 
L 279.909091 -277.878642 
L 285 -278.321016 
L 290.090909 -277.196697 
L 295.181818 -274.933513 
L 300.272727 -272.894795 
L 305.363636 -270.770072 
L 310.454545 -268.553493 
L 315.545455 -271.724157 
L 320.636364 -269.796353 
L 325.727273 -270.635657 
L 330.818182 -263.422036 
L 335.909091 -256.311209 
L 341 -249.829118 
L 346.090909 -251.642532 
L 351.181818 -259.235526 
L 356.272727 -254.469847 
L 361.363636 -247.088207 
L 366.454545 -248.77224 
L 371.545455 -236.7424 
L 376.636364 -235.429256 
L 381.727273 -235.662914 
L 386.818182 -234.159253 
L 391.909091 -230.012876 
L 397 -236.748445 
L 402.090909 -236.650275 
L 407.181818 -236.044634 
L 412.272727 -224.068849 
L 417.363636 -206.829538 
L 422.454545 -201.198783 
L 427.545455 -200.309591 
L 432.636364 -196.010706 
L 437.727273 -200.295855 
L 442.818182 -198.130895 
L 447.909091 -192.576434 
L 453 -181.189342 
L 458.090909 -165.714899 
L 463.181818 -181.973496 
L 468.272727 -179.522401 
L 473.363636 -178.883352 
L 478.454545 -187.797374 
L 483.545455 -183.658761 
L 488.636364 -168.195893 
L 493.727273 -160.100773 
L 498.818182 -158.664513 
L 503.909091 -149.60423 
L 509 -136.5451 
L 514.090909 -120.835556 
L 519.181818 -117.007498 
L 524.272727 -110.769824 
L 529.363636 -126.919724 
L 534.454545 -110.962973 
L 539.545455 -96.005828 
L 544.636364 -81.06 
L 549.727273 -134.147886 
L 554.818182 -131.508561 
L 559.909091 -129.648789 
L 565 -129.648789 
L 570.090909 -119.097968 
L 575.181818 -111.309572 
L 580.272727 -111.309572 
L 585.363636 -108.348006 
L 590.454545 -111.795497 
L 595.545455 -102.749397 
L 600.636364 -102.749397 
L 605.727273 -102.749397 
L 610.818182 -104.4 
L 615.909091 -104.4 
L 621 -104.4 
L 621 -104.4 
L 621 -104.4 
L 615.909091 -104.4 
L 610.818182 -104.4 
L 605.727273 -120.71727 
L 600.636364 -120.71727 
L 595.545455 -120.71727 
L 590.454545 -126.604503 
L 585.363636 -144.985327 
L 580.272727 -149.490428 
L 575.181818 -149.490428 
L 570.090909 -149.168699 
L 565 -153.284544 
L 559.909091 -153.284544 
L 554.818182 -158.624772 
L 549.727273 -163.452114 
L 544.636364 -182.193333 
L 539.545455 -177.794172 
L 534.454545 -180.221341 
L 529.363636 -177.880276 
L 524.272727 -181.84772 
L 519.181818 -188.912502 
L 514.090909 -205.297777 
L 509 -209.0549 
L 503.909091 -207.845045 
L 498.818182 -210.26882 
L 493.727273 -219.995227 
L 488.636364 -237.445133 
L 483.545455 -240.074572 
L 478.454545 -253.802626 
L 473.363636 -254.891361 
L 468.272727 -265.117599 
L 463.181818 -265.845859 
L 458.090909 -269.451767 
L 453 -279.610658 
L 447.909091 -286.451017 
L 442.818182 -291.469105 
L 437.727273 -292.237479 
L 432.636364 -286.78569 
L 427.545455 -273.655321 
L 422.454545 -283.724294 
L 417.363636 -288.877129 
L 412.272727 -278.897005 
L 407.181818 -277.822033 
L 402.090909 -287.957476 
L 397 -289.451555 
L 391.909091 -298.040457 
L 386.818182 -288.849443 
L 381.727273 -291.094533 
L 376.636364 -286.987411 
L 371.545455 -289.28209 
L 366.454545 -281.046427 
L 361.363636 -279.751009 
L 356.272727 -284.432717 
L 351.181818 -277.458814 
L 346.090909 -277.201913 
L 341 -277.744215 
L 335.909091 -283.503076 
L 330.818182 -288.465683 
L 325.727273 -293.166642 
L 320.636364 -300.707602 
L 315.545455 -298.289176 
L 310.454545 -296.744868 
L 305.363636 -299.191218 
L 300.272727 -301.581395 
L 295.181818 -303.916487 
L 290.090909 -313.359201 
L 285 -312.612317 
L 279.909091 -313.643747 
L 274.818182 -313.623699 
L 269.727273 -312.200857 
L 264.636364 -314.087493 
L 259.545455 -316.336603 
L 254.454545 -324.11603 
L 249.363636 -323.85382 
L 244.272727 -325.825081 
L 239.181818 -327.758334 
L 234.090909 -325.650184 
L 229 -327.696704 
L 223.909091 -325.877828 
L 218.818182 -328.047821 
L 213.727273 -328.829206 
L 208.636364 -331.070576 
L 203.545455 -333.021766 
L 198.454545 -334.045213 
L 193.363636 -336.138407 
L 188.272727 -338.19533 
L 183.181818 -339.725204 
L 178.090909 -340.416237 
L 173 -342.580385 
L 167.909091 -343.882435 
L 162.818182 -346.042348 
L 157.727273 -348.162299 
L 152.636364 -351.483829 
L 147.545455 -352.931257 
L 142.454545 -355.020591 
L 137.363636 -356.433804 
L 132.272727 -358.588468 
L 127.181818 -360.202936 
L 122.090909 -362.417077 
L 117 -364.747987 
z
" style="stroke: #0000ff; stroke-opacity: 0.2"/>
    </defs>
    <g clip-path="url(#p862e91363d)">
     <use xlink:href="#m5df86615f1" x="0" y="720" style="fill: #0000ff; fill-opacity: 0.2; stroke: #0000ff; stroke-opacity: 0.2"/>
    </g>
   </g>
   <g id="PolyCollection_2">
    <defs>
     <path id="ma25607ced8" d="M 117 -364.747987 
L 117 -348.052013 
L 122.090909 -345.395401 
L 127.181818 -342.684013 
L 132.272727 -339.916138 
L 137.363636 -337.089992 
L 142.454545 -334.203716 
L 147.545455 -331.255369 
L 152.636364 -328.242927 
L 157.727273 -325.164278 
L 162.818182 -322.017214 
L 167.909091 -318.79943 
L 173 -315.508514 
L 178.090909 -312.141946 
L 183.181818 -308.697085 
L 188.272727 -305.171168 
L 193.363636 -301.561301 
L 198.454545 -297.864449 
L 203.545455 -294.07743 
L 208.636364 -290.196905 
L 213.727273 -286.219366 
L 218.818182 -282.14113 
L 223.909091 -277.958324 
L 229 -273.666874 
L 234.090909 -269.26249 
L 239.181818 -264.740657 
L 244.272727 -240.685449 
L 249.363636 -235.937831 
L 254.454545 -229.473078 
L 259.545455 -213.736408 
L 264.636364 -208.497043 
L 269.727273 -197.146375 
L 274.818182 -197.859306 
L 279.909091 -197.812609 
L 285 -192.317724 
L 290.090909 -193.742133 
L 295.181818 -188.857436 
L 300.272727 -181.957341 
L 305.363636 -182.625656 
L 310.454545 -176.396663 
L 315.545455 -171.321637 
L 320.636364 -163.793551 
L 325.727273 -158.54557 
L 330.818182 -144.63738 
L 335.909091 -139.309151 
L 341 -133.876908 
L 346.090909 -104.906548 
L 351.181818 -95.634647 
L 356.272727 -89.933666 
L 361.363636 -96.356737 
L 366.454545 -76.394381 
L 371.545455 -94.540316 
L 376.636364 -89.042349 
L 381.727273 -86.042219 
L 386.818182 -86.261972 
L 391.909091 -95.3552 
L 397 -105.220789 
L 402.090909 -106.821392 
L 407.181818 -103.569631 
L 412.272727 -101.798996 
L 417.363636 -98.022529 
L 422.454545 -95.932186 
L 427.545455 -93.723641 
L 432.636364 -95.765752 
L 437.727273 -91.80439 
L 442.818182 -89.812193 
L 447.909091 -107.37147 
L 453 -99.792208 
L 458.090909 -98.293323 
L 463.181818 -113.766469 
L 468.272727 -112.773333 
L 473.363636 -130.455071 
L 478.454545 -130.455071 
L 483.545455 -130.455071 
L 488.636364 -130.455071 
L 493.727273 -125.071039 
L 498.818182 -125.071039 
L 503.909091 -125.071039 
L 509 -124.264 
L 514.090909 -124.264 
L 519.181818 -124.264 
L 524.272727 -119.628065 
L 529.363636 -112.842136 
L 534.454545 -112.842136 
L 539.545455 -112.842136 
L 544.636364 -106.396206 
L 549.727273 -106.396206 
L 554.818182 -97.2 
L 559.909091 -97.2 
L 565 -104.4 
L 570.090909 -104.4 
L 575.181818 -104.4 
L 580.272727 -104.4 
L 585.363636 -104.4 
L 590.454545 -104.4 
L 595.545455 -104.4 
L 600.636364 -104.4 
L 605.727273 -104.4 
L 610.818182 -104.4 
L 615.909091 -104.4 
L 621 -104.4 
L 621 -104.4 
L 621 -104.4 
L 615.909091 -104.4 
L 610.818182 -104.4 
L 605.727273 -104.4 
L 600.636364 -104.4 
L 595.545455 -104.4 
L 590.454545 -104.4 
L 585.363636 -104.4 
L 580.272727 -104.4 
L 575.181818 -104.4 
L 570.090909 -104.4 
L 565 -104.4 
L 559.909091 -126 
L 554.818182 -126 
L 549.727273 -139.203794 
L 544.636364 -139.203794 
L 539.545455 -140.224531 
L 534.454545 -140.224531 
L 529.363636 -140.224531 
L 524.272727 -148.105268 
L 519.181818 -150.936 
L 514.090909 -150.936 
L 509 -150.936 
L 503.909091 -157.595628 
L 498.818182 -157.595628 
L 493.727273 -157.595628 
L 488.636364 -166.878262 
L 483.545455 -166.878262 
L 478.454545 -166.878262 
L 473.363636 -166.878262 
L 468.272727 -167.386667 
L 463.181818 -167.18837 
L 458.090909 -167.773344 
L 453 -167.674459 
L 447.909091 -168.879511 
L 442.818182 -174.027807 
L 437.727273 -173.79561 
L 432.636364 -173.920734 
L 427.545455 -173.546534 
L 422.454545 -173.831917 
L 417.363636 -174.110805 
L 412.272727 -187.521329 
L 407.181818 -187.897035 
L 402.090909 -201.625119 
L 397 -195.845878 
L 391.909091 -190.031466 
L 386.818182 -199.709043 
L 381.727273 -209.225866 
L 376.636364 -185.157651 
L 371.545455 -192.469207 
L 366.454545 -209.328285 
L 361.363636 -199.109929 
L 356.272727 -209.656078 
L 351.181818 -200.536422 
L 346.090909 -194.515674 
L 341 -200.523092 
L 335.909091 -205.805134 
L 330.818182 -207.278409 
L 325.727273 -208.176269 
L 320.636364 -213.435828 
L 315.545455 -218.678363 
L 310.454545 -223.629566 
L 305.363636 -230.273269 
L 300.272727 -235.07123 
L 295.181818 -233.355064 
L 290.090909 -238.171713 
L 285 -253.548943 
L 279.909091 -254.768486 
L 274.818182 -261.458341 
L 269.727273 -265.68261 
L 264.636364 -268.729623 
L 259.545455 -270.436362 
L 254.454545 -271.926922 
L 249.363636 -282.421986 
L 244.272727 -286.910948 
L 239.181818 -286.779343 
L 234.090909 -291.011194 
L 229 -295.133126 
L 223.909091 -299.149368 
L 218.818182 -303.063933 
L 213.727273 -306.880634 
L 208.636364 -310.603095 
L 203.545455 -314.234765 
L 198.454545 -317.778924 
L 193.363636 -321.238699 
L 188.272727 -324.617067 
L 183.181818 -327.916869 
L 178.090909 -331.140813 
L 173 -334.291486 
L 167.909091 -337.371356 
L 162.818182 -340.382786 
L 157.727273 -343.32803 
L 152.636364 -346.209247 
L 147.545455 -349.028502 
L 142.454545 -351.787774 
L 137.363636 -354.488955 
L 132.272727 -357.133862 
L 127.181818 -359.724234 
L 122.090909 -362.261742 
L 117 -364.747987 
z
" style="stroke: #ffa500; stroke-opacity: 0.2"/>
    </defs>
    <g clip-path="url(#p862e91363d)">
     <use xlink:href="#ma25607ced8" x="0" y="720" style="fill: #ffa500; fill-opacity: 0.2; stroke: #ffa500; stroke-opacity: 0.2"/>
    </g>
   </g>
   <g id="matplotlib.axis_1">
    <g id="xtick_1">
     <g id="line2d_1">
      <defs>
       <path id="meef618b5ef" d="M 0 0 
L 0 3.5 
" style="stroke: #000000; stroke-width: 0.8"/>
      </defs>
      <g>
       <use xlink:href="#meef618b5ef" x="117" y="640.8" style="stroke: #000000; stroke-width: 0.8"/>
      </g>
     </g>
     <g id="text_1">
      <!-- 0.0 -->
      <g transform="translate(109.048438 655.398438) scale(0.1 -0.1)">
       <defs>
        <path id="DejaVuSans-30" d="M 2034 4250 
Q 1547 4250 1301 3770 
Q 1056 3291 1056 2328 
Q 1056 1369 1301 889 
Q 1547 409 2034 409 
Q 2525 409 2770 889 
Q 3016 1369 3016 2328 
Q 3016 3291 2770 3770 
Q 2525 4250 2034 4250 
z
M 2034 4750 
Q 2819 4750 3233 4129 
Q 3647 3509 3647 2328 
Q 3647 1150 3233 529 
Q 2819 -91 2034 -91 
Q 1250 -91 836 529 
Q 422 1150 422 2328 
Q 422 3509 836 4129 
Q 1250 4750 2034 4750 
z
" transform="scale(0.015625)"/>
        <path id="DejaVuSans-2e" d="M 684 794 
L 1344 794 
L 1344 0 
L 684 0 
L 684 794 
z
" transform="scale(0.015625)"/>
       </defs>
       <use xlink:href="#DejaVuSans-30"/>
       <use xlink:href="#DejaVuSans-2e" x="63.623047"/>
       <use xlink:href="#DejaVuSans-30" x="95.410156"/>
      </g>
     </g>
    </g>
    <g id="xtick_2">
     <g id="line2d_2">
      <g>
       <use xlink:href="#meef618b5ef" x="217.8" y="640.8" style="stroke: #000000; stroke-width: 0.8"/>
      </g>
     </g>
     <g id="text_2">
      <!-- 0.2 -->
      <g transform="translate(209.848438 655.398438) scale(0.1 -0.1)">
       <defs>
        <path id="DejaVuSans-32" d="M 1228 531 
L 3431 531 
L 3431 0 
L 469 0 
L 469 531 
Q 828 903 1448 1529 
Q 2069 2156 2228 2338 
Q 2531 2678 2651 2914 
Q 2772 3150 2772 3378 
Q 2772 3750 2511 3984 
Q 2250 4219 1831 4219 
Q 1534 4219 1204 4116 
Q 875 4013 500 3803 
L 500 4441 
Q 881 4594 1212 4672 
Q 1544 4750 1819 4750 
Q 2544 4750 2975 4387 
Q 3406 4025 3406 3419 
Q 3406 3131 3298 2873 
Q 3191 2616 2906 2266 
Q 2828 2175 2409 1742 
Q 1991 1309 1228 531 
z
" transform="scale(0.015625)"/>
       </defs>
       <use xlink:href="#DejaVuSans-30"/>
       <use xlink:href="#DejaVuSans-2e" x="63.623047"/>
       <use xlink:href="#DejaVuSans-32" x="95.410156"/>
      </g>
     </g>
    </g>
    <g id="xtick_3">
     <g id="line2d_3">
      <g>
       <use xlink:href="#meef618b5ef" x="318.6" y="640.8" style="stroke: #000000; stroke-width: 0.8"/>
      </g>
     </g>
     <g id="text_3">
      <!-- 0.4 -->
      <g transform="translate(310.648438 655.398438) scale(0.1 -0.1)">
       <defs>
        <path id="DejaVuSans-34" d="M 2419 4116 
L 825 1625 
L 2419 1625 
L 2419 4116 
z
M 2253 4666 
L 3047 4666 
L 3047 1625 
L 3713 1625 
L 3713 1100 
L 3047 1100 
L 3047 0 
L 2419 0 
L 2419 1100 
L 313 1100 
L 313 1709 
L 2253 4666 
z
" transform="scale(0.015625)"/>
       </defs>
       <use xlink:href="#DejaVuSans-30"/>
       <use xlink:href="#DejaVuSans-2e" x="63.623047"/>
       <use xlink:href="#DejaVuSans-34" x="95.410156"/>
      </g>
     </g>
    </g>
    <g id="xtick_4">
     <g id="line2d_4">
      <g>
       <use xlink:href="#meef618b5ef" x="419.4" y="640.8" style="stroke: #000000; stroke-width: 0.8"/>
      </g>
     </g>
     <g id="text_4">
      <!-- 0.6 -->
      <g transform="translate(411.448438 655.398438) scale(0.1 -0.1)">
       <defs>
        <path id="DejaVuSans-36" d="M 2113 2584 
Q 1688 2584 1439 2293 
Q 1191 2003 1191 1497 
Q 1191 994 1439 701 
Q 1688 409 2113 409 
Q 2538 409 2786 701 
Q 3034 994 3034 1497 
Q 3034 2003 2786 2293 
Q 2538 2584 2113 2584 
z
M 3366 4563 
L 3366 3988 
Q 3128 4100 2886 4159 
Q 2644 4219 2406 4219 
Q 1781 4219 1451 3797 
Q 1122 3375 1075 2522 
Q 1259 2794 1537 2939 
Q 1816 3084 2150 3084 
Q 2853 3084 3261 2657 
Q 3669 2231 3669 1497 
Q 3669 778 3244 343 
Q 2819 -91 2113 -91 
Q 1303 -91 875 529 
Q 447 1150 447 2328 
Q 447 3434 972 4092 
Q 1497 4750 2381 4750 
Q 2619 4750 2861 4703 
Q 3103 4656 3366 4563 
z
" transform="scale(0.015625)"/>
       </defs>
       <use xlink:href="#DejaVuSans-30"/>
       <use xlink:href="#DejaVuSans-2e" x="63.623047"/>
       <use xlink:href="#DejaVuSans-36" x="95.410156"/>
      </g>
     </g>
    </g>
    <g id="xtick_5">
     <g id="line2d_5">
      <g>
       <use xlink:href="#meef618b5ef" x="520.2" y="640.8" style="stroke: #000000; stroke-width: 0.8"/>
      </g>
     </g>
     <g id="text_5">
      <!-- 0.8 -->
      <g transform="translate(512.248438 655.398438) scale(0.1 -0.1)">
       <defs>
        <path id="DejaVuSans-38" d="M 2034 2216 
Q 1584 2216 1326 1975 
Q 1069 1734 1069 1313 
Q 1069 891 1326 650 
Q 1584 409 2034 409 
Q 2484 409 2743 651 
Q 3003 894 3003 1313 
Q 3003 1734 2745 1975 
Q 2488 2216 2034 2216 
z
M 1403 2484 
Q 997 2584 770 2862 
Q 544 3141 544 3541 
Q 544 4100 942 4425 
Q 1341 4750 2034 4750 
Q 2731 4750 3128 4425 
Q 3525 4100 3525 3541 
Q 3525 3141 3298 2862 
Q 3072 2584 2669 2484 
Q 3125 2378 3379 2068 
Q 3634 1759 3634 1313 
Q 3634 634 3220 271 
Q 2806 -91 2034 -91 
Q 1263 -91 848 271 
Q 434 634 434 1313 
Q 434 1759 690 2068 
Q 947 2378 1403 2484 
z
M 1172 3481 
Q 1172 3119 1398 2916 
Q 1625 2713 2034 2713 
Q 2441 2713 2670 2916 
Q 2900 3119 2900 3481 
Q 2900 3844 2670 4047 
Q 2441 4250 2034 4250 
Q 1625 4250 1398 4047 
Q 1172 3844 1172 3481 
z
" transform="scale(0.015625)"/>
       </defs>
       <use xlink:href="#DejaVuSans-30"/>
       <use xlink:href="#DejaVuSans-2e" x="63.623047"/>
       <use xlink:href="#DejaVuSans-38" x="95.410156"/>
      </g>
     </g>
    </g>
    <g id="xtick_6">
     <g id="line2d_6">
      <g>
       <use xlink:href="#meef618b5ef" x="621" y="640.8" style="stroke: #000000; stroke-width: 0.8"/>
      </g>
     </g>
     <g id="text_6">
      <!-- 1.0 -->
      <g transform="translate(613.048437 655.398438) scale(0.1 -0.1)">
       <defs>
        <path id="DejaVuSans-31" d="M 794 531 
L 1825 531 
L 1825 4091 
L 703 3866 
L 703 4441 
L 1819 4666 
L 2450 4666 
L 2450 531 
L 3481 531 
L 3481 0 
L 794 0 
L 794 531 
z
" transform="scale(0.015625)"/>
       </defs>
       <use xlink:href="#DejaVuSans-31"/>
       <use xlink:href="#DejaVuSans-2e" x="63.623047"/>
       <use xlink:href="#DejaVuSans-30" x="95.410156"/>
      </g>
     </g>
    </g>
    <g id="text_7">
     <!-- Threshold probability -->
     <g transform="translate(316.096875 669.076563) scale(0.1 -0.1)">
      <defs>
       <path id="DejaVuSans-54" d="M -19 4666 
L 3928 4666 
L 3928 4134 
L 2272 4134 
L 2272 0 
L 1638 0 
L 1638 4134 
L -19 4134 
L -19 4666 
z
" transform="scale(0.015625)"/>
       <path id="DejaVuSans-68" d="M 3513 2113 
L 3513 0 
L 2938 0 
L 2938 2094 
Q 2938 2591 2744 2837 
Q 2550 3084 2163 3084 
Q 1697 3084 1428 2787 
Q 1159 2491 1159 1978 
L 1159 0 
L 581 0 
L 581 4863 
L 1159 4863 
L 1159 2956 
Q 1366 3272 1645 3428 
Q 1925 3584 2291 3584 
Q 2894 3584 3203 3211 
Q 3513 2838 3513 2113 
z
" transform="scale(0.015625)"/>
       <path id="DejaVuSans-72" d="M 2631 2963 
Q 2534 3019 2420 3045 
Q 2306 3072 2169 3072 
Q 1681 3072 1420 2755 
Q 1159 2438 1159 1844 
L 1159 0 
L 581 0 
L 581 3500 
L 1159 3500 
L 1159 2956 
Q 1341 3275 1631 3429 
Q 1922 3584 2338 3584 
Q 2397 3584 2469 3576 
Q 2541 3569 2628 3553 
L 2631 2963 
z
" transform="scale(0.015625)"/>
       <path id="DejaVuSans-65" d="M 3597 1894 
L 3597 1613 
L 953 1613 
Q 991 1019 1311 708 
Q 1631 397 2203 397 
Q 2534 397 2845 478 
Q 3156 559 3463 722 
L 3463 178 
Q 3153 47 2828 -22 
Q 2503 -91 2169 -91 
Q 1331 -91 842 396 
Q 353 884 353 1716 
Q 353 2575 817 3079 
Q 1281 3584 2069 3584 
Q 2775 3584 3186 3129 
Q 3597 2675 3597 1894 
z
M 3022 2063 
Q 3016 2534 2758 2815 
Q 2500 3097 2075 3097 
Q 1594 3097 1305 2825 
Q 1016 2553 972 2059 
L 3022 2063 
z
" transform="scale(0.015625)"/>
       <path id="DejaVuSans-73" d="M 2834 3397 
L 2834 2853 
Q 2591 2978 2328 3040 
Q 2066 3103 1784 3103 
Q 1356 3103 1142 2972 
Q 928 2841 928 2578 
Q 928 2378 1081 2264 
Q 1234 2150 1697 2047 
L 1894 2003 
Q 2506 1872 2764 1633 
Q 3022 1394 3022 966 
Q 3022 478 2636 193 
Q 2250 -91 1575 -91 
Q 1294 -91 989 -36 
Q 684 19 347 128 
L 347 722 
Q 666 556 975 473 
Q 1284 391 1588 391 
Q 1994 391 2212 530 
Q 2431 669 2431 922 
Q 2431 1156 2273 1281 
Q 2116 1406 1581 1522 
L 1381 1569 
Q 847 1681 609 1914 
Q 372 2147 372 2553 
Q 372 3047 722 3315 
Q 1072 3584 1716 3584 
Q 2034 3584 2315 3537 
Q 2597 3491 2834 3397 
z
" transform="scale(0.015625)"/>
       <path id="DejaVuSans-6f" d="M 1959 3097 
Q 1497 3097 1228 2736 
Q 959 2375 959 1747 
Q 959 1119 1226 758 
Q 1494 397 1959 397 
Q 2419 397 2687 759 
Q 2956 1122 2956 1747 
Q 2956 2369 2687 2733 
Q 2419 3097 1959 3097 
z
M 1959 3584 
Q 2709 3584 3137 3096 
Q 3566 2609 3566 1747 
Q 3566 888 3137 398 
Q 2709 -91 1959 -91 
Q 1206 -91 779 398 
Q 353 888 353 1747 
Q 353 2609 779 3096 
Q 1206 3584 1959 3584 
z
" transform="scale(0.015625)"/>
       <path id="DejaVuSans-6c" d="M 603 4863 
L 1178 4863 
L 1178 0 
L 603 0 
L 603 4863 
z
" transform="scale(0.015625)"/>
       <path id="DejaVuSans-64" d="M 2906 2969 
L 2906 4863 
L 3481 4863 
L 3481 0 
L 2906 0 
L 2906 525 
Q 2725 213 2448 61 
Q 2172 -91 1784 -91 
Q 1150 -91 751 415 
Q 353 922 353 1747 
Q 353 2572 751 3078 
Q 1150 3584 1784 3584 
Q 2172 3584 2448 3432 
Q 2725 3281 2906 2969 
z
M 947 1747 
Q 947 1113 1208 752 
Q 1469 391 1925 391 
Q 2381 391 2643 752 
Q 2906 1113 2906 1747 
Q 2906 2381 2643 2742 
Q 2381 3103 1925 3103 
Q 1469 3103 1208 2742 
Q 947 2381 947 1747 
z
" transform="scale(0.015625)"/>
       <path id="DejaVuSans-20" transform="scale(0.015625)"/>
       <path id="DejaVuSans-70" d="M 1159 525 
L 1159 -1331 
L 581 -1331 
L 581 3500 
L 1159 3500 
L 1159 2969 
Q 1341 3281 1617 3432 
Q 1894 3584 2278 3584 
Q 2916 3584 3314 3078 
Q 3713 2572 3713 1747 
Q 3713 922 3314 415 
Q 2916 -91 2278 -91 
Q 1894 -91 1617 61 
Q 1341 213 1159 525 
z
M 3116 1747 
Q 3116 2381 2855 2742 
Q 2594 3103 2138 3103 
Q 1681 3103 1420 2742 
Q 1159 2381 1159 1747 
Q 1159 1113 1420 752 
Q 1681 391 2138 391 
Q 2594 391 2855 752 
Q 3116 1113 3116 1747 
z
" transform="scale(0.015625)"/>
       <path id="DejaVuSans-62" d="M 3116 1747 
Q 3116 2381 2855 2742 
Q 2594 3103 2138 3103 
Q 1681 3103 1420 2742 
Q 1159 2381 1159 1747 
Q 1159 1113 1420 752 
Q 1681 391 2138 391 
Q 2594 391 2855 752 
Q 3116 1113 3116 1747 
z
M 1159 2969 
Q 1341 3281 1617 3432 
Q 1894 3584 2278 3584 
Q 2916 3584 3314 3078 
Q 3713 2572 3713 1747 
Q 3713 922 3314 415 
Q 2916 -91 2278 -91 
Q 1894 -91 1617 61 
Q 1341 213 1159 525 
L 1159 0 
L 581 0 
L 581 4863 
L 1159 4863 
L 1159 2969 
z
" transform="scale(0.015625)"/>
       <path id="DejaVuSans-61" d="M 2194 1759 
Q 1497 1759 1228 1600 
Q 959 1441 959 1056 
Q 959 750 1161 570 
Q 1363 391 1709 391 
Q 2188 391 2477 730 
Q 2766 1069 2766 1631 
L 2766 1759 
L 2194 1759 
z
M 3341 1997 
L 3341 0 
L 2766 0 
L 2766 531 
Q 2569 213 2275 61 
Q 1981 -91 1556 -91 
Q 1019 -91 701 211 
Q 384 513 384 1019 
Q 384 1609 779 1909 
Q 1175 2209 1959 2209 
L 2766 2209 
L 2766 2266 
Q 2766 2663 2505 2880 
Q 2244 3097 1772 3097 
Q 1472 3097 1187 3025 
Q 903 2953 641 2809 
L 641 3341 
Q 956 3463 1253 3523 
Q 1550 3584 1831 3584 
Q 2591 3584 2966 3190 
Q 3341 2797 3341 1997 
z
" transform="scale(0.015625)"/>
       <path id="DejaVuSans-69" d="M 603 3500 
L 1178 3500 
L 1178 0 
L 603 0 
L 603 3500 
z
M 603 4863 
L 1178 4863 
L 1178 4134 
L 603 4134 
L 603 4863 
z
" transform="scale(0.015625)"/>
       <path id="DejaVuSans-74" d="M 1172 4494 
L 1172 3500 
L 2356 3500 
L 2356 3053 
L 1172 3053 
L 1172 1153 
Q 1172 725 1289 603 
Q 1406 481 1766 481 
L 2356 481 
L 2356 0 
L 1766 0 
Q 1100 0 847 248 
Q 594 497 594 1153 
L 594 3053 
L 172 3053 
L 172 3500 
L 594 3500 
L 594 4494 
L 1172 4494 
z
" transform="scale(0.015625)"/>
       <path id="DejaVuSans-79" d="M 2059 -325 
Q 1816 -950 1584 -1140 
Q 1353 -1331 966 -1331 
L 506 -1331 
L 506 -850 
L 844 -850 
Q 1081 -850 1212 -737 
Q 1344 -625 1503 -206 
L 1606 56 
L 191 3500 
L 800 3500 
L 1894 763 
L 2988 3500 
L 3597 3500 
L 2059 -325 
z
" transform="scale(0.015625)"/>
      </defs>
      <use xlink:href="#DejaVuSans-54"/>
      <use xlink:href="#DejaVuSans-68" x="61.083984"/>
      <use xlink:href="#DejaVuSans-72" x="124.462891"/>
      <use xlink:href="#DejaVuSans-65" x="163.326172"/>
      <use xlink:href="#DejaVuSans-73" x="224.849609"/>
      <use xlink:href="#DejaVuSans-68" x="276.949219"/>
      <use xlink:href="#DejaVuSans-6f" x="340.328125"/>
      <use xlink:href="#DejaVuSans-6c" x="401.509766"/>
      <use xlink:href="#DejaVuSans-64" x="429.292969"/>
      <use xlink:href="#DejaVuSans-20" x="492.769531"/>
      <use xlink:href="#DejaVuSans-70" x="524.556641"/>
      <use xlink:href="#DejaVuSans-72" x="588.033203"/>
      <use xlink:href="#DejaVuSans-6f" x="626.896484"/>
      <use xlink:href="#DejaVuSans-62" x="688.078125"/>
      <use xlink:href="#DejaVuSans-61" x="751.554688"/>
      <use xlink:href="#DejaVuSans-62" x="812.833984"/>
      <use xlink:href="#DejaVuSans-69" x="876.310547"/>
      <use xlink:href="#DejaVuSans-6c" x="904.09375"/>
      <use xlink:href="#DejaVuSans-69" x="931.876953"/>
      <use xlink:href="#DejaVuSans-74" x="959.660156"/>
      <use xlink:href="#DejaVuSans-79" x="998.869141"/>
     </g>
    </g>
   </g>
   <g id="matplotlib.axis_2">
    <g id="ytick_1">
     <g id="line2d_7">
      <defs>
       <path id="m63f25cbea3" d="M 0 0 
L -3.5 0 
" style="stroke: #000000; stroke-width: 0.8"/>
      </defs>
      <g>
       <use xlink:href="#m63f25cbea3" x="117" y="615.6" style="stroke: #000000; stroke-width: 0.8"/>
      </g>
     </g>
     <g id="text_8">
      <!-- 0.0 -->
      <g transform="translate(94.096875 619.399219) scale(0.1 -0.1)">
       <use xlink:href="#DejaVuSans-30"/>
       <use xlink:href="#DejaVuSans-2e" x="63.623047"/>
       <use xlink:href="#DejaVuSans-30" x="95.410156"/>
      </g>
     </g>
    </g>
    <g id="ytick_2">
     <g id="line2d_8">
      <g>
       <use xlink:href="#m63f25cbea3" x="117" y="514.8" style="stroke: #000000; stroke-width: 0.8"/>
      </g>
     </g>
     <g id="text_9">
      <!-- 0.2 -->
      <g transform="translate(94.096875 518.599219) scale(0.1 -0.1)">
       <use xlink:href="#DejaVuSans-30"/>
       <use xlink:href="#DejaVuSans-2e" x="63.623047"/>
       <use xlink:href="#DejaVuSans-32" x="95.410156"/>
      </g>
     </g>
    </g>
    <g id="ytick_3">
     <g id="line2d_9">
      <g>
       <use xlink:href="#m63f25cbea3" x="117" y="414" style="stroke: #000000; stroke-width: 0.8"/>
      </g>
     </g>
     <g id="text_10">
      <!-- 0.4 -->
      <g transform="translate(94.096875 417.799219) scale(0.1 -0.1)">
       <use xlink:href="#DejaVuSans-30"/>
       <use xlink:href="#DejaVuSans-2e" x="63.623047"/>
       <use xlink:href="#DejaVuSans-34" x="95.410156"/>
      </g>
     </g>
    </g>
    <g id="ytick_4">
     <g id="line2d_10">
      <g>
       <use xlink:href="#m63f25cbea3" x="117" y="313.2" style="stroke: #000000; stroke-width: 0.8"/>
      </g>
     </g>
     <g id="text_11">
      <!-- 0.6 -->
      <g transform="translate(94.096875 316.999219) scale(0.1 -0.1)">
       <use xlink:href="#DejaVuSans-30"/>
       <use xlink:href="#DejaVuSans-2e" x="63.623047"/>
       <use xlink:href="#DejaVuSans-36" x="95.410156"/>
      </g>
     </g>
    </g>
    <g id="ytick_5">
     <g id="line2d_11">
      <g>
       <use xlink:href="#m63f25cbea3" x="117" y="212.4" style="stroke: #000000; stroke-width: 0.8"/>
      </g>
     </g>
     <g id="text_12">
      <!-- 0.8 -->
      <g transform="translate(94.096875 216.199219) scale(0.1 -0.1)">
       <use xlink:href="#DejaVuSans-30"/>
       <use xlink:href="#DejaVuSans-2e" x="63.623047"/>
       <use xlink:href="#DejaVuSans-38" x="95.410156"/>
      </g>
     </g>
    </g>
    <g id="ytick_6">
     <g id="line2d_12">
      <g>
       <use xlink:href="#m63f25cbea3" x="117" y="111.6" style="stroke: #000000; stroke-width: 0.8"/>
      </g>
     </g>
     <g id="text_13">
      <!-- 1.0 -->
      <g transform="translate(94.096875 115.399219) scale(0.1 -0.1)">
       <use xlink:href="#DejaVuSans-31"/>
       <use xlink:href="#DejaVuSans-2e" x="63.623047"/>
       <use xlink:href="#DejaVuSans-30" x="95.410156"/>
      </g>
     </g>
    </g>
    <g id="text_14">
     <!-- Net benefit (action) -->
     <g transform="translate(88.017188 412.453125) rotate(-90) scale(0.1 -0.1)">
      <defs>
       <path id="DejaVuSans-4e" d="M 628 4666 
L 1478 4666 
L 3547 763 
L 3547 4666 
L 4159 4666 
L 4159 0 
L 3309 0 
L 1241 3903 
L 1241 0 
L 628 0 
L 628 4666 
z
" transform="scale(0.015625)"/>
       <path id="DejaVuSans-6e" d="M 3513 2113 
L 3513 0 
L 2938 0 
L 2938 2094 
Q 2938 2591 2744 2837 
Q 2550 3084 2163 3084 
Q 1697 3084 1428 2787 
Q 1159 2491 1159 1978 
L 1159 0 
L 581 0 
L 581 3500 
L 1159 3500 
L 1159 2956 
Q 1366 3272 1645 3428 
Q 1925 3584 2291 3584 
Q 2894 3584 3203 3211 
Q 3513 2838 3513 2113 
z
" transform="scale(0.015625)"/>
       <path id="DejaVuSans-66" d="M 2375 4863 
L 2375 4384 
L 1825 4384 
Q 1516 4384 1395 4259 
Q 1275 4134 1275 3809 
L 1275 3500 
L 2222 3500 
L 2222 3053 
L 1275 3053 
L 1275 0 
L 697 0 
L 697 3053 
L 147 3053 
L 147 3500 
L 697 3500 
L 697 3744 
Q 697 4328 969 4595 
Q 1241 4863 1831 4863 
L 2375 4863 
z
" transform="scale(0.015625)"/>
       <path id="DejaVuSans-28" d="M 1984 4856 
Q 1566 4138 1362 3434 
Q 1159 2731 1159 2009 
Q 1159 1288 1364 580 
Q 1569 -128 1984 -844 
L 1484 -844 
Q 1016 -109 783 600 
Q 550 1309 550 2009 
Q 550 2706 781 3412 
Q 1013 4119 1484 4856 
L 1984 4856 
z
" transform="scale(0.015625)"/>
       <path id="DejaVuSans-63" d="M 3122 3366 
L 3122 2828 
Q 2878 2963 2633 3030 
Q 2388 3097 2138 3097 
Q 1578 3097 1268 2742 
Q 959 2388 959 1747 
Q 959 1106 1268 751 
Q 1578 397 2138 397 
Q 2388 397 2633 464 
Q 2878 531 3122 666 
L 3122 134 
Q 2881 22 2623 -34 
Q 2366 -91 2075 -91 
Q 1284 -91 818 406 
Q 353 903 353 1747 
Q 353 2603 823 3093 
Q 1294 3584 2113 3584 
Q 2378 3584 2631 3529 
Q 2884 3475 3122 3366 
z
" transform="scale(0.015625)"/>
       <path id="DejaVuSans-29" d="M 513 4856 
L 1013 4856 
Q 1481 4119 1714 3412 
Q 1947 2706 1947 2009 
Q 1947 1309 1714 600 
Q 1481 -109 1013 -844 
L 513 -844 
Q 928 -128 1133 580 
Q 1338 1288 1338 2009 
Q 1338 2731 1133 3434 
Q 928 4138 513 4856 
z
" transform="scale(0.015625)"/>
      </defs>
      <use xlink:href="#DejaVuSans-4e"/>
      <use xlink:href="#DejaVuSans-65" x="74.804688"/>
      <use xlink:href="#DejaVuSans-74" x="136.328125"/>
      <use xlink:href="#DejaVuSans-20" x="175.537109"/>
      <use xlink:href="#DejaVuSans-62" x="207.324219"/>
      <use xlink:href="#DejaVuSans-65" x="270.800781"/>
      <use xlink:href="#DejaVuSans-6e" x="332.324219"/>
      <use xlink:href="#DejaVuSans-65" x="395.703125"/>
      <use xlink:href="#DejaVuSans-66" x="457.226562"/>
      <use xlink:href="#DejaVuSans-69" x="492.431641"/>
      <use xlink:href="#DejaVuSans-74" x="520.214844"/>
      <use xlink:href="#DejaVuSans-20" x="559.423828"/>
      <use xlink:href="#DejaVuSans-28" x="591.210938"/>
      <use xlink:href="#DejaVuSans-61" x="630.224609"/>
      <use xlink:href="#DejaVuSans-63" x="691.503906"/>
      <use xlink:href="#DejaVuSans-74" x="746.484375"/>
      <use xlink:href="#DejaVuSans-69" x="785.693359"/>
      <use xlink:href="#DejaVuSans-6f" x="813.476562"/>
      <use xlink:href="#DejaVuSans-6e" x="874.658203"/>
      <use xlink:href="#DejaVuSans-29" x="938.037109"/>
     </g>
    </g>
   </g>
   <g id="line2d_13">
    <path d="M 117 363.6 
L 122.090909 366.059864 
L 127.181818 368.421993 
L 132.272727 370.441667 
L 137.363636 372.661053 
L 142.454545 374.252482 
L 147.545455 376.27957 
L 152.636364 377.701449 
L 157.727273 383.49304 
L 162.818182 385.733333 
L 167.909091 388.02397 
L 173 389.9 
L 178.090909 392.248276 
L 183.181818 392.978295 
L 188.272727 394.08 
L 193.363636 396.342857 
L 198.454545 398.660241 
L 203.545455 399.513821 
L 208.636364 405.437037 
L 213.727273 406.931667 
L 218.818182 408.36962 
L 223.909091 409.748718 
L 229 410 
L 234.090909 412.321053 
L 239.181818 412.314667 
L 244.272727 414.628829 
L 249.363636 417.006393 
L 254.454545 415.3 
L 259.545455 419.859155 
L 264.636364 420.657143 
L 269.727273 422.93913 
L 274.818182 427.186275 
L 279.909091 424.238806 
L 285 424.533333 
L 290.090909 424.722051 
L 295.181818 430.575 
L 300.272727 432.761905 
L 305.363636 435.019355 
L 310.454545 437.35082 
L 315.545455 434.993333 
L 320.636364 434.748023 
L 325.727273 438.098851 
L 330.818182 444.05614 
L 335.909091 450.092857 
L 341 456.213333 
L 346.090909 455.577778 
L 351.181818 451.65283 
L 356.272727 450.548718 
L 361.363636 456.580392 
L 366.454545 455.090667 
L 371.545455 456.987755 
L 376.636364 458.791667 
L 381.727273 456.621277 
L 386.818182 458.495652 
L 391.909091 455.973333 
L 397 456.9 
L 402.090909 457.696124 
L 407.181818 463.066667 
L 412.272727 468.517073 
L 417.363636 472.146667 
L 422.454545 477.538462 
L 427.545455 483.017544 
L 432.636364 478.601802 
L 437.727273 473.733333 
L 442.818182 475.2 
L 447.909091 480.486275 
L 453 489.6 
L 458.090909 502.416667 
L 463.181818 496.090323 
L 468.272727 497.68 
L 473.363636 503.112644 
L 478.454545 499.2 
L 483.545455 508.133333 
L 488.636364 517.179487 
L 493.727273 529.952 
L 498.818182 535.533333 
L 503.909091 541.275362 
L 509 547.2 
L 514.090909 556.933333 
L 519.181818 567.04 
L 524.272727 573.691228 
L 529.363636 567.6 
L 534.454545 574.407843 
L 539.545455 583.1 
L 544.636364 588.373333 
L 549.727273 571.2 
L 554.818182 574.933333 
L 559.909091 578.533333 
L 565 578.533333 
L 570.090909 585.866667 
L 575.181818 589.6 
L 580.272727 589.6 
L 585.363636 593.333333 
L 590.454545 600.8 
L 595.545455 608.266667 
L 600.636364 608.266667 
L 605.727273 608.266667 
L 610.818182 615.6 
L 615.909091 615.6 
L 621 615.6 
" clip-path="url(#p862e91363d)" style="fill: none; stroke: #0000ff; stroke-width: 1.5; stroke-linecap: square"/>
   </g>
   <g id="line2d_14">
    <path d="M 117 363.6 
L 122.090909 366.171429 
L 127.181818 368.795876 
L 132.272727 371.475 
L 137.363636 374.210526 
L 142.454545 377.004255 
L 147.545455 379.858065 
L 152.636364 382.773913 
L 157.727273 385.753846 
L 162.818182 388.8 
L 167.909091 391.914607 
L 173 395.1 
L 178.090909 398.358621 
L 183.181818 401.693023 
L 188.272727 405.105882 
L 193.363636 408.6 
L 198.454545 412.178313 
L 203.545455 415.843902 
L 208.636364 419.6 
L 213.727273 423.45 
L 218.818182 427.397468 
L 223.909091 431.446154 
L 229 435.6 
L 234.090909 439.863158 
L 239.181818 444.24 
L 244.272727 456.201802 
L 249.363636 460.820091 
L 254.454545 469.3 
L 259.545455 477.913615 
L 264.636364 481.386667 
L 269.727273 488.585507 
L 274.818182 490.341176 
L 279.909091 493.709453 
L 285 497.066667 
L 290.090909 504.043077 
L 295.181818 508.89375 
L 300.272727 511.485714 
L 305.363636 513.550538 
L 310.454545 519.986885 
L 315.545455 525 
L 320.636364 531.385311 
L 325.727273 536.63908 
L 330.818182 544.042105 
L 335.909091 547.442857 
L 341 552.8 
L 346.090909 570.288889 
L 351.181818 571.914465 
L 356.272727 570.205128 
L 361.363636 572.266667 
L 366.454545 577.138667 
L 371.545455 576.495238 
L 376.636364 582.9 
L 381.727273 572.365957 
L 386.818182 577.014493 
L 391.909091 577.306667 
L 397 569.466667 
L 402.090909 565.776744 
L 407.181818 574.266667 
L 412.272727 575.339837 
L 417.363636 583.933333 
L 422.454545 585.117949 
L 427.545455 586.364912 
L 432.636364 585.156757 
L 437.727273 587.2 
L 442.818182 588.08 
L 447.909091 581.87451 
L 453 586.266667 
L 458.090909 586.966667 
L 463.181818 579.522581 
L 468.272727 579.92 
L 473.363636 571.333333 
L 478.454545 571.333333 
L 483.545455 571.333333 
L 488.636364 571.333333 
L 493.727273 578.666667 
L 498.818182 578.666667 
L 503.909091 578.666667 
L 509 582.4 
L 514.090909 582.4 
L 519.181818 582.4 
L 524.272727 586.133333 
L 529.363636 593.466667 
L 534.454545 593.466667 
L 539.545455 593.466667 
L 544.636364 597.2 
L 549.727273 597.2 
L 554.818182 608.4 
L 559.909091 608.4 
L 565 615.6 
L 570.090909 615.6 
L 575.181818 615.6 
L 580.272727 615.6 
L 585.363636 615.6 
L 590.454545 615.6 
L 595.545455 615.6 
L 600.636364 615.6 
L 605.727273 615.6 
L 610.818182 615.6 
L 615.909091 615.6 
L 621 615.6 
" clip-path="url(#p862e91363d)" style="fill: none; stroke: #ffa500; stroke-width: 1.5; stroke-linecap: square"/>
   </g>
   <g id="line2d_15">
    <path d="M 117 573.247059 
L 122.090909 574.50036 
L 127.181818 575.779503 
L 132.272727 577.085294 
L 137.363636 578.418576 
L 142.454545 579.780225 
L 147.545455 581.171157 
L 152.636364 582.592327 
L 157.727273 584.044732 
L 162.818182 585.529412 
L 167.909091 587.047455 
L 173 588.6 
L 178.090909 590.188235 
L 183.181818 591.813406 
L 188.272727 593.476817 
L 193.363636 595.179832 
L 198.454545 596.923884 
L 203.545455 598.710473 
L 208.636364 600.541176 
L 213.727273 602.417647 
L 218.818182 604.341623 
L 223.909091 606.314932 
L 229 608.339496 
L 234.090909 610.417337 
L 239.181818 612.550588 
L 244.272727 614.741494 
L 249.363636 616.992425 
L 254.454545 619.305882 
L 259.545455 621.684507 
L 264.636364 624.131092 
L 269.727273 626.648593 
L 274.818182 629.240138 
L 279.909091 631.909043 
L 285 634.658824 
L 290.090909 637.493213 
L 295.181818 640.416176 
L 300.272727 643.431933 
L 305.363636 646.544972 
L 310.454545 649.760077 
L 315.545455 653.082353 
L 320.636364 656.517248 
L 325.727273 660.070588 
L 330.818182 663.748607 
L 335.909091 667.557983 
L 341 671.505882 
L 346.090909 675.6 
L 351.181818 679.848613 
L 356.272727 684.260633 
L 361.363636 688.845675 
L 366.454545 693.614118 
L 371.545455 698.577191 
L 376.636364 703.747059 
L 381.727273 709.136921 
L 386.818182 714.761125 
L 391.909091 720.635294 
L 392.211425 721 
M 620.937508 721 
L 621 573.247059 
" clip-path="url(#p862e91363d)" style="fill: none; stroke: #1f77b4; stroke-width: 1.5; stroke-linecap: square"/>
   </g>
   <g id="line2d_16">
    <path d="M 117 564.562025 
L 122.090909 566.905606 
L 127.181818 569.297508 
L 132.272727 571.739241 
L 137.363636 574.232378 
L 142.454545 576.778562 
L 147.545455 579.379502 
L 152.636364 582.036984 
L 157.727273 584.752872 
L 162.818182 587.529114 
L 167.909091 590.367743 
L 173 593.270886 
L 178.090909 596.240768 
L 183.181818 599.279717 
L 188.272727 602.390171 
L 193.363636 605.574684 
L 198.454545 608.835931 
L 203.545455 612.176721 
L 208.636364 615.6 
L 213.727273 619.108861 
L 218.818182 622.706553 
L 223.909091 626.396495 
L 229 630.182278 
L 234.090909 634.067688 
L 239.181818 638.056709 
L 244.272727 642.153541 
L 249.363636 646.362615 
L 254.454545 650.688608 
L 259.545455 655.136459 
L 264.636364 659.711392 
L 269.727273 664.418932 
L 274.818182 669.264929 
L 279.909091 674.255583 
L 285 679.397468 
L 290.090909 684.697566 
L 295.181818 690.163291 
L 300.272727 695.802532 
L 305.363636 701.623683 
L 310.454545 707.635692 
L 315.545455 713.848101 
L 320.636364 720.271101 
L 321.194836 721 
M 620.964616 721 
L 621 564.562025 
" clip-path="url(#p862e91363d)" style="fill: none; stroke: #ff7f0e; stroke-width: 1.5; stroke-linecap: square"/>
   </g>
   <g id="line2d_17">
    <path d="M 117 552.070588 
L 122.090909 554.317887 
L 127.181818 556.611522 
L 132.272727 558.952941 
L 137.363636 561.343653 
L 142.454545 563.785232 
L 147.545455 566.279317 
L 152.636364 568.827621 
L 157.727273 571.431933 
L 162.818182 574.094118 
L 167.909091 576.816127 
L 173 579.6 
L 178.090909 582.44787 
L 183.181818 585.36197 
L 188.272727 588.344637 
L 193.363636 591.398319 
L 198.454545 594.525585 
L 203.545455 597.729125 
L 208.636364 601.011765 
L 213.727273 604.376471 
L 218.818182 607.826359 
L 223.909091 611.364706 
L 229 614.994958 
L 234.090909 618.720743 
L 239.181818 622.545882 
L 244.272727 626.474404 
L 249.363636 630.510556 
L 254.454545 634.658824 
L 259.545455 638.923944 
L 264.636364 643.310924 
L 269.727273 647.825064 
L 274.818182 652.471972 
L 279.909091 657.257594 
L 285 662.188235 
L 290.090909 667.270588 
L 295.181818 672.511765 
L 300.272727 677.919328 
L 305.363636 683.501328 
L 310.454545 689.266345 
L 315.545455 695.223529 
L 320.636364 701.382652 
L 325.727273 707.754158 
L 330.818182 714.349226 
L 335.775061 721 
M 620.960154 721 
L 621 552.070588 
" clip-path="url(#p862e91363d)" style="fill: none; stroke: #2ca02c; stroke-width: 1.5; stroke-linecap: square"/>
   </g>
   <g id="line2d_18">
    <path d="M 117 551.76 
L 122.090909 554.022857 
L 127.181818 556.332371 
L 132.272727 558.69 
L 137.363636 561.097263 
L 142.454545 563.555745 
L 147.545455 566.067097 
L 152.636364 568.633043 
L 157.727273 571.255385 
L 162.818182 573.936 
L 167.909091 576.676854 
L 173 579.48 
L 178.090909 582.347586 
L 183.181818 585.28186 
L 188.272727 588.285176 
L 193.363636 591.36 
L 198.454545 594.508916 
L 203.545455 597.734634 
L 208.636364 601.04 
L 213.727273 604.428 
L 218.818182 607.901772 
L 223.909091 611.464615 
L 229 615.12 
L 234.090909 618.871579 
L 239.181818 622.7232 
L 244.272727 626.678919 
L 249.363636 630.743014 
L 254.454545 634.92 
L 259.545455 639.214648 
L 264.636364 643.632 
L 269.727273 648.177391 
L 274.818182 652.856471 
L 279.909091 657.675224 
L 285 662.64 
L 290.090909 667.757538 
L 295.181818 673.035 
L 300.272727 678.48 
L 305.363636 684.100645 
L 310.454545 689.905574 
L 315.545455 695.904 
L 320.636364 702.105763 
L 325.727273 708.521379 
L 330.818182 715.162105 
L 335.139299 721 
M 620.960355 721 
L 621 551.76 
" clip-path="url(#p862e91363d)" style="fill: none; stroke: #d62728; stroke-width: 1.5; stroke-linecap: square"/>
   </g>
   <g id="line2d_19">
    <path d="M 117 534.96 
L 122.090909 539.28 
L 127.181818 543.689072 
L 132.272727 548.19 
L 137.363636 552.785684 
L 142.454545 557.479149 
L 147.545455 562.273548 
L 152.636364 567.172174 
L 157.727273 572.178462 
L 162.818182 577.296 
L 167.909091 582.528539 
L 173 587.88 
L 178.090909 593.354483 
L 183.181818 598.956279 
L 188.272727 604.689882 
L 193.363636 610.56 
L 198.454545 616.571566 
L 203.545455 622.729756 
L 208.636364 629.04 
L 213.727273 635.508 
L 218.818182 642.139747 
L 223.909091 648.941538 
L 229 655.92 
L 234.090909 663.082105 
L 239.181818 670.4352 
L 244.272727 677.987027 
L 249.363636 685.745753 
L 254.454545 693.72 
L 259.545455 701.918873 
L 264.636364 710.352 
L 269.727273 719.029565 
L 270.850249 721 
" clip-path="url(#p862e91363d)" style="fill: none; stroke-dasharray: 1.5,2.475; stroke-dashoffset: 0; stroke: #9467bd; stroke-width: 1.5"/>
   </g>
   <g id="line2d_20">
    <path d="M 117 615.6 
L 122.090909 615.6 
L 127.181818 615.6 
L 132.272727 615.6 
L 137.363636 615.6 
L 142.454545 615.6 
L 147.545455 615.6 
L 152.636364 615.6 
L 157.727273 615.6 
L 162.818182 615.6 
L 167.909091 615.6 
L 173 615.6 
L 178.090909 615.6 
L 183.181818 615.6 
L 188.272727 615.6 
L 193.363636 615.6 
L 198.454545 615.6 
L 203.545455 615.6 
L 208.636364 615.6 
L 213.727273 615.6 
L 218.818182 615.6 
L 223.909091 615.6 
L 229 615.6 
L 234.090909 615.6 
L 239.181818 615.6 
L 244.272727 615.6 
L 249.363636 615.6 
L 254.454545 615.6 
L 259.545455 615.6 
L 264.636364 615.6 
L 269.727273 615.6 
L 274.818182 615.6 
L 279.909091 615.6 
L 285 615.6 
L 290.090909 615.6 
L 295.181818 615.6 
L 300.272727 615.6 
L 305.363636 615.6 
L 310.454545 615.6 
L 315.545455 615.6 
L 320.636364 615.6 
L 325.727273 615.6 
L 330.818182 615.6 
L 335.909091 615.6 
L 341 615.6 
L 346.090909 615.6 
L 351.181818 615.6 
L 356.272727 615.6 
L 361.363636 615.6 
L 366.454545 615.6 
L 371.545455 615.6 
L 376.636364 615.6 
L 381.727273 615.6 
L 386.818182 615.6 
L 391.909091 615.6 
L 397 615.6 
L 402.090909 615.6 
L 407.181818 615.6 
L 412.272727 615.6 
L 417.363636 615.6 
L 422.454545 615.6 
L 427.545455 615.6 
L 432.636364 615.6 
L 437.727273 615.6 
L 442.818182 615.6 
L 447.909091 615.6 
L 453 615.6 
L 458.090909 615.6 
L 463.181818 615.6 
L 468.272727 615.6 
L 473.363636 615.6 
L 478.454545 615.6 
L 483.545455 615.6 
L 488.636364 615.6 
L 493.727273 615.6 
L 498.818182 615.6 
L 503.909091 615.6 
L 509 615.6 
L 514.090909 615.6 
L 519.181818 615.6 
L 524.272727 615.6 
L 529.363636 615.6 
L 534.454545 615.6 
L 539.545455 615.6 
L 544.636364 615.6 
L 549.727273 615.6 
L 554.818182 615.6 
L 559.909091 615.6 
L 565 615.6 
L 570.090909 615.6 
L 575.181818 615.6 
L 580.272727 615.6 
L 585.363636 615.6 
L 590.454545 615.6 
L 595.545455 615.6 
L 600.636364 615.6 
L 605.727273 615.6 
L 610.818182 615.6 
L 615.909091 615.6 
L 621 615.6 
" clip-path="url(#p862e91363d)" style="fill: none; stroke-dasharray: 9.6,2.4,1.5,2.4; stroke-dashoffset: 0; stroke: #8c564b; stroke-width: 1.5"/>
   </g>
   <g id="line2d_21">
    <path d="M 117 534.96 
L 621 534.96 
" clip-path="url(#p862e91363d)" style="fill: none; stroke-dasharray: 5.55,2.4; stroke-dashoffset: 0; stroke: #e377c2; stroke-width: 1.5"/>
   </g>
   <g id="patch_3">
    <path d="M 117 640.8 
L 117 86.4 
" style="fill: none; stroke: #000000; stroke-width: 0.8; stroke-linejoin: miter; stroke-linecap: square"/>
   </g>
   <g id="patch_4">
    <path d="M 621 640.8 
L 621 86.4 
" style="fill: none; stroke: #000000; stroke-width: 0.8; stroke-linejoin: miter; stroke-linecap: square"/>
   </g>
   <g id="patch_5">
    <path d="M 117 640.8 
L 621 640.8 
" style="fill: none; stroke: #000000; stroke-width: 0.8; stroke-linejoin: miter; stroke-linecap: square"/>
   </g>
   <g id="patch_6">
    <path d="M 117 86.4 
L 621 86.4 
" style="fill: none; stroke: #000000; stroke-width: 0.8; stroke-linejoin: miter; stroke-linecap: square"/>
   </g>
   <g id="legend_1">
    <g id="line2d_22">
     <path d="M 490.846875 99.498437 
L 500.846875 99.498437 
L 510.846875 99.498437 
" style="fill: none; stroke: #0000ff; stroke-width: 1.5; stroke-linecap: square"/>
    </g>
    <g id="text_15">
     <!-- Rdm. Forest -->
     <g transform="translate(518.846875 102.998437) scale(0.1 -0.1)">
      <defs>
       <path id="DejaVuSans-52" d="M 2841 2188 
Q 3044 2119 3236 1894 
Q 3428 1669 3622 1275 
L 4263 0 
L 3584 0 
L 2988 1197 
Q 2756 1666 2539 1819 
Q 2322 1972 1947 1972 
L 1259 1972 
L 1259 0 
L 628 0 
L 628 4666 
L 2053 4666 
Q 2853 4666 3247 4331 
Q 3641 3997 3641 3322 
Q 3641 2881 3436 2590 
Q 3231 2300 2841 2188 
z
M 1259 4147 
L 1259 2491 
L 2053 2491 
Q 2509 2491 2742 2702 
Q 2975 2913 2975 3322 
Q 2975 3731 2742 3939 
Q 2509 4147 2053 4147 
L 1259 4147 
z
" transform="scale(0.015625)"/>
       <path id="DejaVuSans-6d" d="M 3328 2828 
Q 3544 3216 3844 3400 
Q 4144 3584 4550 3584 
Q 5097 3584 5394 3201 
Q 5691 2819 5691 2113 
L 5691 0 
L 5113 0 
L 5113 2094 
Q 5113 2597 4934 2840 
Q 4756 3084 4391 3084 
Q 3944 3084 3684 2787 
Q 3425 2491 3425 1978 
L 3425 0 
L 2847 0 
L 2847 2094 
Q 2847 2600 2669 2842 
Q 2491 3084 2119 3084 
Q 1678 3084 1418 2786 
Q 1159 2488 1159 1978 
L 1159 0 
L 581 0 
L 581 3500 
L 1159 3500 
L 1159 2956 
Q 1356 3278 1631 3431 
Q 1906 3584 2284 3584 
Q 2666 3584 2933 3390 
Q 3200 3197 3328 2828 
z
" transform="scale(0.015625)"/>
       <path id="DejaVuSans-46" d="M 628 4666 
L 3309 4666 
L 3309 4134 
L 1259 4134 
L 1259 2759 
L 3109 2759 
L 3109 2228 
L 1259 2228 
L 1259 0 
L 628 0 
L 628 4666 
z
" transform="scale(0.015625)"/>
      </defs>
      <use xlink:href="#DejaVuSans-52"/>
      <use xlink:href="#DejaVuSans-64" x="69.482422"/>
      <use xlink:href="#DejaVuSans-6d" x="132.958984"/>
      <use xlink:href="#DejaVuSans-2e" x="230.371094"/>
      <use xlink:href="#DejaVuSans-20" x="262.158203"/>
      <use xlink:href="#DejaVuSans-46" x="293.945312"/>
      <use xlink:href="#DejaVuSans-6f" x="347.839844"/>
      <use xlink:href="#DejaVuSans-72" x="409.021484"/>
      <use xlink:href="#DejaVuSans-65" x="447.884766"/>
      <use xlink:href="#DejaVuSans-73" x="509.408203"/>
      <use xlink:href="#DejaVuSans-74" x="561.507812"/>
     </g>
    </g>
    <g id="line2d_23">
     <path d="M 490.846875 114.176562 
L 500.846875 114.176562 
L 510.846875 114.176562 
" style="fill: none; stroke: #ffa500; stroke-width: 1.5; stroke-linecap: square"/>
    </g>
    <g id="text_16">
     <!-- Bertens -->
     <g transform="translate(518.846875 117.676562) scale(0.1 -0.1)">
      <defs>
       <path id="DejaVuSans-42" d="M 1259 2228 
L 1259 519 
L 2272 519 
Q 2781 519 3026 730 
Q 3272 941 3272 1375 
Q 3272 1813 3026 2020 
Q 2781 2228 2272 2228 
L 1259 2228 
z
M 1259 4147 
L 1259 2741 
L 2194 2741 
Q 2656 2741 2882 2914 
Q 3109 3088 3109 3444 
Q 3109 3797 2882 3972 
Q 2656 4147 2194 4147 
L 1259 4147 
z
M 628 4666 
L 2241 4666 
Q 2963 4666 3353 4366 
Q 3744 4066 3744 3513 
Q 3744 3084 3544 2831 
Q 3344 2578 2956 2516 
Q 3422 2416 3680 2098 
Q 3938 1781 3938 1306 
Q 3938 681 3513 340 
Q 3088 0 2303 0 
L 628 0 
L 628 4666 
z
" transform="scale(0.015625)"/>
      </defs>
      <use xlink:href="#DejaVuSans-42"/>
      <use xlink:href="#DejaVuSans-65" x="68.603516"/>
      <use xlink:href="#DejaVuSans-72" x="130.126953"/>
      <use xlink:href="#DejaVuSans-74" x="171.240234"/>
      <use xlink:href="#DejaVuSans-65" x="210.449219"/>
      <use xlink:href="#DejaVuSans-6e" x="271.972656"/>
      <use xlink:href="#DejaVuSans-73" x="335.351562"/>
     </g>
    </g>
    <g id="line2d_24">
     <path d="M 490.846875 128.854687 
L 500.846875 128.854687 
L 510.846875 128.854687 
" style="fill: none; stroke: #1f77b4; stroke-width: 1.5; stroke-linecap: square"/>
    </g>
    <g id="text_17">
     <!-- ADO -->
     <g transform="translate(518.846875 132.354687) scale(0.1 -0.1)">
      <defs>
       <path id="DejaVuSans-41" d="M 2188 4044 
L 1331 1722 
L 3047 1722 
L 2188 4044 
z
M 1831 4666 
L 2547 4666 
L 4325 0 
L 3669 0 
L 3244 1197 
L 1141 1197 
L 716 0 
L 50 0 
L 1831 4666 
z
" transform="scale(0.015625)"/>
       <path id="DejaVuSans-44" d="M 1259 4147 
L 1259 519 
L 2022 519 
Q 2988 519 3436 956 
Q 3884 1394 3884 2338 
Q 3884 3275 3436 3711 
Q 2988 4147 2022 4147 
L 1259 4147 
z
M 628 4666 
L 1925 4666 
Q 3281 4666 3915 4102 
Q 4550 3538 4550 2338 
Q 4550 1131 3912 565 
Q 3275 0 1925 0 
L 628 0 
L 628 4666 
z
" transform="scale(0.015625)"/>
       <path id="DejaVuSans-4f" d="M 2522 4238 
Q 1834 4238 1429 3725 
Q 1025 3213 1025 2328 
Q 1025 1447 1429 934 
Q 1834 422 2522 422 
Q 3209 422 3611 934 
Q 4013 1447 4013 2328 
Q 4013 3213 3611 3725 
Q 3209 4238 2522 4238 
z
M 2522 4750 
Q 3503 4750 4090 4092 
Q 4678 3434 4678 2328 
Q 4678 1225 4090 567 
Q 3503 -91 2522 -91 
Q 1538 -91 948 565 
Q 359 1222 359 2328 
Q 359 3434 948 4092 
Q 1538 4750 2522 4750 
z
" transform="scale(0.015625)"/>
      </defs>
      <use xlink:href="#DejaVuSans-41"/>
      <use xlink:href="#DejaVuSans-44" x="68.408203"/>
      <use xlink:href="#DejaVuSans-4f" x="145.410156"/>
     </g>
    </g>
    <g id="line2d_25">
     <path d="M 490.846875 143.532812 
L 500.846875 143.532812 
L 510.846875 143.532812 
" style="fill: none; stroke: #ff7f0e; stroke-width: 1.5; stroke-linecap: square"/>
    </g>
    <g id="text_18">
     <!-- BODE -->
     <g transform="translate(518.846875 147.032812) scale(0.1 -0.1)">
      <defs>
       <path id="DejaVuSans-45" d="M 628 4666 
L 3578 4666 
L 3578 4134 
L 1259 4134 
L 1259 2753 
L 3481 2753 
L 3481 2222 
L 1259 2222 
L 1259 531 
L 3634 531 
L 3634 0 
L 628 0 
L 628 4666 
z
" transform="scale(0.015625)"/>
      </defs>
      <use xlink:href="#DejaVuSans-42"/>
      <use xlink:href="#DejaVuSans-4f" x="66.853516"/>
      <use xlink:href="#DejaVuSans-44" x="145.564453"/>
      <use xlink:href="#DejaVuSans-45" x="222.566406"/>
     </g>
    </g>
    <g id="line2d_26">
     <path d="M 490.846875 158.210937 
L 500.846875 158.210937 
L 510.846875 158.210937 
" style="fill: none; stroke: #2ca02c; stroke-width: 1.5; stroke-linecap: square"/>
    </g>
    <g id="text_19">
     <!-- DOSE -->
     <g transform="translate(518.846875 161.710937) scale(0.1 -0.1)">
      <defs>
       <path id="DejaVuSans-53" d="M 3425 4513 
L 3425 3897 
Q 3066 4069 2747 4153 
Q 2428 4238 2131 4238 
Q 1616 4238 1336 4038 
Q 1056 3838 1056 3469 
Q 1056 3159 1242 3001 
Q 1428 2844 1947 2747 
L 2328 2669 
Q 3034 2534 3370 2195 
Q 3706 1856 3706 1288 
Q 3706 609 3251 259 
Q 2797 -91 1919 -91 
Q 1588 -91 1214 -16 
Q 841 59 441 206 
L 441 856 
Q 825 641 1194 531 
Q 1563 422 1919 422 
Q 2459 422 2753 634 
Q 3047 847 3047 1241 
Q 3047 1584 2836 1778 
Q 2625 1972 2144 2069 
L 1759 2144 
Q 1053 2284 737 2584 
Q 422 2884 422 3419 
Q 422 4038 858 4394 
Q 1294 4750 2059 4750 
Q 2388 4750 2728 4690 
Q 3069 4631 3425 4513 
z
" transform="scale(0.015625)"/>
      </defs>
      <use xlink:href="#DejaVuSans-44"/>
      <use xlink:href="#DejaVuSans-4f" x="77.001953"/>
      <use xlink:href="#DejaVuSans-53" x="155.712891"/>
      <use xlink:href="#DejaVuSans-45" x="219.189453"/>
     </g>
    </g>
    <g id="line2d_27">
     <path d="M 490.846875 172.889062 
L 500.846875 172.889062 
L 510.846875 172.889062 
" style="fill: none; stroke: #d62728; stroke-width: 1.5; stroke-linecap: square"/>
    </g>
    <g id="text_20">
     <!-- Prev. Exacerbation -->
     <g transform="translate(518.846875 176.389062) scale(0.1 -0.1)">
      <defs>
       <path id="DejaVuSans-50" d="M 1259 4147 
L 1259 2394 
L 2053 2394 
Q 2494 2394 2734 2622 
Q 2975 2850 2975 3272 
Q 2975 3691 2734 3919 
Q 2494 4147 2053 4147 
L 1259 4147 
z
M 628 4666 
L 2053 4666 
Q 2838 4666 3239 4311 
Q 3641 3956 3641 3272 
Q 3641 2581 3239 2228 
Q 2838 1875 2053 1875 
L 1259 1875 
L 1259 0 
L 628 0 
L 628 4666 
z
" transform="scale(0.015625)"/>
       <path id="DejaVuSans-76" d="M 191 3500 
L 800 3500 
L 1894 563 
L 2988 3500 
L 3597 3500 
L 2284 0 
L 1503 0 
L 191 3500 
z
" transform="scale(0.015625)"/>
       <path id="DejaVuSans-78" d="M 3513 3500 
L 2247 1797 
L 3578 0 
L 2900 0 
L 1881 1375 
L 863 0 
L 184 0 
L 1544 1831 
L 300 3500 
L 978 3500 
L 1906 2253 
L 2834 3500 
L 3513 3500 
z
" transform="scale(0.015625)"/>
      </defs>
      <use xlink:href="#DejaVuSans-50"/>
      <use xlink:href="#DejaVuSans-72" x="58.552734"/>
      <use xlink:href="#DejaVuSans-65" x="97.416016"/>
      <use xlink:href="#DejaVuSans-76" x="158.939453"/>
      <use xlink:href="#DejaVuSans-2e" x="210.369141"/>
      <use xlink:href="#DejaVuSans-20" x="242.15625"/>
      <use xlink:href="#DejaVuSans-45" x="273.943359"/>
      <use xlink:href="#DejaVuSans-78" x="337.126953"/>
      <use xlink:href="#DejaVuSans-61" x="396.306641"/>
      <use xlink:href="#DejaVuSans-63" x="457.585938"/>
      <use xlink:href="#DejaVuSans-65" x="512.566406"/>
      <use xlink:href="#DejaVuSans-72" x="574.089844"/>
      <use xlink:href="#DejaVuSans-62" x="615.203125"/>
      <use xlink:href="#DejaVuSans-61" x="678.679688"/>
      <use xlink:href="#DejaVuSans-74" x="739.958984"/>
      <use xlink:href="#DejaVuSans-69" x="779.167969"/>
      <use xlink:href="#DejaVuSans-6f" x="806.951172"/>
      <use xlink:href="#DejaVuSans-6e" x="868.132812"/>
     </g>
    </g>
    <g id="line2d_28">
     <path d="M 490.846875 187.567187 
L 500.846875 187.567187 
L 510.846875 187.567187 
" style="fill: none; stroke-dasharray: 1.5,2.475; stroke-dashoffset: 0; stroke: #9467bd; stroke-width: 1.5"/>
    </g>
    <g id="text_21">
     <!-- Always act -->
     <g transform="translate(518.846875 191.067187) scale(0.1 -0.1)">
      <defs>
       <path id="DejaVuSans-77" d="M 269 3500 
L 844 3500 
L 1563 769 
L 2278 3500 
L 2956 3500 
L 3675 769 
L 4391 3500 
L 4966 3500 
L 4050 0 
L 3372 0 
L 2619 2869 
L 1863 0 
L 1184 0 
L 269 3500 
z
" transform="scale(0.015625)"/>
      </defs>
      <use xlink:href="#DejaVuSans-41"/>
      <use xlink:href="#DejaVuSans-6c" x="68.408203"/>
      <use xlink:href="#DejaVuSans-77" x="96.191406"/>
      <use xlink:href="#DejaVuSans-61" x="177.978516"/>
      <use xlink:href="#DejaVuSans-79" x="239.257812"/>
      <use xlink:href="#DejaVuSans-73" x="298.4375"/>
      <use xlink:href="#DejaVuSans-20" x="350.537109"/>
      <use xlink:href="#DejaVuSans-61" x="382.324219"/>
      <use xlink:href="#DejaVuSans-63" x="443.603516"/>
      <use xlink:href="#DejaVuSans-74" x="498.583984"/>
     </g>
    </g>
    <g id="line2d_29">
     <path d="M 490.846875 202.245312 
L 500.846875 202.245312 
L 510.846875 202.245312 
" style="fill: none; stroke-dasharray: 9.6,2.4,1.5,2.4; stroke-dashoffset: 0; stroke: #8c564b; stroke-width: 1.5"/>
    </g>
    <g id="text_22">
     <!-- Never act -->
     <g transform="translate(518.846875 205.745312) scale(0.1 -0.1)">
      <use xlink:href="#DejaVuSans-4e"/>
      <use xlink:href="#DejaVuSans-65" x="74.804688"/>
      <use xlink:href="#DejaVuSans-76" x="136.328125"/>
      <use xlink:href="#DejaVuSans-65" x="195.507812"/>
      <use xlink:href="#DejaVuSans-72" x="257.03125"/>
      <use xlink:href="#DejaVuSans-20" x="298.144531"/>
      <use xlink:href="#DejaVuSans-61" x="329.931641"/>
      <use xlink:href="#DejaVuSans-63" x="391.210938"/>
      <use xlink:href="#DejaVuSans-74" x="446.191406"/>
     </g>
    </g>
    <g id="line2d_30">
     <path d="M 490.846875 216.923437 
L 500.846875 216.923437 
L 510.846875 216.923437 
" style="fill: none; stroke-dasharray: 5.55,2.4; stroke-dashoffset: 0; stroke: #e377c2; stroke-width: 1.5"/>
    </g>
    <g id="text_23">
     <!-- Oracle -->
     <g transform="translate(518.846875 220.423437) scale(0.1 -0.1)">
      <use xlink:href="#DejaVuSans-4f"/>
      <use xlink:href="#DejaVuSans-72" x="78.710938"/>
      <use xlink:href="#DejaVuSans-61" x="119.824219"/>
      <use xlink:href="#DejaVuSans-63" x="181.103516"/>
      <use xlink:href="#DejaVuSans-6c" x="236.083984"/>
      <use xlink:href="#DejaVuSans-65" x="263.867188"/>
     </g>
    </g>
   </g>
  </g>
 </g>
 <defs>
  <clipPath id="p862e91363d">
   <rect x="117" y="86.4" width="504" height="554.4"/>
  </clipPath>
 </defs>
</svg>
