<?xml version="1.0" encoding="utf-8" standalone="no"?>
<!DOCTYPE svg PUBLIC "-//W3C//DTD SVG 1.1//EN"
  "http://www.w3.org/Graphics/SVG/1.1/DTD/svg11.dtd">
<svg xmlns:xlink="http://www.w3.org/1999/xlink" width="777.6pt" height="518.4pt" viewBox="0 0 777.6 518.4" xmlns="http://www.w3.org/2000/svg" version="1.1">
 <metadata>
  <rdf:RDF xmlns:dc="http://purl.org/dc/elements/1.1/" xmlns:cc="http://creativecommons.org/ns#" xmlns:rdf="http://www.w3.org/1999/02/22-rdf-syntax-ns#">
   <cc:Work>
    <dc:type rdf:resource="http://purl.org/dc/dcmitype/StillImage"/>
    <dc:date>2023-06-15T08:08:40.786495</dc:date>
    <dc:format>image/svg+xml</dc:format>
    <dc:creator>
     <cc:Agent>
      <dc:title>Matplotlib v3.6.3, https://matplotlib.org/</dc:title>
     </cc:Agent>
    </dc:creator>
   </cc:Work>
  </rdf:RDF>
 </metadata>
 <defs>
  <style type="text/css">*{stroke-linejoin: round; stroke-linecap: butt}</style>
 </defs>
 <g id="figure_1">
  <g id="patch_1">
   <path d="M 0 518.4 
L 777.6 518.4 
L 777.6 0 
L 0 0 
z
" style="fill: #ffffff"/>
  </g>
  <g id="axes_1">
   <g id="patch_2">
    <path d="M 101.32 474.28 
L 764.64 474.28 
L 764.64 27.65625 
L 101.32 27.65625 
z
" style="fill: #ffffff"/>
   </g>
   <g id="matplotlib.axis_1">
    <g id="xtick_1">
     <g id="line2d_1">
      <path d="M 101.32 474.28 
L 101.32 27.65625 
" clip-path="url(#p5a1c030f8c)" style="fill: none; stroke: #cccccc; stroke-linecap: round"/>
     </g>
     <g id="line2d_2"/>
     <g id="text_1">
      <!-- 0 -->
      <g style="fill: #262626" transform="translate(98.539531 488.437812) scale(0.1 -0.1)">
       <defs>
        <path id="ArialMT-30" d="M 266 2259 
Q 266 3072 433 3567 
Q 600 4063 929 4331 
Q 1259 4600 1759 4600 
Q 2128 4600 2406 4451 
Q 2684 4303 2865 4023 
Q 3047 3744 3150 3342 
Q 3253 2941 3253 2259 
Q 3253 1453 3087 958 
Q 2922 463 2592 192 
Q 2263 -78 1759 -78 
Q 1097 -78 719 397 
Q 266 969 266 2259 
z
M 844 2259 
Q 844 1131 1108 757 
Q 1372 384 1759 384 
Q 2147 384 2411 759 
Q 2675 1134 2675 2259 
Q 2675 3391 2411 3762 
Q 2147 4134 1753 4134 
Q 1366 4134 1134 3806 
Q 844 3388 844 2259 
z
" transform="scale(0.015625)"/>
       </defs>
       <use xlink:href="#ArialMT-30"/>
      </g>
     </g>
    </g>
    <g id="xtick_2">
     <g id="line2d_3">
      <path d="M 227.666667 474.28 
L 227.666667 27.65625 
" clip-path="url(#p5a1c030f8c)" style="fill: none; stroke: #cccccc; stroke-linecap: round"/>
     </g>
     <g id="line2d_4"/>
     <g id="text_2">
      <!-- 20 -->
      <g style="fill: #262626" transform="translate(222.105729 488.437812) scale(0.1 -0.1)">
       <defs>
        <path id="ArialMT-32" d="M 3222 541 
L 3222 0 
L 194 0 
Q 188 203 259 391 
Q 375 700 629 1000 
Q 884 1300 1366 1694 
Q 2113 2306 2375 2664 
Q 2638 3022 2638 3341 
Q 2638 3675 2398 3904 
Q 2159 4134 1775 4134 
Q 1369 4134 1125 3890 
Q 881 3647 878 3216 
L 300 3275 
Q 359 3922 746 4261 
Q 1134 4600 1788 4600 
Q 2447 4600 2831 4234 
Q 3216 3869 3216 3328 
Q 3216 3053 3103 2787 
Q 2991 2522 2730 2228 
Q 2469 1934 1863 1422 
Q 1356 997 1212 845 
Q 1069 694 975 541 
L 3222 541 
z
" transform="scale(0.015625)"/>
       </defs>
       <use xlink:href="#ArialMT-32"/>
       <use xlink:href="#ArialMT-30" x="55.615234"/>
      </g>
     </g>
    </g>
    <g id="xtick_3">
     <g id="line2d_5">
      <path d="M 354.013333 474.28 
L 354.013333 27.65625 
" clip-path="url(#p5a1c030f8c)" style="fill: none; stroke: #cccccc; stroke-linecap: round"/>
     </g>
     <g id="line2d_6"/>
     <g id="text_3">
      <!-- 40 -->
      <g style="fill: #262626" transform="translate(348.452396 488.437812) scale(0.1 -0.1)">
       <defs>
        <path id="ArialMT-34" d="M 2069 0 
L 2069 1097 
L 81 1097 
L 81 1613 
L 2172 4581 
L 2631 4581 
L 2631 1613 
L 3250 1613 
L 3250 1097 
L 2631 1097 
L 2631 0 
L 2069 0 
z
M 2069 1613 
L 2069 3678 
L 634 1613 
L 2069 1613 
z
" transform="scale(0.015625)"/>
       </defs>
       <use xlink:href="#ArialMT-34"/>
       <use xlink:href="#ArialMT-30" x="55.615234"/>
      </g>
     </g>
    </g>
    <g id="xtick_4">
     <g id="line2d_7">
      <path d="M 480.36 474.28 
L 480.36 27.65625 
" clip-path="url(#p5a1c030f8c)" style="fill: none; stroke: #cccccc; stroke-linecap: round"/>
     </g>
     <g id="line2d_8"/>
     <g id="text_4">
      <!-- 60 -->
      <g style="fill: #262626" transform="translate(474.799063 488.437812) scale(0.1 -0.1)">
       <defs>
        <path id="ArialMT-36" d="M 3184 3459 
L 2625 3416 
Q 2550 3747 2413 3897 
Q 2184 4138 1850 4138 
Q 1581 4138 1378 3988 
Q 1113 3794 959 3422 
Q 806 3050 800 2363 
Q 1003 2672 1297 2822 
Q 1591 2972 1913 2972 
Q 2475 2972 2870 2558 
Q 3266 2144 3266 1488 
Q 3266 1056 3080 686 
Q 2894 316 2569 119 
Q 2244 -78 1831 -78 
Q 1128 -78 684 439 
Q 241 956 241 2144 
Q 241 3472 731 4075 
Q 1159 4600 1884 4600 
Q 2425 4600 2770 4297 
Q 3116 3994 3184 3459 
z
M 888 1484 
Q 888 1194 1011 928 
Q 1134 663 1356 523 
Q 1578 384 1822 384 
Q 2178 384 2434 671 
Q 2691 959 2691 1453 
Q 2691 1928 2437 2201 
Q 2184 2475 1800 2475 
Q 1419 2475 1153 2201 
Q 888 1928 888 1484 
z
" transform="scale(0.015625)"/>
       </defs>
       <use xlink:href="#ArialMT-36"/>
       <use xlink:href="#ArialMT-30" x="55.615234"/>
      </g>
     </g>
    </g>
    <g id="xtick_5">
     <g id="line2d_9">
      <path d="M 606.706667 474.28 
L 606.706667 27.65625 
" clip-path="url(#p5a1c030f8c)" style="fill: none; stroke: #cccccc; stroke-linecap: round"/>
     </g>
     <g id="line2d_10"/>
     <g id="text_5">
      <!-- 80 -->
      <g style="fill: #262626" transform="translate(601.145729 488.437812) scale(0.1 -0.1)">
       <defs>
        <path id="ArialMT-38" d="M 1131 2484 
Q 781 2613 612 2850 
Q 444 3088 444 3419 
Q 444 3919 803 4259 
Q 1163 4600 1759 4600 
Q 2359 4600 2725 4251 
Q 3091 3903 3091 3403 
Q 3091 3084 2923 2848 
Q 2756 2613 2416 2484 
Q 2838 2347 3058 2040 
Q 3278 1734 3278 1309 
Q 3278 722 2862 322 
Q 2447 -78 1769 -78 
Q 1091 -78 675 323 
Q 259 725 259 1325 
Q 259 1772 486 2073 
Q 713 2375 1131 2484 
z
M 1019 3438 
Q 1019 3113 1228 2906 
Q 1438 2700 1772 2700 
Q 2097 2700 2305 2904 
Q 2513 3109 2513 3406 
Q 2513 3716 2298 3927 
Q 2084 4138 1766 4138 
Q 1444 4138 1231 3931 
Q 1019 3725 1019 3438 
z
M 838 1322 
Q 838 1081 952 856 
Q 1066 631 1291 507 
Q 1516 384 1775 384 
Q 2178 384 2440 643 
Q 2703 903 2703 1303 
Q 2703 1709 2433 1975 
Q 2163 2241 1756 2241 
Q 1359 2241 1098 1978 
Q 838 1716 838 1322 
z
" transform="scale(0.015625)"/>
       </defs>
       <use xlink:href="#ArialMT-38"/>
       <use xlink:href="#ArialMT-30" x="55.615234"/>
      </g>
     </g>
    </g>
    <g id="xtick_6">
     <g id="line2d_11">
      <path d="M 733.053333 474.28 
L 733.053333 27.65625 
" clip-path="url(#p5a1c030f8c)" style="fill: none; stroke: #cccccc; stroke-linecap: round"/>
     </g>
     <g id="line2d_12"/>
     <g id="text_6">
      <!-- 100 -->
      <g style="fill: #262626" transform="translate(724.711927 488.437812) scale(0.1 -0.1)">
       <defs>
        <path id="ArialMT-31" d="M 2384 0 
L 1822 0 
L 1822 3584 
Q 1619 3391 1289 3197 
Q 959 3003 697 2906 
L 697 3450 
Q 1169 3672 1522 3987 
Q 1875 4303 2022 4600 
L 2384 4600 
L 2384 0 
z
" transform="scale(0.015625)"/>
       </defs>
       <use xlink:href="#ArialMT-31"/>
       <use xlink:href="#ArialMT-30" x="55.615234"/>
       <use xlink:href="#ArialMT-30" x="111.230469"/>
      </g>
     </g>
    </g>
    <g id="text_7">
     <!-- relative importance -->
     <g style="fill: #262626" transform="translate(386.517891 502.298906) scale(0.11 -0.11)">
      <defs>
       <path id="ArialMT-72" d="M 416 0 
L 416 3319 
L 922 3319 
L 922 2816 
Q 1116 3169 1280 3281 
Q 1444 3394 1641 3394 
Q 1925 3394 2219 3213 
L 2025 2691 
Q 1819 2813 1613 2813 
Q 1428 2813 1281 2702 
Q 1134 2591 1072 2394 
Q 978 2094 978 1738 
L 978 0 
L 416 0 
z
" transform="scale(0.015625)"/>
       <path id="ArialMT-65" d="M 2694 1069 
L 3275 997 
Q 3138 488 2766 206 
Q 2394 -75 1816 -75 
Q 1088 -75 661 373 
Q 234 822 234 1631 
Q 234 2469 665 2931 
Q 1097 3394 1784 3394 
Q 2450 3394 2872 2941 
Q 3294 2488 3294 1666 
Q 3294 1616 3291 1516 
L 816 1516 
Q 847 969 1125 678 
Q 1403 388 1819 388 
Q 2128 388 2347 550 
Q 2566 713 2694 1069 
z
M 847 1978 
L 2700 1978 
Q 2663 2397 2488 2606 
Q 2219 2931 1791 2931 
Q 1403 2931 1139 2672 
Q 875 2413 847 1978 
z
" transform="scale(0.015625)"/>
       <path id="ArialMT-6c" d="M 409 0 
L 409 4581 
L 972 4581 
L 972 0 
L 409 0 
z
" transform="scale(0.015625)"/>
       <path id="ArialMT-61" d="M 2588 409 
Q 2275 144 1986 34 
Q 1697 -75 1366 -75 
Q 819 -75 525 192 
Q 231 459 231 875 
Q 231 1119 342 1320 
Q 453 1522 633 1644 
Q 813 1766 1038 1828 
Q 1203 1872 1538 1913 
Q 2219 1994 2541 2106 
Q 2544 2222 2544 2253 
Q 2544 2597 2384 2738 
Q 2169 2928 1744 2928 
Q 1347 2928 1158 2789 
Q 969 2650 878 2297 
L 328 2372 
Q 403 2725 575 2942 
Q 747 3159 1072 3276 
Q 1397 3394 1825 3394 
Q 2250 3394 2515 3294 
Q 2781 3194 2906 3042 
Q 3031 2891 3081 2659 
Q 3109 2516 3109 2141 
L 3109 1391 
Q 3109 606 3145 398 
Q 3181 191 3288 0 
L 2700 0 
Q 2613 175 2588 409 
z
M 2541 1666 
Q 2234 1541 1622 1453 
Q 1275 1403 1131 1340 
Q 988 1278 909 1158 
Q 831 1038 831 891 
Q 831 666 1001 516 
Q 1172 366 1500 366 
Q 1825 366 2078 508 
Q 2331 650 2450 897 
Q 2541 1088 2541 1459 
L 2541 1666 
z
" transform="scale(0.015625)"/>
       <path id="ArialMT-74" d="M 1650 503 
L 1731 6 
Q 1494 -44 1306 -44 
Q 1000 -44 831 53 
Q 663 150 594 308 
Q 525 466 525 972 
L 525 2881 
L 113 2881 
L 113 3319 
L 525 3319 
L 525 4141 
L 1084 4478 
L 1084 3319 
L 1650 3319 
L 1650 2881 
L 1084 2881 
L 1084 941 
Q 1084 700 1114 631 
Q 1144 563 1211 522 
Q 1278 481 1403 481 
Q 1497 481 1650 503 
z
" transform="scale(0.015625)"/>
       <path id="ArialMT-69" d="M 425 3934 
L 425 4581 
L 988 4581 
L 988 3934 
L 425 3934 
z
M 425 0 
L 425 3319 
L 988 3319 
L 988 0 
L 425 0 
z
" transform="scale(0.015625)"/>
       <path id="ArialMT-76" d="M 1344 0 
L 81 3319 
L 675 3319 
L 1388 1331 
Q 1503 1009 1600 663 
Q 1675 925 1809 1294 
L 2547 3319 
L 3125 3319 
L 1869 0 
L 1344 0 
z
" transform="scale(0.015625)"/>
       <path id="ArialMT-20" transform="scale(0.015625)"/>
       <path id="ArialMT-6d" d="M 422 0 
L 422 3319 
L 925 3319 
L 925 2853 
Q 1081 3097 1340 3245 
Q 1600 3394 1931 3394 
Q 2300 3394 2536 3241 
Q 2772 3088 2869 2813 
Q 3263 3394 3894 3394 
Q 4388 3394 4653 3120 
Q 4919 2847 4919 2278 
L 4919 0 
L 4359 0 
L 4359 2091 
Q 4359 2428 4304 2576 
Q 4250 2725 4106 2815 
Q 3963 2906 3769 2906 
Q 3419 2906 3187 2673 
Q 2956 2441 2956 1928 
L 2956 0 
L 2394 0 
L 2394 2156 
Q 2394 2531 2256 2718 
Q 2119 2906 1806 2906 
Q 1569 2906 1367 2781 
Q 1166 2656 1075 2415 
Q 984 2175 984 1722 
L 984 0 
L 422 0 
z
" transform="scale(0.015625)"/>
       <path id="ArialMT-70" d="M 422 -1272 
L 422 3319 
L 934 3319 
L 934 2888 
Q 1116 3141 1344 3267 
Q 1572 3394 1897 3394 
Q 2322 3394 2647 3175 
Q 2972 2956 3137 2557 
Q 3303 2159 3303 1684 
Q 3303 1175 3120 767 
Q 2938 359 2589 142 
Q 2241 -75 1856 -75 
Q 1575 -75 1351 44 
Q 1128 163 984 344 
L 984 -1272 
L 422 -1272 
z
M 931 1641 
Q 931 1000 1190 694 
Q 1450 388 1819 388 
Q 2194 388 2461 705 
Q 2728 1022 2728 1688 
Q 2728 2322 2467 2637 
Q 2206 2953 1844 2953 
Q 1484 2953 1207 2617 
Q 931 2281 931 1641 
z
" transform="scale(0.015625)"/>
       <path id="ArialMT-6f" d="M 213 1659 
Q 213 2581 725 3025 
Q 1153 3394 1769 3394 
Q 2453 3394 2887 2945 
Q 3322 2497 3322 1706 
Q 3322 1066 3130 698 
Q 2938 331 2570 128 
Q 2203 -75 1769 -75 
Q 1072 -75 642 372 
Q 213 819 213 1659 
z
M 791 1659 
Q 791 1022 1069 705 
Q 1347 388 1769 388 
Q 2188 388 2466 706 
Q 2744 1025 2744 1678 
Q 2744 2294 2464 2611 
Q 2184 2928 1769 2928 
Q 1347 2928 1069 2612 
Q 791 2297 791 1659 
z
" transform="scale(0.015625)"/>
       <path id="ArialMT-6e" d="M 422 0 
L 422 3319 
L 928 3319 
L 928 2847 
Q 1294 3394 1984 3394 
Q 2284 3394 2536 3286 
Q 2788 3178 2913 3003 
Q 3038 2828 3088 2588 
Q 3119 2431 3119 2041 
L 3119 0 
L 2556 0 
L 2556 2019 
Q 2556 2363 2490 2533 
Q 2425 2703 2258 2804 
Q 2091 2906 1866 2906 
Q 1506 2906 1245 2678 
Q 984 2450 984 1813 
L 984 0 
L 422 0 
z
" transform="scale(0.015625)"/>
       <path id="ArialMT-63" d="M 2588 1216 
L 3141 1144 
Q 3050 572 2676 248 
Q 2303 -75 1759 -75 
Q 1078 -75 664 370 
Q 250 816 250 1647 
Q 250 2184 428 2587 
Q 606 2991 970 3192 
Q 1334 3394 1763 3394 
Q 2303 3394 2647 3120 
Q 2991 2847 3088 2344 
L 2541 2259 
Q 2463 2594 2264 2762 
Q 2066 2931 1784 2931 
Q 1359 2931 1093 2626 
Q 828 2322 828 1663 
Q 828 994 1084 691 
Q 1341 388 1753 388 
Q 2084 388 2306 591 
Q 2528 794 2588 1216 
z
" transform="scale(0.015625)"/>
      </defs>
      <use xlink:href="#ArialMT-72"/>
      <use xlink:href="#ArialMT-65" x="33.300781"/>
      <use xlink:href="#ArialMT-6c" x="88.916016"/>
      <use xlink:href="#ArialMT-61" x="111.132812"/>
      <use xlink:href="#ArialMT-74" x="166.748047"/>
      <use xlink:href="#ArialMT-69" x="194.53125"/>
      <use xlink:href="#ArialMT-76" x="216.748047"/>
      <use xlink:href="#ArialMT-65" x="266.748047"/>
      <use xlink:href="#ArialMT-20" x="322.363281"/>
      <use xlink:href="#ArialMT-69" x="350.146484"/>
      <use xlink:href="#ArialMT-6d" x="372.363281"/>
      <use xlink:href="#ArialMT-70" x="455.664062"/>
      <use xlink:href="#ArialMT-6f" x="511.279297"/>
      <use xlink:href="#ArialMT-72" x="566.894531"/>
      <use xlink:href="#ArialMT-74" x="600.195312"/>
      <use xlink:href="#ArialMT-61" x="627.978516"/>
      <use xlink:href="#ArialMT-6e" x="683.59375"/>
      <use xlink:href="#ArialMT-63" x="739.208984"/>
      <use xlink:href="#ArialMT-65" x="789.208984"/>
     </g>
    </g>
   </g>
   <g id="matplotlib.axis_2">
    <g id="ytick_1">
     <g id="line2d_13"/>
     <g id="text_8">
      <!-- dementia -->
      <g style="fill: #262626" transform="translate(53.185625 450.107889) scale(0.1 -0.1)">
       <defs>
        <path id="ArialMT-64" d="M 2575 0 
L 2575 419 
Q 2259 -75 1647 -75 
Q 1250 -75 917 144 
Q 584 363 401 755 
Q 219 1147 219 1656 
Q 219 2153 384 2558 
Q 550 2963 881 3178 
Q 1213 3394 1622 3394 
Q 1922 3394 2156 3267 
Q 2391 3141 2538 2938 
L 2538 4581 
L 3097 4581 
L 3097 0 
L 2575 0 
z
M 797 1656 
Q 797 1019 1065 703 
Q 1334 388 1700 388 
Q 2069 388 2326 689 
Q 2584 991 2584 1609 
Q 2584 2291 2321 2609 
Q 2059 2928 1675 2928 
Q 1300 2928 1048 2622 
Q 797 2316 797 1656 
z
" transform="scale(0.015625)"/>
       </defs>
       <use xlink:href="#ArialMT-64"/>
       <use xlink:href="#ArialMT-65" x="55.615234"/>
       <use xlink:href="#ArialMT-6d" x="111.230469"/>
       <use xlink:href="#ArialMT-65" x="194.53125"/>
       <use xlink:href="#ArialMT-6e" x="250.146484"/>
       <use xlink:href="#ArialMT-74" x="305.761719"/>
       <use xlink:href="#ArialMT-69" x="333.544922"/>
       <use xlink:href="#ArialMT-61" x="355.761719"/>
      </g>
     </g>
    </g>
    <g id="ytick_2">
     <g id="line2d_14"/>
     <g id="text_9">
      <!-- dyspnoea -->
      <g style="fill: #262626" transform="translate(50.954375 431.483046) scale(0.1 -0.1)">
       <defs>
        <path id="ArialMT-79" d="M 397 -1278 
L 334 -750 
Q 519 -800 656 -800 
Q 844 -800 956 -737 
Q 1069 -675 1141 -563 
Q 1194 -478 1313 -144 
Q 1328 -97 1363 -6 
L 103 3319 
L 709 3319 
L 1400 1397 
Q 1534 1031 1641 628 
Q 1738 1016 1872 1384 
L 2581 3319 
L 3144 3319 
L 1881 -56 
Q 1678 -603 1566 -809 
Q 1416 -1088 1222 -1217 
Q 1028 -1347 759 -1347 
Q 597 -1347 397 -1278 
z
" transform="scale(0.015625)"/>
        <path id="ArialMT-73" d="M 197 991 
L 753 1078 
Q 800 744 1014 566 
Q 1228 388 1613 388 
Q 2000 388 2187 545 
Q 2375 703 2375 916 
Q 2375 1106 2209 1216 
Q 2094 1291 1634 1406 
Q 1016 1563 777 1677 
Q 538 1791 414 1992 
Q 291 2194 291 2438 
Q 291 2659 392 2848 
Q 494 3038 669 3163 
Q 800 3259 1026 3326 
Q 1253 3394 1513 3394 
Q 1903 3394 2198 3281 
Q 2494 3169 2634 2976 
Q 2775 2784 2828 2463 
L 2278 2388 
Q 2241 2644 2061 2787 
Q 1881 2931 1553 2931 
Q 1166 2931 1000 2803 
Q 834 2675 834 2503 
Q 834 2394 903 2306 
Q 972 2216 1119 2156 
Q 1203 2125 1616 2013 
Q 2213 1853 2448 1751 
Q 2684 1650 2818 1456 
Q 2953 1263 2953 975 
Q 2953 694 2789 445 
Q 2625 197 2315 61 
Q 2006 -75 1616 -75 
Q 969 -75 630 194 
Q 291 463 197 991 
z
" transform="scale(0.015625)"/>
       </defs>
       <use xlink:href="#ArialMT-64"/>
       <use xlink:href="#ArialMT-79" x="55.615234"/>
       <use xlink:href="#ArialMT-73" x="105.615234"/>
       <use xlink:href="#ArialMT-70" x="155.615234"/>
       <use xlink:href="#ArialMT-6e" x="211.230469"/>
       <use xlink:href="#ArialMT-6f" x="266.845703"/>
       <use xlink:href="#ArialMT-65" x="322.460938"/>
       <use xlink:href="#ArialMT-61" x="378.076172"/>
      </g>
     </g>
    </g>
    <g id="ytick_3">
     <g id="line2d_15"/>
     <g id="text_10">
      <!-- fever -->
      <g style="fill: #262626" transform="translate(72.090313 412.858202) scale(0.1 -0.1)">
       <defs>
        <path id="ArialMT-66" d="M 556 0 
L 556 2881 
L 59 2881 
L 59 3319 
L 556 3319 
L 556 3672 
Q 556 4006 616 4169 
Q 697 4388 901 4523 
Q 1106 4659 1475 4659 
Q 1713 4659 2000 4603 
L 1916 4113 
Q 1741 4144 1584 4144 
Q 1328 4144 1222 4034 
Q 1116 3925 1116 3625 
L 1116 3319 
L 1763 3319 
L 1763 2881 
L 1116 2881 
L 1116 0 
L 556 0 
z
" transform="scale(0.015625)"/>
       </defs>
       <use xlink:href="#ArialMT-66"/>
       <use xlink:href="#ArialMT-65" x="27.783203"/>
       <use xlink:href="#ArialMT-76" x="83.398438"/>
       <use xlink:href="#ArialMT-65" x="133.398438"/>
       <use xlink:href="#ArialMT-72" x="189.013672"/>
      </g>
     </g>
    </g>
    <g id="ytick_4">
     <g id="line2d_16"/>
     <g id="text_11">
      <!-- myocardial_infarct -->
      <g style="fill: #262626" transform="translate(13.1825 394.294296) scale(0.1 -0.1)">
       <defs>
        <path id="ArialMT-5f" d="M -97 -1272 
L -97 -866 
L 3631 -866 
L 3631 -1272 
L -97 -1272 
z
" transform="scale(0.015625)"/>
       </defs>
       <use xlink:href="#ArialMT-6d"/>
       <use xlink:href="#ArialMT-79" x="83.300781"/>
       <use xlink:href="#ArialMT-6f" x="133.300781"/>
       <use xlink:href="#ArialMT-63" x="188.916016"/>
       <use xlink:href="#ArialMT-61" x="238.916016"/>
       <use xlink:href="#ArialMT-72" x="294.53125"/>
       <use xlink:href="#ArialMT-64" x="327.832031"/>
       <use xlink:href="#ArialMT-69" x="383.447266"/>
       <use xlink:href="#ArialMT-61" x="405.664062"/>
       <use xlink:href="#ArialMT-6c" x="461.279297"/>
       <use xlink:href="#ArialMT-5f" x="483.496094"/>
       <use xlink:href="#ArialMT-69" x="539.111328"/>
       <use xlink:href="#ArialMT-6e" x="561.328125"/>
       <use xlink:href="#ArialMT-66" x="616.943359"/>
       <use xlink:href="#ArialMT-61" x="644.726562"/>
       <use xlink:href="#ArialMT-72" x="700.341797"/>
       <use xlink:href="#ArialMT-63" x="733.642578"/>
       <use xlink:href="#ArialMT-74" x="783.642578"/>
      </g>
     </g>
    </g>
    <g id="ytick_5">
     <g id="line2d_17"/>
     <g id="text_12">
      <!-- hypertension -->
      <g style="fill: #262626" transform="translate(37.06375 375.608515) scale(0.1 -0.1)">
       <defs>
        <path id="ArialMT-68" d="M 422 0 
L 422 4581 
L 984 4581 
L 984 2938 
Q 1378 3394 1978 3394 
Q 2347 3394 2619 3248 
Q 2891 3103 3008 2847 
Q 3125 2591 3125 2103 
L 3125 0 
L 2563 0 
L 2563 2103 
Q 2563 2525 2380 2717 
Q 2197 2909 1863 2909 
Q 1613 2909 1392 2779 
Q 1172 2650 1078 2428 
Q 984 2206 984 1816 
L 984 0 
L 422 0 
z
" transform="scale(0.015625)"/>
       </defs>
       <use xlink:href="#ArialMT-68"/>
       <use xlink:href="#ArialMT-79" x="55.615234"/>
       <use xlink:href="#ArialMT-70" x="105.615234"/>
       <use xlink:href="#ArialMT-65" x="161.230469"/>
       <use xlink:href="#ArialMT-72" x="216.845703"/>
       <use xlink:href="#ArialMT-74" x="250.146484"/>
       <use xlink:href="#ArialMT-65" x="277.929688"/>
       <use xlink:href="#ArialMT-6e" x="333.544922"/>
       <use xlink:href="#ArialMT-73" x="389.160156"/>
       <use xlink:href="#ArialMT-69" x="439.160156"/>
       <use xlink:href="#ArialMT-6f" x="461.376953"/>
       <use xlink:href="#ArialMT-6e" x="516.992188"/>
      </g>
     </g>
    </g>
    <g id="ytick_6">
     <g id="line2d_18"/>
     <g id="text_13">
      <!-- gender -->
      <g style="fill: #262626" transform="translate(63.185625 356.983671) scale(0.1 -0.1)">
       <defs>
        <path id="ArialMT-67" d="M 319 -275 
L 866 -356 
Q 900 -609 1056 -725 
Q 1266 -881 1628 -881 
Q 2019 -881 2231 -725 
Q 2444 -569 2519 -288 
Q 2563 -116 2559 434 
Q 2191 0 1641 0 
Q 956 0 581 494 
Q 206 988 206 1678 
Q 206 2153 378 2554 
Q 550 2956 876 3175 
Q 1203 3394 1644 3394 
Q 2231 3394 2613 2919 
L 2613 3319 
L 3131 3319 
L 3131 450 
Q 3131 -325 2973 -648 
Q 2816 -972 2473 -1159 
Q 2131 -1347 1631 -1347 
Q 1038 -1347 672 -1080 
Q 306 -813 319 -275 
z
M 784 1719 
Q 784 1066 1043 766 
Q 1303 466 1694 466 
Q 2081 466 2343 764 
Q 2606 1063 2606 1700 
Q 2606 2309 2336 2618 
Q 2066 2928 1684 2928 
Q 1309 2928 1046 2623 
Q 784 2319 784 1719 
z
" transform="scale(0.015625)"/>
       </defs>
       <use xlink:href="#ArialMT-67"/>
       <use xlink:href="#ArialMT-65" x="55.615234"/>
       <use xlink:href="#ArialMT-6e" x="111.230469"/>
       <use xlink:href="#ArialMT-64" x="166.845703"/>
       <use xlink:href="#ArialMT-65" x="222.460938"/>
       <use xlink:href="#ArialMT-72" x="278.076172"/>
      </g>
     </g>
    </g>
    <g id="ytick_7">
     <g id="line2d_19"/>
     <g id="text_14">
      <!-- stroke -->
      <g style="fill: #262626" transform="translate(67.090313 338.358828) scale(0.1 -0.1)">
       <defs>
        <path id="ArialMT-6b" d="M 425 0 
L 425 4581 
L 988 4581 
L 988 1969 
L 2319 3319 
L 3047 3319 
L 1778 2088 
L 3175 0 
L 2481 0 
L 1384 1697 
L 988 1316 
L 988 0 
L 425 0 
z
" transform="scale(0.015625)"/>
       </defs>
       <use xlink:href="#ArialMT-73"/>
       <use xlink:href="#ArialMT-74" x="50"/>
       <use xlink:href="#ArialMT-72" x="77.783203"/>
       <use xlink:href="#ArialMT-6f" x="111.083984"/>
       <use xlink:href="#ArialMT-6b" x="166.699219"/>
       <use xlink:href="#ArialMT-65" x="216.699219"/>
      </g>
     </g>
    </g>
    <g id="ytick_8">
     <g id="line2d_20"/>
     <g id="text_15">
      <!-- cancer -->
      <g style="fill: #262626" transform="translate(64.3075 319.733984) scale(0.1 -0.1)">
       <use xlink:href="#ArialMT-63"/>
       <use xlink:href="#ArialMT-61" x="50"/>
       <use xlink:href="#ArialMT-6e" x="105.615234"/>
       <use xlink:href="#ArialMT-63" x="161.230469"/>
       <use xlink:href="#ArialMT-65" x="211.230469"/>
       <use xlink:href="#ArialMT-72" x="266.845703"/>
      </g>
     </g>
    </g>
    <g id="ytick_9">
     <g id="line2d_21"/>
     <g id="text_16">
      <!-- rural -->
      <g style="fill: #262626" transform="translate(74.316875 301.10914) scale(0.1 -0.1)">
       <defs>
        <path id="ArialMT-75" d="M 2597 0 
L 2597 488 
Q 2209 -75 1544 -75 
Q 1250 -75 995 37 
Q 741 150 617 320 
Q 494 491 444 738 
Q 409 903 409 1263 
L 409 3319 
L 972 3319 
L 972 1478 
Q 972 1038 1006 884 
Q 1059 663 1231 536 
Q 1403 409 1656 409 
Q 1909 409 2131 539 
Q 2353 669 2445 892 
Q 2538 1116 2538 1541 
L 2538 3319 
L 3100 3319 
L 3100 0 
L 2597 0 
z
" transform="scale(0.015625)"/>
       </defs>
       <use xlink:href="#ArialMT-72"/>
       <use xlink:href="#ArialMT-75" x="33.300781"/>
       <use xlink:href="#ArialMT-72" x="88.916016"/>
       <use xlink:href="#ArialMT-61" x="122.216797"/>
       <use xlink:href="#ArialMT-6c" x="177.832031"/>
      </g>
     </g>
    </g>
    <g id="ytick_10">
     <g id="line2d_22"/>
     <g id="text_17">
      <!-- heart_failure -->
      <g style="fill: #262626" transform="translate(38.734063 282.545234) scale(0.1 -0.1)">
       <use xlink:href="#ArialMT-68"/>
       <use xlink:href="#ArialMT-65" x="55.615234"/>
       <use xlink:href="#ArialMT-61" x="111.230469"/>
       <use xlink:href="#ArialMT-72" x="166.845703"/>
       <use xlink:href="#ArialMT-74" x="200.146484"/>
       <use xlink:href="#ArialMT-5f" x="227.929688"/>
       <use xlink:href="#ArialMT-66" x="283.544922"/>
       <use xlink:href="#ArialMT-61" x="311.328125"/>
       <use xlink:href="#ArialMT-69" x="366.943359"/>
       <use xlink:href="#ArialMT-6c" x="389.160156"/>
       <use xlink:href="#ArialMT-75" x="411.376953"/>
       <use xlink:href="#ArialMT-72" x="466.992188"/>
       <use xlink:href="#ArialMT-65" x="500.292969"/>
      </g>
     </g>
    </g>
    <g id="ytick_11">
     <g id="line2d_23"/>
     <g id="text_18">
      <!-- confusion -->
      <g style="fill: #262626" transform="translate(51.515313 263.859453) scale(0.1 -0.1)">
       <use xlink:href="#ArialMT-63"/>
       <use xlink:href="#ArialMT-6f" x="50"/>
       <use xlink:href="#ArialMT-6e" x="105.615234"/>
       <use xlink:href="#ArialMT-66" x="161.230469"/>
       <use xlink:href="#ArialMT-75" x="189.013672"/>
       <use xlink:href="#ArialMT-73" x="244.628906"/>
       <use xlink:href="#ArialMT-69" x="294.628906"/>
       <use xlink:href="#ArialMT-6f" x="316.845703"/>
       <use xlink:href="#ArialMT-6e" x="372.460938"/>
      </g>
     </g>
    </g>
    <g id="ytick_12">
     <g id="line2d_24"/>
     <g id="text_19">
      <!-- diabetes -->
      <g style="fill: #262626" transform="translate(56.515313 245.234609) scale(0.1 -0.1)">
       <defs>
        <path id="ArialMT-62" d="M 941 0 
L 419 0 
L 419 4581 
L 981 4581 
L 981 2947 
Q 1338 3394 1891 3394 
Q 2197 3394 2470 3270 
Q 2744 3147 2920 2923 
Q 3097 2700 3197 2384 
Q 3297 2069 3297 1709 
Q 3297 856 2875 390 
Q 2453 -75 1863 -75 
Q 1275 -75 941 416 
L 941 0 
z
M 934 1684 
Q 934 1088 1097 822 
Q 1363 388 1816 388 
Q 2184 388 2453 708 
Q 2722 1028 2722 1663 
Q 2722 2313 2464 2622 
Q 2206 2931 1841 2931 
Q 1472 2931 1203 2611 
Q 934 2291 934 1684 
z
" transform="scale(0.015625)"/>
       </defs>
       <use xlink:href="#ArialMT-64"/>
       <use xlink:href="#ArialMT-69" x="55.615234"/>
       <use xlink:href="#ArialMT-61" x="77.832031"/>
       <use xlink:href="#ArialMT-62" x="133.447266"/>
       <use xlink:href="#ArialMT-65" x="189.0625"/>
       <use xlink:href="#ArialMT-74" x="244.677734"/>
       <use xlink:href="#ArialMT-65" x="272.460938"/>
       <use xlink:href="#ArialMT-73" x="328.076172"/>
      </g>
     </g>
    </g>
    <g id="ytick_13">
     <g id="line2d_25"/>
     <g id="text_20">
      <!-- home_care -->
      <g style="fill: #262626" transform="translate(44.295 226.609766) scale(0.1 -0.1)">
       <use xlink:href="#ArialMT-68"/>
       <use xlink:href="#ArialMT-6f" x="55.615234"/>
       <use xlink:href="#ArialMT-6d" x="111.230469"/>
       <use xlink:href="#ArialMT-65" x="194.53125"/>
       <use xlink:href="#ArialMT-5f" x="250.146484"/>
       <use xlink:href="#ArialMT-63" x="305.761719"/>
       <use xlink:href="#ArialMT-61" x="355.761719"/>
       <use xlink:href="#ArialMT-72" x="411.376953"/>
       <use xlink:href="#ArialMT-65" x="444.677734"/>
      </g>
     </g>
    </g>
    <g id="ytick_14">
     <g id="line2d_26"/>
     <g id="text_21">
      <!-- pad -->
      <g style="fill: #262626" transform="translate(77.637188 207.984922) scale(0.1 -0.1)">
       <use xlink:href="#ArialMT-70"/>
       <use xlink:href="#ArialMT-61" x="55.615234"/>
       <use xlink:href="#ArialMT-64" x="111.230469"/>
      </g>
     </g>
    </g>
    <g id="ytick_15">
     <g id="line2d_27"/>
     <g id="text_22">
      <!-- mmrc -->
      <g style="fill: #262626" transform="translate(69.330938 189.360079) scale(0.1 -0.1)">
       <use xlink:href="#ArialMT-6d"/>
       <use xlink:href="#ArialMT-6d" x="83.300781"/>
       <use xlink:href="#ArialMT-72" x="166.601562"/>
       <use xlink:href="#ArialMT-63" x="199.902344"/>
      </g>
     </g>
    </g>
    <g id="ytick_16">
     <g id="line2d_28"/>
     <g id="text_23">
      <!-- season -->
      <g style="fill: #262626" transform="translate(62.07625 170.735235) scale(0.1 -0.1)">
       <use xlink:href="#ArialMT-73"/>
       <use xlink:href="#ArialMT-65" x="50"/>
       <use xlink:href="#ArialMT-61" x="105.615234"/>
       <use xlink:href="#ArialMT-73" x="161.230469"/>
       <use xlink:href="#ArialMT-6f" x="211.230469"/>
       <use xlink:href="#ArialMT-6e" x="266.845703"/>
      </g>
     </g>
    </g>
    <g id="ytick_17">
     <g id="line2d_29"/>
     <g id="text_24">
      <!-- charlson -->
      <g style="fill: #262626" transform="translate(56.524688 152.110391) scale(0.1 -0.1)">
       <use xlink:href="#ArialMT-63"/>
       <use xlink:href="#ArialMT-68" x="50"/>
       <use xlink:href="#ArialMT-61" x="105.615234"/>
       <use xlink:href="#ArialMT-72" x="161.230469"/>
       <use xlink:href="#ArialMT-6c" x="194.53125"/>
       <use xlink:href="#ArialMT-73" x="216.748047"/>
       <use xlink:href="#ArialMT-6f" x="266.748047"/>
       <use xlink:href="#ArialMT-6e" x="322.363281"/>
      </g>
     </g>
    </g>
    <g id="ytick_18">
     <g id="line2d_30"/>
     <g id="text_25">
      <!-- bmi -->
      <g style="fill: #262626" transform="translate(78.2075 133.485548) scale(0.1 -0.1)">
       <use xlink:href="#ArialMT-62"/>
       <use xlink:href="#ArialMT-6d" x="55.615234"/>
       <use xlink:href="#ArialMT-69" x="138.916016"/>
      </g>
     </g>
    </g>
    <g id="ytick_19">
     <g id="line2d_31"/>
     <g id="text_26">
      <!-- age -->
      <g style="fill: #262626" transform="translate(77.637188 114.80211) scale(0.1 -0.1)">
       <use xlink:href="#ArialMT-61"/>
       <use xlink:href="#ArialMT-67" x="55.615234"/>
       <use xlink:href="#ArialMT-65" x="111.230469"/>
      </g>
     </g>
    </g>
    <g id="ytick_20">
     <g id="line2d_32"/>
     <g id="text_27">
      <!-- aecopd_12m -->
      <g style="fill: #262626" transform="translate(36.502813 96.250704) scale(0.1 -0.1)">
       <use xlink:href="#ArialMT-61"/>
       <use xlink:href="#ArialMT-65" x="55.615234"/>
       <use xlink:href="#ArialMT-63" x="111.230469"/>
       <use xlink:href="#ArialMT-6f" x="161.230469"/>
       <use xlink:href="#ArialMT-70" x="216.845703"/>
       <use xlink:href="#ArialMT-64" x="272.460938"/>
       <use xlink:href="#ArialMT-5f" x="328.076172"/>
       <use xlink:href="#ArialMT-31" x="383.691406"/>
       <use xlink:href="#ArialMT-32" x="439.306641"/>
       <use xlink:href="#ArialMT-6d" x="494.921875"/>
      </g>
     </g>
    </g>
    <g id="ytick_21">
     <g id="line2d_33"/>
     <g id="text_28">
      <!-- hr -->
      <g style="fill: #262626" transform="translate(85.429375 77.611017) scale(0.1 -0.1)">
       <use xlink:href="#ArialMT-68"/>
       <use xlink:href="#ArialMT-72" x="55.615234"/>
      </g>
     </g>
    </g>
    <g id="ytick_22">
     <g id="line2d_34"/>
     <g id="text_29">
      <!-- saturation -->
      <g style="fill: #262626" transform="translate(50.4075 58.986173) scale(0.1 -0.1)">
       <use xlink:href="#ArialMT-73"/>
       <use xlink:href="#ArialMT-61" x="50"/>
       <use xlink:href="#ArialMT-74" x="105.615234"/>
       <use xlink:href="#ArialMT-75" x="133.398438"/>
       <use xlink:href="#ArialMT-72" x="189.013672"/>
       <use xlink:href="#ArialMT-61" x="222.314453"/>
       <use xlink:href="#ArialMT-74" x="277.929688"/>
       <use xlink:href="#ArialMT-69" x="305.712891"/>
       <use xlink:href="#ArialMT-6f" x="327.929688"/>
       <use xlink:href="#ArialMT-6e" x="383.544922"/>
      </g>
     </g>
    </g>
   </g>
   <g id="patch_3">
    <path d="M 101.32 453.97892 
L 103.41694 453.97892 
L 103.41694 439.079046 
L 101.32 439.079046 
z
" clip-path="url(#p5a1c030f8c)" style="fill: #0272a2"/>
   </g>
   <g id="patch_4">
    <path d="M 101.32 435.354077 
L 103.674156 435.354077 
L 103.674156 420.454202 
L 101.32 420.454202 
z
" clip-path="url(#p5a1c030f8c)" style="fill: #9fc377"/>
   </g>
   <g id="patch_5">
    <path d="M 101.32 416.729233 
L 105.495103 416.729233 
L 105.495103 401.829358 
L 101.32 401.829358 
z
" clip-path="url(#p5a1c030f8c)" style="fill: #ca0b03"/>
   </g>
   <g id="patch_6">
    <path d="M 101.32 398.10439 
L 105.892582 398.10439 
L 105.892582 383.204515 
L 101.32 383.204515 
z
" clip-path="url(#p5a1c030f8c)" style="fill: #a50258"/>
   </g>
   <g id="patch_7">
    <path d="M 101.32 379.479546 
L 111.319405 379.479546 
L 111.319405 364.579671 
L 101.32 364.579671 
z
" clip-path="url(#p5a1c030f8c)" style="fill: #d7c703"/>
   </g>
   <g id="patch_8">
    <path d="M 101.32 360.854702 
L 112.339201 360.854702 
L 112.339201 345.954827 
L 101.32 345.954827 
z
" clip-path="url(#p5a1c030f8c)" style="fill: #88cada"/>
   </g>
   <g id="patch_9">
    <path d="M 101.32 342.229859 
L 115.470152 342.229859 
L 115.470152 327.329984 
L 101.32 327.329984 
z
" clip-path="url(#p5a1c030f8c)" style="fill: #0272a2"/>
   </g>
   <g id="patch_10">
    <path d="M 101.32 323.605015 
L 116.373077 323.605015 
L 116.373077 308.70514 
L 101.32 308.70514 
z
" clip-path="url(#p5a1c030f8c)" style="fill: #9fc377"/>
   </g>
   <g id="patch_11">
    <path d="M 101.32 304.980171 
L 116.668507 304.980171 
L 116.668507 290.080297 
L 101.32 290.080297 
z
" clip-path="url(#p5a1c030f8c)" style="fill: #ca0b03"/>
   </g>
   <g id="patch_12">
    <path d="M 101.32 286.355328 
L 116.860429 286.355328 
L 116.860429 271.455453 
L 101.32 271.455453 
z
" clip-path="url(#p5a1c030f8c)" style="fill: #a50258"/>
   </g>
   <g id="patch_13">
    <path d="M 101.32 267.730484 
L 117.748525 267.730484 
L 117.748525 252.830609 
L 101.32 252.830609 
z
" clip-path="url(#p5a1c030f8c)" style="fill: #d7c703"/>
   </g>
   <g id="patch_14">
    <path d="M 101.32 249.105641 
L 118.48993 249.105641 
L 118.48993 234.205766 
L 101.32 234.205766 
z
" clip-path="url(#p5a1c030f8c)" style="fill: #88cada"/>
   </g>
   <g id="patch_15">
    <path d="M 101.32 230.480797 
L 123.707911 230.480797 
L 123.707911 215.580922 
L 101.32 215.580922 
z
" clip-path="url(#p5a1c030f8c)" style="fill: #0272a2"/>
   </g>
   <g id="patch_16">
    <path d="M 101.32 211.855953 
L 130.986161 211.855953 
L 130.986161 196.956079 
L 101.32 196.956079 
z
" clip-path="url(#p5a1c030f8c)" style="fill: #9fc377"/>
   </g>
   <g id="patch_17">
    <path d="M 101.32 193.23111 
L 147.440281 193.23111 
L 147.440281 178.331235 
L 101.32 178.331235 
z
" clip-path="url(#p5a1c030f8c)" style="fill: #ca0b03"/>
   </g>
   <g id="patch_18">
    <path d="M 101.32 174.606266 
L 152.560468 174.606266 
L 152.560468 159.706391 
L 101.32 159.706391 
z
" clip-path="url(#p5a1c030f8c)" style="fill: #a50258"/>
   </g>
   <g id="patch_19">
    <path d="M 101.32 155.981423 
L 167.810766 155.981423 
L 167.810766 141.081548 
L 101.32 141.081548 
z
" clip-path="url(#p5a1c030f8c)" style="fill: #d7c703"/>
   </g>
   <g id="patch_20">
    <path d="M 101.32 137.356579 
L 204.134282 137.356579 
L 204.134282 122.456704 
L 101.32 122.456704 
z
" clip-path="url(#p5a1c030f8c)" style="fill: #88cada"/>
   </g>
   <g id="patch_21">
    <path d="M 101.32 118.731735 
L 330.710477 118.731735 
L 330.710477 103.83186 
L 101.32 103.83186 
z
" clip-path="url(#p5a1c030f8c)" style="fill: #0272a2"/>
   </g>
   <g id="patch_22">
    <path d="M 101.32 100.106892 
L 363.75839 100.106892 
L 363.75839 85.207017 
L 101.32 85.207017 
z
" clip-path="url(#p5a1c030f8c)" style="fill: #9fc377"/>
   </g>
   <g id="patch_23">
    <path d="M 101.32 81.482048 
L 577.130359 81.482048 
L 577.130359 66.582173 
L 101.32 66.582173 
z
" clip-path="url(#p5a1c030f8c)" style="fill: #ca0b03"/>
   </g>
   <g id="patch_24">
    <path d="M 101.32 62.857204 
L 733.053333 62.857204 
L 733.053333 47.95733 
L 101.32 47.95733 
z
" clip-path="url(#p5a1c030f8c)" style="fill: #a50258"/>
   </g>
   <g id="patch_25">
    <path d="M 101.32 474.28 
L 101.32 27.65625 
" style="fill: none; stroke: #cccccc; stroke-width: 1.25; stroke-linejoin: miter; stroke-linecap: square"/>
   </g>
   <g id="patch_26">
    <path d="M 764.64 474.28 
L 764.64 27.65625 
" style="fill: none; stroke: #cccccc; stroke-width: 1.25; stroke-linejoin: miter; stroke-linecap: square"/>
   </g>
   <g id="patch_27">
    <path d="M 101.32 474.28 
L 764.64 474.28 
" style="fill: none; stroke: #cccccc; stroke-width: 1.25; stroke-linejoin: miter; stroke-linecap: square"/>
   </g>
   <g id="patch_28">
    <path d="M 101.32 27.65625 
L 764.64 27.65625 
" style="fill: none; stroke: #cccccc; stroke-width: 1.25; stroke-linejoin: miter; stroke-linecap: square"/>
   </g>
   <g id="text_30">
    <!-- Feature Importances of 22 Features using RandomForestClassifier -->
    <g style="fill: #262626" transform="translate(255.245938 21.65625) scale(0.12 -0.12)">
     <defs>
      <path id="ArialMT-46" d="M 525 0 
L 525 4581 
L 3616 4581 
L 3616 4041 
L 1131 4041 
L 1131 2622 
L 3281 2622 
L 3281 2081 
L 1131 2081 
L 1131 0 
L 525 0 
z
" transform="scale(0.015625)"/>
      <path id="ArialMT-49" d="M 597 0 
L 597 4581 
L 1203 4581 
L 1203 0 
L 597 0 
z
" transform="scale(0.015625)"/>
      <path id="ArialMT-52" d="M 503 0 
L 503 4581 
L 2534 4581 
Q 3147 4581 3465 4457 
Q 3784 4334 3975 4021 
Q 4166 3709 4166 3331 
Q 4166 2844 3850 2509 
Q 3534 2175 2875 2084 
Q 3116 1969 3241 1856 
Q 3506 1613 3744 1247 
L 4541 0 
L 3778 0 
L 3172 953 
Q 2906 1366 2734 1584 
Q 2563 1803 2427 1890 
Q 2291 1978 2150 2013 
Q 2047 2034 1813 2034 
L 1109 2034 
L 1109 0 
L 503 0 
z
M 1109 2559 
L 2413 2559 
Q 2828 2559 3062 2645 
Q 3297 2731 3419 2920 
Q 3541 3109 3541 3331 
Q 3541 3656 3305 3865 
Q 3069 4075 2559 4075 
L 1109 4075 
L 1109 2559 
z
" transform="scale(0.015625)"/>
      <path id="ArialMT-43" d="M 3763 1606 
L 4369 1453 
Q 4178 706 3683 314 
Q 3188 -78 2472 -78 
Q 1731 -78 1267 223 
Q 803 525 561 1097 
Q 319 1669 319 2325 
Q 319 3041 592 3573 
Q 866 4106 1370 4382 
Q 1875 4659 2481 4659 
Q 3169 4659 3637 4309 
Q 4106 3959 4291 3325 
L 3694 3184 
Q 3534 3684 3231 3912 
Q 2928 4141 2469 4141 
Q 1941 4141 1586 3887 
Q 1231 3634 1087 3207 
Q 944 2781 944 2328 
Q 944 1744 1114 1308 
Q 1284 872 1643 656 
Q 2003 441 2422 441 
Q 2931 441 3284 734 
Q 3638 1028 3763 1606 
z
" transform="scale(0.015625)"/>
     </defs>
     <use xlink:href="#ArialMT-46"/>
     <use xlink:href="#ArialMT-65" x="61.083984"/>
     <use xlink:href="#ArialMT-61" x="116.699219"/>
     <use xlink:href="#ArialMT-74" x="172.314453"/>
     <use xlink:href="#ArialMT-75" x="200.097656"/>
     <use xlink:href="#ArialMT-72" x="255.712891"/>
     <use xlink:href="#ArialMT-65" x="289.013672"/>
     <use xlink:href="#ArialMT-20" x="344.628906"/>
     <use xlink:href="#ArialMT-49" x="372.412109"/>
     <use xlink:href="#ArialMT-6d" x="400.195312"/>
     <use xlink:href="#ArialMT-70" x="483.496094"/>
     <use xlink:href="#ArialMT-6f" x="539.111328"/>
     <use xlink:href="#ArialMT-72" x="594.726562"/>
     <use xlink:href="#ArialMT-74" x="628.027344"/>
     <use xlink:href="#ArialMT-61" x="655.810547"/>
     <use xlink:href="#ArialMT-6e" x="711.425781"/>
     <use xlink:href="#ArialMT-63" x="767.041016"/>
     <use xlink:href="#ArialMT-65" x="817.041016"/>
     <use xlink:href="#ArialMT-73" x="872.65625"/>
     <use xlink:href="#ArialMT-20" x="922.65625"/>
     <use xlink:href="#ArialMT-6f" x="950.439453"/>
     <use xlink:href="#ArialMT-66" x="1006.054688"/>
     <use xlink:href="#ArialMT-20" x="1033.837891"/>
     <use xlink:href="#ArialMT-32" x="1061.621094"/>
     <use xlink:href="#ArialMT-32" x="1117.236328"/>
     <use xlink:href="#ArialMT-20" x="1172.851562"/>
     <use xlink:href="#ArialMT-46" x="1200.634766"/>
     <use xlink:href="#ArialMT-65" x="1261.71875"/>
     <use xlink:href="#ArialMT-61" x="1317.333984"/>
     <use xlink:href="#ArialMT-74" x="1372.949219"/>
     <use xlink:href="#ArialMT-75" x="1400.732422"/>
     <use xlink:href="#ArialMT-72" x="1456.347656"/>
     <use xlink:href="#ArialMT-65" x="1489.648438"/>
     <use xlink:href="#ArialMT-73" x="1545.263672"/>
     <use xlink:href="#ArialMT-20" x="1595.263672"/>
     <use xlink:href="#ArialMT-75" x="1623.046875"/>
     <use xlink:href="#ArialMT-73" x="1678.662109"/>
     <use xlink:href="#ArialMT-69" x="1728.662109"/>
     <use xlink:href="#ArialMT-6e" x="1750.878906"/>
     <use xlink:href="#ArialMT-67" x="1806.494141"/>
     <use xlink:href="#ArialMT-20" x="1862.109375"/>
     <use xlink:href="#ArialMT-52" x="1889.892578"/>
     <use xlink:href="#ArialMT-61" x="1962.109375"/>
     <use xlink:href="#ArialMT-6e" x="2017.724609"/>
     <use xlink:href="#ArialMT-64" x="2073.339844"/>
     <use xlink:href="#ArialMT-6f" x="2128.955078"/>
     <use xlink:href="#ArialMT-6d" x="2184.570312"/>
     <use xlink:href="#ArialMT-46" x="2267.871094"/>
     <use xlink:href="#ArialMT-6f" x="2328.955078"/>
     <use xlink:href="#ArialMT-72" x="2384.570312"/>
     <use xlink:href="#ArialMT-65" x="2417.871094"/>
     <use xlink:href="#ArialMT-73" x="2473.486328"/>
     <use xlink:href="#ArialMT-74" x="2523.486328"/>
     <use xlink:href="#ArialMT-43" x="2551.269531"/>
     <use xlink:href="#ArialMT-6c" x="2623.486328"/>
     <use xlink:href="#ArialMT-61" x="2645.703125"/>
     <use xlink:href="#ArialMT-73" x="2701.318359"/>
     <use xlink:href="#ArialMT-73" x="2751.318359"/>
     <use xlink:href="#ArialMT-69" x="2801.318359"/>
     <use xlink:href="#ArialMT-66" x="2823.535156"/>
     <use xlink:href="#ArialMT-69" x="2851.318359"/>
     <use xlink:href="#ArialMT-65" x="2873.535156"/>
     <use xlink:href="#ArialMT-72" x="2929.150391"/>
    </g>
   </g>
  </g>
 </g>
 <defs>
  <clipPath id="p5a1c030f8c">
   <rect x="101.32" y="27.65625" width="663.32" height="446.62375"/>
  </clipPath>
 </defs>
</svg>
