<?xml version="1.0" encoding="utf-8" standalone="no"?>
<!DOCTYPE svg PUBLIC "-//W3C//DTD SVG 1.1//EN"
  "http://www.w3.org/Graphics/SVG/1.1/DTD/svg11.dtd">
<svg xmlns:xlink="http://www.w3.org/1999/xlink" width="720pt" height="720pt" viewBox="0 0 720 720" xmlns="http://www.w3.org/2000/svg" version="1.1">
 <metadata>
  <rdf:RDF xmlns:dc="http://purl.org/dc/elements/1.1/" xmlns:cc="http://creativecommons.org/ns#" xmlns:rdf="http://www.w3.org/1999/02/22-rdf-syntax-ns#">
   <cc:Work>
    <dc:type rdf:resource="http://purl.org/dc/dcmitype/StillImage"/>
    <dc:date>2023-06-14T12:52:36.081172</dc:date>
    <dc:format>image/svg+xml</dc:format>
    <dc:creator>
     <cc:Agent>
      <dc:title>Matplotlib v3.6.3, https://matplotlib.org/</dc:title>
     </cc:Agent>
    </dc:creator>
   </cc:Work>
  </rdf:RDF>
 </metadata>
 <defs>
  <style type="text/css">*{stroke-linejoin: round; stroke-linecap: butt}</style>
 </defs>
 <g id="figure_1">
  <g id="patch_1">
   <path d="M 0 720 
L 720 720 
L 720 0 
L 0 0 
z
" style="fill: #ffffff"/>
  </g>
  <g id="axes_1">
   <g id="patch_2">
    <path d="M 90 640.8 
L 648 640.8 
L 648 86.4 
L 90 86.4 
z
" style="fill: #ffffff"/>
   </g>
   <g id="PolyCollection_1">
    <defs>
     <path id="mfa97ca41de" d="M 115.363636 -104.4 
L 115.363636 -104.4 
L 120.487603 -190.845939 
L 125.61157 -192.227236 
L 130.735537 -193.579845 
L 135.859504 -194.903466 
L 140.983471 -196.197822 
L 146.107438 -197.462648 
L 151.231405 -198.697703 
L 156.355372 -391.011396 
L 161.479339 -391.011396 
L 166.603306 -391.011396 
L 171.727273 -391.011396 
L 176.85124 -391.011396 
L 181.975207 -391.011396 
L 187.099174 -391.011396 
L 192.22314 -487.242634 
L 197.347107 -507.028176 
L 202.471074 -507.028176 
L 207.595041 -507.028176 
L 212.719008 -507.028176 
L 217.842975 -507.028176 
L 222.966942 -507.028176 
L 228.090909 -508.764369 
L 233.214876 -522.743748 
L 238.338843 -522.743748 
L 243.46281 -522.743748 
L 248.586777 -522.743748 
L 253.710744 -522.743748 
L 258.834711 -522.743748 
L 263.958678 -522.743748 
L 269.082645 -522.743748 
L 274.206612 -522.743748 
L 279.330579 -522.743748 
L 284.454545 -522.743748 
L 289.578512 -522.743748 
L 294.702479 -522.743748 
L 299.826446 -544.327348 
L 304.950413 -544.327348 
L 310.07438 -544.327348 
L 315.198347 -558 
L 320.322314 -558 
L 325.446281 -558 
L 330.570248 -558 
L 335.694215 -558 
L 340.818182 -558 
L 345.942149 -558 
L 351.066116 -565.2 
L 356.190083 -565.2 
L 361.31405 -565.2 
L 366.438017 -565.2 
L 371.561983 -586.8 
L 376.68595 -586.8 
L 381.809917 -586.8 
L 386.933884 -586.8 
L 392.057851 -586.8 
L 397.181818 -586.8 
L 402.305785 -586.8 
L 407.429752 -586.8 
L 412.553719 -586.8 
L 417.677686 -586.8 
L 422.801653 -586.8 
L 427.92562 -586.8 
L 433.049587 -586.8 
L 438.173554 -586.8 
L 443.297521 -586.8 
L 448.421488 -586.8 
L 453.545455 -586.8 
L 458.669421 -586.8 
L 463.793388 -586.8 
L 468.917355 -586.8 
L 474.041322 -586.8 
L 479.165289 -608.4 
L 484.289256 -608.4 
L 489.413223 -608.4 
L 494.53719 -608.4 
L 499.661157 -608.4 
L 504.785124 -608.4 
L 509.909091 -608.4 
L 515.033058 -608.4 
L 520.157025 -608.4 
L 525.280992 -608.4 
L 530.404959 -608.4 
L 535.528926 -608.4 
L 540.652893 -608.4 
L 545.77686 -608.4 
L 550.900826 -608.4 
L 556.024793 -608.4 
L 561.14876 -608.4 
L 566.272727 -608.4 
L 571.396694 -608.4 
L 576.520661 -608.4 
L 581.644628 -608.4 
L 586.768595 -608.4 
L 591.892562 -608.4 
L 597.016529 -608.4 
L 602.140496 -608.4 
L 607.264463 -608.4 
L 612.38843 -608.4 
L 617.512397 -608.4 
L 622.636364 -608.4 
L 622.636364 -608.4 
L 622.636364 -608.4 
L 617.512397 -608.4 
L 612.38843 -608.4 
L 607.264463 -608.4 
L 602.140496 -608.4 
L 597.016529 -608.4 
L 591.892562 -608.4 
L 586.768595 -608.4 
L 581.644628 -608.4 
L 576.520661 -608.4 
L 571.396694 -608.4 
L 566.272727 -608.4 
L 561.14876 -608.4 
L 556.024793 -608.4 
L 550.900826 -608.4 
L 545.77686 -608.4 
L 540.652893 -608.4 
L 535.528926 -608.4 
L 530.404959 -608.4 
L 525.280992 -608.4 
L 520.157025 -608.4 
L 515.033058 -608.4 
L 509.909091 -608.4 
L 504.785124 -608.4 
L 499.661157 -608.4 
L 494.53719 -608.4 
L 489.413223 -608.4 
L 484.289256 -608.4 
L 479.165289 -608.4 
L 474.041322 -608.4 
L 468.917355 -608.4 
L 463.793388 -608.4 
L 458.669421 -608.4 
L 453.545455 -608.4 
L 448.421488 -608.4 
L 443.297521 -608.4 
L 438.173554 -608.4 
L 433.049587 -608.4 
L 427.92562 -608.4 
L 422.801653 -608.4 
L 417.677686 -608.4 
L 412.553719 -608.4 
L 407.429752 -608.4 
L 402.305785 -608.4 
L 397.181818 -608.4 
L 392.057851 -608.4 
L 386.933884 -608.4 
L 381.809917 -608.4 
L 376.68595 -608.4 
L 371.561983 -608.4 
L 366.438017 -608.4 
L 361.31405 -608.4 
L 356.190083 -608.4 
L 351.066116 -608.4 
L 345.942149 -608.4 
L 340.818182 -608.4 
L 335.694215 -608.4 
L 330.570248 -608.4 
L 325.446281 -608.4 
L 320.322314 -608.4 
L 315.198347 -608.4 
L 310.07438 -608.4 
L 304.950413 -608.4 
L 299.826446 -608.4 
L 294.702479 -606.548559 
L 289.578512 -606.548559 
L 284.454545 -606.548559 
L 279.330579 -606.548559 
L 274.206612 -606.548559 
L 269.082645 -606.548559 
L 263.958678 -606.548559 
L 258.834711 -606.548559 
L 253.710744 -606.548559 
L 248.586777 -606.548559 
L 243.46281 -606.548559 
L 238.338843 -606.548559 
L 233.214876 -606.548559 
L 228.090909 -606.127939 
L 222.966942 -592.35644 
L 217.842975 -592.35644 
L 212.719008 -592.35644 
L 207.595041 -592.35644 
L 202.471074 -592.35644 
L 197.347107 -592.35644 
L 192.22314 -568.941982 
L 187.099174 -525.603988 
L 181.975207 -525.603988 
L 176.85124 -525.603988 
L 171.727273 -525.603988 
L 166.603306 -525.603988 
L 161.479339 -525.603988 
L 156.355372 -525.603988 
L 151.231405 -432.077122 
L 146.107438 -431.421268 
L 140.983471 -430.795185 
L 135.859504 -430.198631 
L 130.735537 -429.631344 
L 125.61157 -429.093044 
L 120.487603 -428.583431 
L 115.363636 -104.4 
z
" style="stroke: #0000ff; stroke-opacity: 0.2"/>
    </defs>
    <g clip-path="url(#p0a24ef7250)">
     <use xlink:href="#mfa97ca41de" x="0" y="720" style="fill: #0000ff; fill-opacity: 0.2; stroke: #0000ff; stroke-opacity: 0.2"/>
    </g>
   </g>
   <g id="PolyCollection_2">
    <defs>
     <path id="m1adb8314e3" d="M 115.363636 -104.4 
L 115.363636 -104.4 
L 120.487603 -138.273378 
L 125.61157 -138.0494 
L 130.735537 -137.825158 
L 135.859504 -137.600656 
L 140.983471 -137.375898 
L 146.107438 -137.150885 
L 151.231405 -136.925623 
L 156.355372 -188.96214 
L 161.479339 -188.8456 
L 166.603306 -188.728023 
L 171.727273 -188.609418 
L 176.85124 -188.489795 
L 181.975207 -188.369163 
L 187.099174 -188.247533 
L 192.22314 -215.427417 
L 197.347107 -235.667851 
L 202.471074 -237.960334 
L 207.595041 -240.232892 
L 212.719008 -242.484929 
L 217.842975 -244.715835 
L 222.966942 -246.924989 
L 228.090909 -251.723739 
L 233.214876 -254.057913 
L 238.338843 -257.008643 
L 243.46281 -259.924385 
L 248.586777 -262.804429 
L 253.710744 -265.64808 
L 258.834711 -268.454661 
L 263.958678 -271.233139 
L 269.082645 -273.974648 
L 274.206612 -276.364647 
L 279.330579 -278.464027 
L 284.454545 -280.542554 
L 289.578512 -282.599559 
L 294.702479 -284.634364 
L 299.826446 -286.0675 
L 304.950413 -288.043632 
L 310.07438 -289.997045 
L 315.198347 -291.927114 
L 320.322314 -293.833203 
L 325.446281 -295.714672 
L 330.570248 -297.570873 
L 335.694215 -297.295343 
L 340.818182 -299.089212 
L 345.942149 -300.858062 
L 351.066116 -340.855293 
L 356.190083 -340.855293 
L 361.31405 -340.855293 
L 366.438017 -340.855293 
L 371.561983 -385.1914 
L 376.68595 -385.1914 
L 381.809917 -385.1914 
L 386.933884 -385.1914 
L 392.057851 -394.977727 
L 397.181818 -394.977727 
L 402.305785 -394.977727 
L 407.429752 -394.977727 
L 412.553719 -394.977727 
L 417.677686 -394.977727 
L 422.801653 -394.977727 
L 427.92562 -395.064754 
L 433.049587 -396.174031 
L 438.173554 -397.242174 
L 443.297521 -418.844671 
L 448.421488 -419.937085 
L 453.545455 -420.980894 
L 458.669421 -421.975901 
L 463.793388 -422.922007 
L 468.917355 -438.468653 
L 474.041322 -438.468653 
L 479.165289 -481.483842 
L 484.289256 -481.483842 
L 489.413223 -481.483842 
L 494.53719 -481.483842 
L 499.661157 -481.483842 
L 504.785124 -481.483842 
L 509.909091 -495.854674 
L 515.033058 -496.786496 
L 520.157025 -497.640326 
L 525.280992 -498.416629 
L 530.404959 -499.116255 
L 535.528926 -499.740417 
L 540.652893 -500.290662 
L 545.77686 -502.298605 
L 550.900826 -505.365798 
L 556.024793 -505.365798 
L 561.14876 -505.365798 
L 566.272727 -505.365798 
L 571.396694 -505.365798 
L 576.520661 -505.365798 
L 581.644628 -505.365798 
L 586.768595 -527.779662 
L 591.892562 -528.825802 
L 597.016529 -529.759215 
L 602.140496 -530.581183 
L 607.264463 -531.293825 
L 612.38843 -531.900011 
L 617.512397 -532.403265 
L 622.636364 -608.4 
L 622.636364 -608.4 
L 622.636364 -608.4 
L 617.512397 -608.4 
L 612.38843 -608.4 
L 607.264463 -608.4 
L 602.140496 -608.4 
L 597.016529 -608.4 
L 591.892562 -608.4 
L 586.768595 -608.4 
L 581.644628 -608.4 
L 576.520661 -608.4 
L 571.396694 -608.4 
L 566.272727 -608.4 
L 561.14876 -608.4 
L 556.024793 -608.4 
L 550.900826 -608.4 
L 545.77686 -608.162933 
L 540.652893 -594.316331 
L 535.528926 -592.975667 
L 530.404959 -591.70892 
L 525.280992 -590.517637 
L 520.157025 -589.403031 
L 515.033058 -588.365951 
L 509.909091 -587.406864 
L 504.785124 -571.377697 
L 499.661157 -571.377697 
L 494.53719 -571.377697 
L 489.413223 -571.377697 
L 484.289256 -571.377697 
L 479.165289 -571.377697 
L 474.041322 -583.377501 
L 468.917355 -583.377501 
L 463.793388 -569.105965 
L 458.669421 -568.161162 
L 453.545455 -567.26526 
L 448.421488 -566.41816 
L 443.297521 -565.619665 
L 438.173554 -569.82356 
L 433.049587 -569.000794 
L 427.92562 -568.219163 
L 422.801653 -568.160735 
L 417.677686 -568.160735 
L 412.553719 -568.160735 
L 407.429752 -568.160735 
L 402.305785 -568.160735 
L 397.181818 -568.160735 
L 392.057851 -568.160735 
L 386.933884 -563.547061 
L 381.809917 -563.547061 
L 376.68595 -563.547061 
L 371.561983 -563.547061 
L 366.438017 -548.067784 
L 361.31405 -548.067784 
L 356.190083 -548.067784 
L 351.066116 -548.067784 
L 345.942149 -529.155924 
L 340.818182 -529.033864 
L 335.694215 -528.936825 
L 330.570248 -511.262693 
L 325.446281 -511.227985 
L 320.322314 -511.218545 
L 315.198347 -511.233725 
L 310.07438 -511.272885 
L 304.950413 -511.335389 
L 299.826446 -511.420611 
L 294.702479 -495.455147 
L 289.578512 -495.599042 
L 284.454545 -495.765139 
L 279.330579 -495.952756 
L 274.206612 -496.161228 
L 269.082645 -495.787589 
L 263.958678 -494.747281 
L 258.834711 -493.598486 
L 253.710744 -492.114158 
L 248.586777 -490.6669 
L 243.46281 -489.256034 
L 238.338843 -487.880867 
L 233.214876 -486.540688 
L 228.090909 -486.183953 
L 222.966942 -457.567318 
L 217.842975 -457.376473 
L 212.719008 -457.207379 
L 207.595041 -457.059416 
L 202.471074 -456.931974 
L 197.347107 -456.824456 
L 192.22314 -460.701254 
L 187.099174 -425.341279 
L 181.975207 -424.710557 
L 176.85124 -424.080835 
L 171.727273 -423.45212 
L 166.603306 -422.824425 
L 161.479339 -422.197756 
L 156.355372 -421.572126 
L 151.231405 -370.084167 
L 146.107438 -369.349814 
L 140.983471 -368.615711 
L 135.859504 -367.881861 
L 130.735537 -367.148269 
L 125.61157 -366.414936 
L 120.487603 -365.681866 
L 115.363636 -104.4 
z
" style="stroke: #ffa500; stroke-opacity: 0.2"/>
    </defs>
    <g clip-path="url(#p0a24ef7250)">
     <use xlink:href="#m1adb8314e3" x="0" y="720" style="fill: #ffa500; fill-opacity: 0.2; stroke: #ffa500; stroke-opacity: 0.2"/>
    </g>
   </g>
   <g id="matplotlib.axis_1">
    <g id="xtick_1">
     <g id="line2d_1">
      <defs>
       <path id="m6155de6571" d="M 0 0 
L 0 3.5 
" style="stroke: #000000; stroke-width: 0.8"/>
      </defs>
      <g>
       <use xlink:href="#m6155de6571" x="115.363636" y="640.8" style="stroke: #000000; stroke-width: 0.8"/>
      </g>
     </g>
     <g id="text_1">
      <!-- 0.0 -->
      <g transform="translate(107.412074 655.398438) scale(0.1 -0.1)">
       <defs>
        <path id="DejaVuSans-30" d="M 2034 4250 
Q 1547 4250 1301 3770 
Q 1056 3291 1056 2328 
Q 1056 1369 1301 889 
Q 1547 409 2034 409 
Q 2525 409 2770 889 
Q 3016 1369 3016 2328 
Q 3016 3291 2770 3770 
Q 2525 4250 2034 4250 
z
M 2034 4750 
Q 2819 4750 3233 4129 
Q 3647 3509 3647 2328 
Q 3647 1150 3233 529 
Q 2819 -91 2034 -91 
Q 1250 -91 836 529 
Q 422 1150 422 2328 
Q 422 3509 836 4129 
Q 1250 4750 2034 4750 
z
" transform="scale(0.015625)"/>
        <path id="DejaVuSans-2e" d="M 684 794 
L 1344 794 
L 1344 0 
L 684 0 
L 684 794 
z
" transform="scale(0.015625)"/>
       </defs>
       <use xlink:href="#DejaVuSans-30"/>
       <use xlink:href="#DejaVuSans-2e" x="63.623047"/>
       <use xlink:href="#DejaVuSans-30" x="95.410156"/>
      </g>
     </g>
    </g>
    <g id="xtick_2">
     <g id="line2d_2">
      <g>
       <use xlink:href="#m6155de6571" x="216.818182" y="640.8" style="stroke: #000000; stroke-width: 0.8"/>
      </g>
     </g>
     <g id="text_2">
      <!-- 0.2 -->
      <g transform="translate(208.866619 655.398438) scale(0.1 -0.1)">
       <defs>
        <path id="DejaVuSans-32" d="M 1228 531 
L 3431 531 
L 3431 0 
L 469 0 
L 469 531 
Q 828 903 1448 1529 
Q 2069 2156 2228 2338 
Q 2531 2678 2651 2914 
Q 2772 3150 2772 3378 
Q 2772 3750 2511 3984 
Q 2250 4219 1831 4219 
Q 1534 4219 1204 4116 
Q 875 4013 500 3803 
L 500 4441 
Q 881 4594 1212 4672 
Q 1544 4750 1819 4750 
Q 2544 4750 2975 4387 
Q 3406 4025 3406 3419 
Q 3406 3131 3298 2873 
Q 3191 2616 2906 2266 
Q 2828 2175 2409 1742 
Q 1991 1309 1228 531 
z
" transform="scale(0.015625)"/>
       </defs>
       <use xlink:href="#DejaVuSans-30"/>
       <use xlink:href="#DejaVuSans-2e" x="63.623047"/>
       <use xlink:href="#DejaVuSans-32" x="95.410156"/>
      </g>
     </g>
    </g>
    <g id="xtick_3">
     <g id="line2d_3">
      <g>
       <use xlink:href="#m6155de6571" x="318.272727" y="640.8" style="stroke: #000000; stroke-width: 0.8"/>
      </g>
     </g>
     <g id="text_3">
      <!-- 0.4 -->
      <g transform="translate(310.321165 655.398438) scale(0.1 -0.1)">
       <defs>
        <path id="DejaVuSans-34" d="M 2419 4116 
L 825 1625 
L 2419 1625 
L 2419 4116 
z
M 2253 4666 
L 3047 4666 
L 3047 1625 
L 3713 1625 
L 3713 1100 
L 3047 1100 
L 3047 0 
L 2419 0 
L 2419 1100 
L 313 1100 
L 313 1709 
L 2253 4666 
z
" transform="scale(0.015625)"/>
       </defs>
       <use xlink:href="#DejaVuSans-30"/>
       <use xlink:href="#DejaVuSans-2e" x="63.623047"/>
       <use xlink:href="#DejaVuSans-34" x="95.410156"/>
      </g>
     </g>
    </g>
    <g id="xtick_4">
     <g id="line2d_4">
      <g>
       <use xlink:href="#m6155de6571" x="419.727273" y="640.8" style="stroke: #000000; stroke-width: 0.8"/>
      </g>
     </g>
     <g id="text_4">
      <!-- 0.6 -->
      <g transform="translate(411.77571 655.398438) scale(0.1 -0.1)">
       <defs>
        <path id="DejaVuSans-36" d="M 2113 2584 
Q 1688 2584 1439 2293 
Q 1191 2003 1191 1497 
Q 1191 994 1439 701 
Q 1688 409 2113 409 
Q 2538 409 2786 701 
Q 3034 994 3034 1497 
Q 3034 2003 2786 2293 
Q 2538 2584 2113 2584 
z
M 3366 4563 
L 3366 3988 
Q 3128 4100 2886 4159 
Q 2644 4219 2406 4219 
Q 1781 4219 1451 3797 
Q 1122 3375 1075 2522 
Q 1259 2794 1537 2939 
Q 1816 3084 2150 3084 
Q 2853 3084 3261 2657 
Q 3669 2231 3669 1497 
Q 3669 778 3244 343 
Q 2819 -91 2113 -91 
Q 1303 -91 875 529 
Q 447 1150 447 2328 
Q 447 3434 972 4092 
Q 1497 4750 2381 4750 
Q 2619 4750 2861 4703 
Q 3103 4656 3366 4563 
z
" transform="scale(0.015625)"/>
       </defs>
       <use xlink:href="#DejaVuSans-30"/>
       <use xlink:href="#DejaVuSans-2e" x="63.623047"/>
       <use xlink:href="#DejaVuSans-36" x="95.410156"/>
      </g>
     </g>
    </g>
    <g id="xtick_5">
     <g id="line2d_5">
      <g>
       <use xlink:href="#m6155de6571" x="521.181818" y="640.8" style="stroke: #000000; stroke-width: 0.8"/>
      </g>
     </g>
     <g id="text_5">
      <!-- 0.8 -->
      <g transform="translate(513.230256 655.398438) scale(0.1 -0.1)">
       <defs>
        <path id="DejaVuSans-38" d="M 2034 2216 
Q 1584 2216 1326 1975 
Q 1069 1734 1069 1313 
Q 1069 891 1326 650 
Q 1584 409 2034 409 
Q 2484 409 2743 651 
Q 3003 894 3003 1313 
Q 3003 1734 2745 1975 
Q 2488 2216 2034 2216 
z
M 1403 2484 
Q 997 2584 770 2862 
Q 544 3141 544 3541 
Q 544 4100 942 4425 
Q 1341 4750 2034 4750 
Q 2731 4750 3128 4425 
Q 3525 4100 3525 3541 
Q 3525 3141 3298 2862 
Q 3072 2584 2669 2484 
Q 3125 2378 3379 2068 
Q 3634 1759 3634 1313 
Q 3634 634 3220 271 
Q 2806 -91 2034 -91 
Q 1263 -91 848 271 
Q 434 634 434 1313 
Q 434 1759 690 2068 
Q 947 2378 1403 2484 
z
M 1172 3481 
Q 1172 3119 1398 2916 
Q 1625 2713 2034 2713 
Q 2441 2713 2670 2916 
Q 2900 3119 2900 3481 
Q 2900 3844 2670 4047 
Q 2441 4250 2034 4250 
Q 1625 4250 1398 4047 
Q 1172 3844 1172 3481 
z
" transform="scale(0.015625)"/>
       </defs>
       <use xlink:href="#DejaVuSans-30"/>
       <use xlink:href="#DejaVuSans-2e" x="63.623047"/>
       <use xlink:href="#DejaVuSans-38" x="95.410156"/>
      </g>
     </g>
    </g>
    <g id="xtick_6">
     <g id="line2d_6">
      <g>
       <use xlink:href="#m6155de6571" x="622.636364" y="640.8" style="stroke: #000000; stroke-width: 0.8"/>
      </g>
     </g>
     <g id="text_6">
      <!-- 1.0 -->
      <g transform="translate(614.684801 655.398438) scale(0.1 -0.1)">
       <defs>
        <path id="DejaVuSans-31" d="M 794 531 
L 1825 531 
L 1825 4091 
L 703 3866 
L 703 4441 
L 1819 4666 
L 2450 4666 
L 2450 531 
L 3481 531 
L 3481 0 
L 794 0 
L 794 531 
z
" transform="scale(0.015625)"/>
       </defs>
       <use xlink:href="#DejaVuSans-31"/>
       <use xlink:href="#DejaVuSans-2e" x="63.623047"/>
       <use xlink:href="#DejaVuSans-30" x="95.410156"/>
      </g>
     </g>
    </g>
    <g id="text_7">
     <!-- False Positive Rate -->
     <g transform="translate(322.533594 669.076563) scale(0.1 -0.1)">
      <defs>
       <path id="DejaVuSans-46" d="M 628 4666 
L 3309 4666 
L 3309 4134 
L 1259 4134 
L 1259 2759 
L 3109 2759 
L 3109 2228 
L 1259 2228 
L 1259 0 
L 628 0 
L 628 4666 
z
" transform="scale(0.015625)"/>
       <path id="DejaVuSans-61" d="M 2194 1759 
Q 1497 1759 1228 1600 
Q 959 1441 959 1056 
Q 959 750 1161 570 
Q 1363 391 1709 391 
Q 2188 391 2477 730 
Q 2766 1069 2766 1631 
L 2766 1759 
L 2194 1759 
z
M 3341 1997 
L 3341 0 
L 2766 0 
L 2766 531 
Q 2569 213 2275 61 
Q 1981 -91 1556 -91 
Q 1019 -91 701 211 
Q 384 513 384 1019 
Q 384 1609 779 1909 
Q 1175 2209 1959 2209 
L 2766 2209 
L 2766 2266 
Q 2766 2663 2505 2880 
Q 2244 3097 1772 3097 
Q 1472 3097 1187 3025 
Q 903 2953 641 2809 
L 641 3341 
Q 956 3463 1253 3523 
Q 1550 3584 1831 3584 
Q 2591 3584 2966 3190 
Q 3341 2797 3341 1997 
z
" transform="scale(0.015625)"/>
       <path id="DejaVuSans-6c" d="M 603 4863 
L 1178 4863 
L 1178 0 
L 603 0 
L 603 4863 
z
" transform="scale(0.015625)"/>
       <path id="DejaVuSans-73" d="M 2834 3397 
L 2834 2853 
Q 2591 2978 2328 3040 
Q 2066 3103 1784 3103 
Q 1356 3103 1142 2972 
Q 928 2841 928 2578 
Q 928 2378 1081 2264 
Q 1234 2150 1697 2047 
L 1894 2003 
Q 2506 1872 2764 1633 
Q 3022 1394 3022 966 
Q 3022 478 2636 193 
Q 2250 -91 1575 -91 
Q 1294 -91 989 -36 
Q 684 19 347 128 
L 347 722 
Q 666 556 975 473 
Q 1284 391 1588 391 
Q 1994 391 2212 530 
Q 2431 669 2431 922 
Q 2431 1156 2273 1281 
Q 2116 1406 1581 1522 
L 1381 1569 
Q 847 1681 609 1914 
Q 372 2147 372 2553 
Q 372 3047 722 3315 
Q 1072 3584 1716 3584 
Q 2034 3584 2315 3537 
Q 2597 3491 2834 3397 
z
" transform="scale(0.015625)"/>
       <path id="DejaVuSans-65" d="M 3597 1894 
L 3597 1613 
L 953 1613 
Q 991 1019 1311 708 
Q 1631 397 2203 397 
Q 2534 397 2845 478 
Q 3156 559 3463 722 
L 3463 178 
Q 3153 47 2828 -22 
Q 2503 -91 2169 -91 
Q 1331 -91 842 396 
Q 353 884 353 1716 
Q 353 2575 817 3079 
Q 1281 3584 2069 3584 
Q 2775 3584 3186 3129 
Q 3597 2675 3597 1894 
z
M 3022 2063 
Q 3016 2534 2758 2815 
Q 2500 3097 2075 3097 
Q 1594 3097 1305 2825 
Q 1016 2553 972 2059 
L 3022 2063 
z
" transform="scale(0.015625)"/>
       <path id="DejaVuSans-20" transform="scale(0.015625)"/>
       <path id="DejaVuSans-50" d="M 1259 4147 
L 1259 2394 
L 2053 2394 
Q 2494 2394 2734 2622 
Q 2975 2850 2975 3272 
Q 2975 3691 2734 3919 
Q 2494 4147 2053 4147 
L 1259 4147 
z
M 628 4666 
L 2053 4666 
Q 2838 4666 3239 4311 
Q 3641 3956 3641 3272 
Q 3641 2581 3239 2228 
Q 2838 1875 2053 1875 
L 1259 1875 
L 1259 0 
L 628 0 
L 628 4666 
z
" transform="scale(0.015625)"/>
       <path id="DejaVuSans-6f" d="M 1959 3097 
Q 1497 3097 1228 2736 
Q 959 2375 959 1747 
Q 959 1119 1226 758 
Q 1494 397 1959 397 
Q 2419 397 2687 759 
Q 2956 1122 2956 1747 
Q 2956 2369 2687 2733 
Q 2419 3097 1959 3097 
z
M 1959 3584 
Q 2709 3584 3137 3096 
Q 3566 2609 3566 1747 
Q 3566 888 3137 398 
Q 2709 -91 1959 -91 
Q 1206 -91 779 398 
Q 353 888 353 1747 
Q 353 2609 779 3096 
Q 1206 3584 1959 3584 
z
" transform="scale(0.015625)"/>
       <path id="DejaVuSans-69" d="M 603 3500 
L 1178 3500 
L 1178 0 
L 603 0 
L 603 3500 
z
M 603 4863 
L 1178 4863 
L 1178 4134 
L 603 4134 
L 603 4863 
z
" transform="scale(0.015625)"/>
       <path id="DejaVuSans-74" d="M 1172 4494 
L 1172 3500 
L 2356 3500 
L 2356 3053 
L 1172 3053 
L 1172 1153 
Q 1172 725 1289 603 
Q 1406 481 1766 481 
L 2356 481 
L 2356 0 
L 1766 0 
Q 1100 0 847 248 
Q 594 497 594 1153 
L 594 3053 
L 172 3053 
L 172 3500 
L 594 3500 
L 594 4494 
L 1172 4494 
z
" transform="scale(0.015625)"/>
       <path id="DejaVuSans-76" d="M 191 3500 
L 800 3500 
L 1894 563 
L 2988 3500 
L 3597 3500 
L 2284 0 
L 1503 0 
L 191 3500 
z
" transform="scale(0.015625)"/>
       <path id="DejaVuSans-52" d="M 2841 2188 
Q 3044 2119 3236 1894 
Q 3428 1669 3622 1275 
L 4263 0 
L 3584 0 
L 2988 1197 
Q 2756 1666 2539 1819 
Q 2322 1972 1947 1972 
L 1259 1972 
L 1259 0 
L 628 0 
L 628 4666 
L 2053 4666 
Q 2853 4666 3247 4331 
Q 3641 3997 3641 3322 
Q 3641 2881 3436 2590 
Q 3231 2300 2841 2188 
z
M 1259 4147 
L 1259 2491 
L 2053 2491 
Q 2509 2491 2742 2702 
Q 2975 2913 2975 3322 
Q 2975 3731 2742 3939 
Q 2509 4147 2053 4147 
L 1259 4147 
z
" transform="scale(0.015625)"/>
      </defs>
      <use xlink:href="#DejaVuSans-46"/>
      <use xlink:href="#DejaVuSans-61" x="48.394531"/>
      <use xlink:href="#DejaVuSans-6c" x="109.673828"/>
      <use xlink:href="#DejaVuSans-73" x="137.457031"/>
      <use xlink:href="#DejaVuSans-65" x="189.556641"/>
      <use xlink:href="#DejaVuSans-20" x="251.080078"/>
      <use xlink:href="#DejaVuSans-50" x="282.867188"/>
      <use xlink:href="#DejaVuSans-6f" x="339.544922"/>
      <use xlink:href="#DejaVuSans-73" x="400.726562"/>
      <use xlink:href="#DejaVuSans-69" x="452.826172"/>
      <use xlink:href="#DejaVuSans-74" x="480.609375"/>
      <use xlink:href="#DejaVuSans-69" x="519.818359"/>
      <use xlink:href="#DejaVuSans-76" x="547.601562"/>
      <use xlink:href="#DejaVuSans-65" x="606.78125"/>
      <use xlink:href="#DejaVuSans-20" x="668.304688"/>
      <use xlink:href="#DejaVuSans-52" x="700.091797"/>
      <use xlink:href="#DejaVuSans-61" x="767.324219"/>
      <use xlink:href="#DejaVuSans-74" x="828.603516"/>
      <use xlink:href="#DejaVuSans-65" x="867.8125"/>
     </g>
    </g>
   </g>
   <g id="matplotlib.axis_2">
    <g id="ytick_1">
     <g id="line2d_7">
      <defs>
       <path id="m0c0d65b281" d="M 0 0 
L -3.5 0 
" style="stroke: #000000; stroke-width: 0.8"/>
      </defs>
      <g>
       <use xlink:href="#m0c0d65b281" x="90" y="615.6" style="stroke: #000000; stroke-width: 0.8"/>
      </g>
     </g>
     <g id="text_8">
      <!-- 0.0 -->
      <g transform="translate(67.096875 619.399219) scale(0.1 -0.1)">
       <use xlink:href="#DejaVuSans-30"/>
       <use xlink:href="#DejaVuSans-2e" x="63.623047"/>
       <use xlink:href="#DejaVuSans-30" x="95.410156"/>
      </g>
     </g>
    </g>
    <g id="ytick_2">
     <g id="line2d_8">
      <g>
       <use xlink:href="#m0c0d65b281" x="90" y="514.8" style="stroke: #000000; stroke-width: 0.8"/>
      </g>
     </g>
     <g id="text_9">
      <!-- 0.2 -->
      <g transform="translate(67.096875 518.599219) scale(0.1 -0.1)">
       <use xlink:href="#DejaVuSans-30"/>
       <use xlink:href="#DejaVuSans-2e" x="63.623047"/>
       <use xlink:href="#DejaVuSans-32" x="95.410156"/>
      </g>
     </g>
    </g>
    <g id="ytick_3">
     <g id="line2d_9">
      <g>
       <use xlink:href="#m0c0d65b281" x="90" y="414" style="stroke: #000000; stroke-width: 0.8"/>
      </g>
     </g>
     <g id="text_10">
      <!-- 0.4 -->
      <g transform="translate(67.096875 417.799219) scale(0.1 -0.1)">
       <use xlink:href="#DejaVuSans-30"/>
       <use xlink:href="#DejaVuSans-2e" x="63.623047"/>
       <use xlink:href="#DejaVuSans-34" x="95.410156"/>
      </g>
     </g>
    </g>
    <g id="ytick_4">
     <g id="line2d_10">
      <g>
       <use xlink:href="#m0c0d65b281" x="90" y="313.2" style="stroke: #000000; stroke-width: 0.8"/>
      </g>
     </g>
     <g id="text_11">
      <!-- 0.6 -->
      <g transform="translate(67.096875 316.999219) scale(0.1 -0.1)">
       <use xlink:href="#DejaVuSans-30"/>
       <use xlink:href="#DejaVuSans-2e" x="63.623047"/>
       <use xlink:href="#DejaVuSans-36" x="95.410156"/>
      </g>
     </g>
    </g>
    <g id="ytick_5">
     <g id="line2d_11">
      <g>
       <use xlink:href="#m0c0d65b281" x="90" y="212.4" style="stroke: #000000; stroke-width: 0.8"/>
      </g>
     </g>
     <g id="text_12">
      <!-- 0.8 -->
      <g transform="translate(67.096875 216.199219) scale(0.1 -0.1)">
       <use xlink:href="#DejaVuSans-30"/>
       <use xlink:href="#DejaVuSans-2e" x="63.623047"/>
       <use xlink:href="#DejaVuSans-38" x="95.410156"/>
      </g>
     </g>
    </g>
    <g id="ytick_6">
     <g id="line2d_12">
      <g>
       <use xlink:href="#m0c0d65b281" x="90" y="111.6" style="stroke: #000000; stroke-width: 0.8"/>
      </g>
     </g>
     <g id="text_13">
      <!-- 1.0 -->
      <g transform="translate(67.096875 115.399219) scale(0.1 -0.1)">
       <use xlink:href="#DejaVuSans-31"/>
       <use xlink:href="#DejaVuSans-2e" x="63.623047"/>
       <use xlink:href="#DejaVuSans-30" x="95.410156"/>
      </g>
     </g>
    </g>
    <g id="text_14">
     <!-- True Positive Rate -->
     <g transform="translate(61.017187 408.129687) rotate(-90) scale(0.1 -0.1)">
      <defs>
       <path id="DejaVuSans-54" d="M -19 4666 
L 3928 4666 
L 3928 4134 
L 2272 4134 
L 2272 0 
L 1638 0 
L 1638 4134 
L -19 4134 
L -19 4666 
z
" transform="scale(0.015625)"/>
       <path id="DejaVuSans-72" d="M 2631 2963 
Q 2534 3019 2420 3045 
Q 2306 3072 2169 3072 
Q 1681 3072 1420 2755 
Q 1159 2438 1159 1844 
L 1159 0 
L 581 0 
L 581 3500 
L 1159 3500 
L 1159 2956 
Q 1341 3275 1631 3429 
Q 1922 3584 2338 3584 
Q 2397 3584 2469 3576 
Q 2541 3569 2628 3553 
L 2631 2963 
z
" transform="scale(0.015625)"/>
       <path id="DejaVuSans-75" d="M 544 1381 
L 544 3500 
L 1119 3500 
L 1119 1403 
Q 1119 906 1312 657 
Q 1506 409 1894 409 
Q 2359 409 2629 706 
Q 2900 1003 2900 1516 
L 2900 3500 
L 3475 3500 
L 3475 0 
L 2900 0 
L 2900 538 
Q 2691 219 2414 64 
Q 2138 -91 1772 -91 
Q 1169 -91 856 284 
Q 544 659 544 1381 
z
M 1991 3584 
L 1991 3584 
z
" transform="scale(0.015625)"/>
      </defs>
      <use xlink:href="#DejaVuSans-54"/>
      <use xlink:href="#DejaVuSans-72" x="46.333984"/>
      <use xlink:href="#DejaVuSans-75" x="87.447266"/>
      <use xlink:href="#DejaVuSans-65" x="150.826172"/>
      <use xlink:href="#DejaVuSans-20" x="212.349609"/>
      <use xlink:href="#DejaVuSans-50" x="244.136719"/>
      <use xlink:href="#DejaVuSans-6f" x="300.814453"/>
      <use xlink:href="#DejaVuSans-73" x="361.996094"/>
      <use xlink:href="#DejaVuSans-69" x="414.095703"/>
      <use xlink:href="#DejaVuSans-74" x="441.878906"/>
      <use xlink:href="#DejaVuSans-69" x="481.087891"/>
      <use xlink:href="#DejaVuSans-76" x="508.871094"/>
      <use xlink:href="#DejaVuSans-65" x="568.050781"/>
      <use xlink:href="#DejaVuSans-20" x="629.574219"/>
      <use xlink:href="#DejaVuSans-52" x="661.361328"/>
      <use xlink:href="#DejaVuSans-61" x="728.59375"/>
      <use xlink:href="#DejaVuSans-74" x="789.873047"/>
      <use xlink:href="#DejaVuSans-65" x="829.082031"/>
     </g>
    </g>
   </g>
   <g id="line2d_13">
    <path d="M 115.363636 615.6 
L 622.636364 111.6 
" clip-path="url(#p0a24ef7250)" style="fill: none; stroke-dasharray: 5.55,2.4; stroke-dashoffset: 0; stroke: #000000; stroke-width: 1.5"/>
   </g>
   <g id="line2d_14">
    <path d="M 115.363636 615.6 
L 120.487603 410.285315 
L 125.61157 409.33986 
L 130.735537 408.394406 
L 135.859504 407.448951 
L 140.983471 406.503497 
L 146.107438 405.558042 
L 151.231405 404.612587 
L 156.355372 261.692308 
L 161.479339 261.692308 
L 166.603306 261.692308 
L 171.727273 261.692308 
L 176.85124 261.692308 
L 181.975207 261.692308 
L 187.099174 261.692308 
L 192.22314 191.907692 
L 197.347107 170.307692 
L 202.471074 170.307692 
L 207.595041 170.307692 
L 212.719008 170.307692 
L 217.842975 170.307692 
L 222.966942 170.307692 
L 228.090909 162.553846 
L 233.214876 155.353846 
L 238.338843 155.353846 
L 243.46281 155.353846 
L 248.586777 155.353846 
L 253.710744 155.353846 
L 258.834711 155.353846 
L 263.958678 155.353846 
L 269.082645 155.353846 
L 274.206612 155.353846 
L 279.330579 155.353846 
L 284.454545 155.353846 
L 289.578512 155.353846 
L 294.702479 155.353846 
L 299.826446 140.4 
L 304.950413 140.4 
L 310.07438 140.4 
L 315.198347 133.2 
L 320.322314 133.2 
L 325.446281 133.2 
L 330.570248 133.2 
L 335.694215 133.2 
L 340.818182 133.2 
L 345.942149 133.2 
L 351.066116 126 
L 356.190083 126 
L 361.31405 126 
L 366.438017 126 
L 371.561983 118.8 
L 376.68595 118.8 
L 381.809917 118.8 
L 386.933884 118.8 
L 392.057851 118.8 
L 397.181818 118.8 
L 402.305785 118.8 
L 407.429752 118.8 
L 412.553719 118.8 
L 417.677686 118.8 
L 422.801653 118.8 
L 427.92562 118.8 
L 433.049587 118.8 
L 438.173554 118.8 
L 443.297521 118.8 
L 448.421488 118.8 
L 453.545455 118.8 
L 458.669421 118.8 
L 463.793388 118.8 
L 468.917355 118.8 
L 474.041322 118.8 
L 479.165289 111.6 
L 484.289256 111.6 
L 489.413223 111.6 
L 494.53719 111.6 
L 499.661157 111.6 
L 504.785124 111.6 
L 509.909091 111.6 
L 515.033058 111.6 
L 520.157025 111.6 
L 525.280992 111.6 
L 530.404959 111.6 
L 535.528926 111.6 
L 540.652893 111.6 
L 545.77686 111.6 
L 550.900826 111.6 
L 556.024793 111.6 
L 561.14876 111.6 
L 566.272727 111.6 
L 571.396694 111.6 
L 576.520661 111.6 
L 581.644628 111.6 
L 586.768595 111.6 
L 591.892562 111.6 
L 597.016529 111.6 
L 602.140496 111.6 
L 607.264463 111.6 
L 612.38843 111.6 
L 617.512397 111.6 
L 622.636364 111.6 
" clip-path="url(#p0a24ef7250)" style="fill: none; stroke: #0000ff; stroke-opacity: 0.8; stroke-width: 2; stroke-linecap: square"/>
   </g>
   <g id="line2d_15">
    <path d="M 115.363636 615.6 
L 120.487603 468.022378 
L 125.61157 467.767832 
L 130.735537 467.513287 
L 135.859504 467.258741 
L 140.983471 467.004196 
L 146.107438 466.74965 
L 151.231405 466.495105 
L 156.355372 414.732867 
L 161.479339 414.478322 
L 166.603306 414.223776 
L 171.727273 413.969231 
L 176.85124 413.714685 
L 181.975207 413.46014 
L 187.099174 413.205594 
L 192.22314 381.935664 
L 197.347107 373.753846 
L 202.471074 372.553846 
L 207.595041 371.353846 
L 212.719008 370.153846 
L 217.842975 368.953846 
L 222.966942 367.753846 
L 228.090909 351.046154 
L 233.214876 349.700699 
L 238.338843 347.555245 
L 243.46281 345.40979 
L 248.586777 343.264336 
L 253.710744 341.118881 
L 258.834711 338.973427 
L 263.958678 337.00979 
L 269.082645 335.118881 
L 274.206612 333.737063 
L 279.330579 332.791608 
L 284.454545 331.846154 
L 289.578512 330.900699 
L 294.702479 329.955245 
L 299.826446 321.255944 
L 304.950413 320.31049 
L 310.07438 319.365035 
L 315.198347 318.41958 
L 320.322314 317.474126 
L 325.446281 316.528671 
L 330.570248 315.583217 
L 335.694215 306.883916 
L 340.818182 305.938462 
L 345.942149 304.993007 
L 351.066116 275.538462 
L 356.190083 275.538462 
L 361.31405 275.538462 
L 366.438017 275.538462 
L 371.561983 245.630769 
L 376.68595 245.630769 
L 381.809917 245.630769 
L 386.933884 245.630769 
L 392.057851 238.430769 
L 397.181818 238.430769 
L 402.305785 238.430769 
L 407.429752 238.430769 
L 412.553719 238.430769 
L 417.677686 238.430769 
L 422.801653 238.430769 
L 427.92562 238.358042 
L 433.049587 237.412587 
L 438.173554 236.467133 
L 443.297521 227.767832 
L 448.421488 226.822378 
L 453.545455 225.876923 
L 458.669421 224.931469 
L 463.793388 223.986014 
L 468.917355 209.076923 
L 474.041322 209.076923 
L 479.165289 193.569231 
L 484.289256 193.569231 
L 489.413223 193.569231 
L 494.53719 193.569231 
L 499.661157 193.569231 
L 504.785124 193.569231 
L 509.909091 178.369231 
L 515.033058 177.423776 
L 520.157025 176.478322 
L 525.280992 175.532867 
L 530.404959 174.587413 
L 535.528926 173.641958 
L 540.652893 172.696503 
L 545.77686 164.769231 
L 550.900826 157.569231 
L 556.024793 157.569231 
L 561.14876 157.569231 
L 566.272727 157.569231 
L 571.396694 157.569231 
L 576.520661 157.569231 
L 581.644628 157.569231 
L 586.768595 149.737063 
L 591.892562 148.640559 
L 597.016529 147.544056 
L 602.140496 146.447552 
L 607.264463 145.351049 
L 612.38843 144.254545 
L 617.512397 143.158042 
L 622.636364 111.6 
" clip-path="url(#p0a24ef7250)" style="fill: none; stroke: #ffa500; stroke-opacity: 0.8; stroke-width: 2; stroke-linecap: square"/>
   </g>
   <g id="line2d_16">
    <path d="M 115.363636 615.6 
L 265.474954 375.6 
L 622.636364 111.6 
" clip-path="url(#p0a24ef7250)" style="fill: none; stroke: #008000; stroke-opacity: 0.8; stroke-width: 2; stroke-linecap: square"/>
   </g>
   <g id="line2d_17">
    <path d="M 115.363636 615.6 
L 376.246753 167.6 
L 622.636364 111.6 
" clip-path="url(#p0a24ef7250)" style="fill: none; stroke: #ff0000; stroke-opacity: 0.8; stroke-width: 2; stroke-linecap: square"/>
   </g>
   <g id="line2d_18">
    <path d="M 115.363636 615.6 
L 384.528757 255.6 
L 622.636364 111.6 
" clip-path="url(#p0a24ef7250)" style="fill: none; stroke: #bfbf00; stroke-opacity: 0.8; stroke-width: 2; stroke-linecap: square"/>
   </g>
   <g id="line2d_19">
    <path d="M 115.363636 615.6 
L 381.077922 216.6 
L 622.636364 111.6 
" clip-path="url(#p0a24ef7250)" style="fill: none; stroke: #800080; stroke-opacity: 0.8; stroke-width: 2; stroke-linecap: square"/>
   </g>
   <g id="patch_3">
    <path d="M 90 640.8 
L 90 86.4 
" style="fill: none; stroke: #000000; stroke-width: 0.8; stroke-linejoin: miter; stroke-linecap: square"/>
   </g>
   <g id="patch_4">
    <path d="M 648 640.8 
L 648 86.4 
" style="fill: none; stroke: #000000; stroke-width: 0.8; stroke-linejoin: miter; stroke-linecap: square"/>
   </g>
   <g id="patch_5">
    <path d="M 90 640.8 
L 648 640.8 
" style="fill: none; stroke: #000000; stroke-width: 0.8; stroke-linejoin: miter; stroke-linecap: square"/>
   </g>
   <g id="patch_6">
    <path d="M 90 86.4 
L 648 86.4 
" style="fill: none; stroke: #000000; stroke-width: 0.8; stroke-linejoin: miter; stroke-linecap: square"/>
   </g>
   <g id="text_15">
    <!-- Mean ROC curve with variability -->
    <g transform="translate(272.65125 66.962625) scale(0.12 -0.12)">
     <defs>
      <path id="DejaVuSans-4d" d="M 628 4666 
L 1569 4666 
L 2759 1491 
L 3956 4666 
L 4897 4666 
L 4897 0 
L 4281 0 
L 4281 4097 
L 3078 897 
L 2444 897 
L 1241 4097 
L 1241 0 
L 628 0 
L 628 4666 
z
" transform="scale(0.015625)"/>
      <path id="DejaVuSans-6e" d="M 3513 2113 
L 3513 0 
L 2938 0 
L 2938 2094 
Q 2938 2591 2744 2837 
Q 2550 3084 2163 3084 
Q 1697 3084 1428 2787 
Q 1159 2491 1159 1978 
L 1159 0 
L 581 0 
L 581 3500 
L 1159 3500 
L 1159 2956 
Q 1366 3272 1645 3428 
Q 1925 3584 2291 3584 
Q 2894 3584 3203 3211 
Q 3513 2838 3513 2113 
z
" transform="scale(0.015625)"/>
      <path id="DejaVuSans-4f" d="M 2522 4238 
Q 1834 4238 1429 3725 
Q 1025 3213 1025 2328 
Q 1025 1447 1429 934 
Q 1834 422 2522 422 
Q 3209 422 3611 934 
Q 4013 1447 4013 2328 
Q 4013 3213 3611 3725 
Q 3209 4238 2522 4238 
z
M 2522 4750 
Q 3503 4750 4090 4092 
Q 4678 3434 4678 2328 
Q 4678 1225 4090 567 
Q 3503 -91 2522 -91 
Q 1538 -91 948 565 
Q 359 1222 359 2328 
Q 359 3434 948 4092 
Q 1538 4750 2522 4750 
z
" transform="scale(0.015625)"/>
      <path id="DejaVuSans-43" d="M 4122 4306 
L 4122 3641 
Q 3803 3938 3442 4084 
Q 3081 4231 2675 4231 
Q 1875 4231 1450 3742 
Q 1025 3253 1025 2328 
Q 1025 1406 1450 917 
Q 1875 428 2675 428 
Q 3081 428 3442 575 
Q 3803 722 4122 1019 
L 4122 359 
Q 3791 134 3420 21 
Q 3050 -91 2638 -91 
Q 1578 -91 968 557 
Q 359 1206 359 2328 
Q 359 3453 968 4101 
Q 1578 4750 2638 4750 
Q 3056 4750 3426 4639 
Q 3797 4528 4122 4306 
z
" transform="scale(0.015625)"/>
      <path id="DejaVuSans-63" d="M 3122 3366 
L 3122 2828 
Q 2878 2963 2633 3030 
Q 2388 3097 2138 3097 
Q 1578 3097 1268 2742 
Q 959 2388 959 1747 
Q 959 1106 1268 751 
Q 1578 397 2138 397 
Q 2388 397 2633 464 
Q 2878 531 3122 666 
L 3122 134 
Q 2881 22 2623 -34 
Q 2366 -91 2075 -91 
Q 1284 -91 818 406 
Q 353 903 353 1747 
Q 353 2603 823 3093 
Q 1294 3584 2113 3584 
Q 2378 3584 2631 3529 
Q 2884 3475 3122 3366 
z
" transform="scale(0.015625)"/>
      <path id="DejaVuSans-77" d="M 269 3500 
L 844 3500 
L 1563 769 
L 2278 3500 
L 2956 3500 
L 3675 769 
L 4391 3500 
L 4966 3500 
L 4050 0 
L 3372 0 
L 2619 2869 
L 1863 0 
L 1184 0 
L 269 3500 
z
" transform="scale(0.015625)"/>
      <path id="DejaVuSans-68" d="M 3513 2113 
L 3513 0 
L 2938 0 
L 2938 2094 
Q 2938 2591 2744 2837 
Q 2550 3084 2163 3084 
Q 1697 3084 1428 2787 
Q 1159 2491 1159 1978 
L 1159 0 
L 581 0 
L 581 4863 
L 1159 4863 
L 1159 2956 
Q 1366 3272 1645 3428 
Q 1925 3584 2291 3584 
Q 2894 3584 3203 3211 
Q 3513 2838 3513 2113 
z
" transform="scale(0.015625)"/>
      <path id="DejaVuSans-62" d="M 3116 1747 
Q 3116 2381 2855 2742 
Q 2594 3103 2138 3103 
Q 1681 3103 1420 2742 
Q 1159 2381 1159 1747 
Q 1159 1113 1420 752 
Q 1681 391 2138 391 
Q 2594 391 2855 752 
Q 3116 1113 3116 1747 
z
M 1159 2969 
Q 1341 3281 1617 3432 
Q 1894 3584 2278 3584 
Q 2916 3584 3314 3078 
Q 3713 2572 3713 1747 
Q 3713 922 3314 415 
Q 2916 -91 2278 -91 
Q 1894 -91 1617 61 
Q 1341 213 1159 525 
L 1159 0 
L 581 0 
L 581 4863 
L 1159 4863 
L 1159 2969 
z
" transform="scale(0.015625)"/>
      <path id="DejaVuSans-79" d="M 2059 -325 
Q 1816 -950 1584 -1140 
Q 1353 -1331 966 -1331 
L 506 -1331 
L 506 -850 
L 844 -850 
Q 1081 -850 1212 -737 
Q 1344 -625 1503 -206 
L 1606 56 
L 191 3500 
L 800 3500 
L 1894 763 
L 2988 3500 
L 3597 3500 
L 2059 -325 
z
" transform="scale(0.015625)"/>
     </defs>
     <use xlink:href="#DejaVuSans-4d"/>
     <use xlink:href="#DejaVuSans-65" x="86.279297"/>
     <use xlink:href="#DejaVuSans-61" x="147.802734"/>
     <use xlink:href="#DejaVuSans-6e" x="209.082031"/>
     <use xlink:href="#DejaVuSans-20" x="272.460938"/>
     <use xlink:href="#DejaVuSans-52" x="304.248047"/>
     <use xlink:href="#DejaVuSans-4f" x="373.730469"/>
     <use xlink:href="#DejaVuSans-43" x="452.441406"/>
     <use xlink:href="#DejaVuSans-20" x="522.265625"/>
     <use xlink:href="#DejaVuSans-63" x="554.052734"/>
     <use xlink:href="#DejaVuSans-75" x="609.033203"/>
     <use xlink:href="#DejaVuSans-72" x="672.412109"/>
     <use xlink:href="#DejaVuSans-76" x="713.525391"/>
     <use xlink:href="#DejaVuSans-65" x="772.705078"/>
     <use xlink:href="#DejaVuSans-20" x="834.228516"/>
     <use xlink:href="#DejaVuSans-77" x="866.015625"/>
     <use xlink:href="#DejaVuSans-69" x="947.802734"/>
     <use xlink:href="#DejaVuSans-74" x="975.585938"/>
     <use xlink:href="#DejaVuSans-68" x="1014.794922"/>
     <use xlink:href="#DejaVuSans-20" x="1078.173828"/>
     <use xlink:href="#DejaVuSans-76" x="1109.960938"/>
     <use xlink:href="#DejaVuSans-61" x="1169.140625"/>
     <use xlink:href="#DejaVuSans-72" x="1230.419922"/>
     <use xlink:href="#DejaVuSans-69" x="1271.533203"/>
     <use xlink:href="#DejaVuSans-61" x="1299.316406"/>
     <use xlink:href="#DejaVuSans-62" x="1360.595703"/>
     <use xlink:href="#DejaVuSans-69" x="1424.072266"/>
     <use xlink:href="#DejaVuSans-6c" x="1451.855469"/>
     <use xlink:href="#DejaVuSans-69" x="1479.638672"/>
     <use xlink:href="#DejaVuSans-74" x="1507.421875"/>
     <use xlink:href="#DejaVuSans-79" x="1546.630859"/>
    </g>
    <!-- (Positive label 'exacerbation') -->
    <g transform="translate(280.317187 80.4) scale(0.12 -0.12)">
     <defs>
      <path id="DejaVuSans-28" d="M 1984 4856 
Q 1566 4138 1362 3434 
Q 1159 2731 1159 2009 
Q 1159 1288 1364 580 
Q 1569 -128 1984 -844 
L 1484 -844 
Q 1016 -109 783 600 
Q 550 1309 550 2009 
Q 550 2706 781 3412 
Q 1013 4119 1484 4856 
L 1984 4856 
z
" transform="scale(0.015625)"/>
      <path id="DejaVuSans-27" d="M 1147 4666 
L 1147 2931 
L 616 2931 
L 616 4666 
L 1147 4666 
z
" transform="scale(0.015625)"/>
      <path id="DejaVuSans-78" d="M 3513 3500 
L 2247 1797 
L 3578 0 
L 2900 0 
L 1881 1375 
L 863 0 
L 184 0 
L 1544 1831 
L 300 3500 
L 978 3500 
L 1906 2253 
L 2834 3500 
L 3513 3500 
z
" transform="scale(0.015625)"/>
      <path id="DejaVuSans-29" d="M 513 4856 
L 1013 4856 
Q 1481 4119 1714 3412 
Q 1947 2706 1947 2009 
Q 1947 1309 1714 600 
Q 1481 -109 1013 -844 
L 513 -844 
Q 928 -128 1133 580 
Q 1338 1288 1338 2009 
Q 1338 2731 1133 3434 
Q 928 4138 513 4856 
z
" transform="scale(0.015625)"/>
     </defs>
     <use xlink:href="#DejaVuSans-28"/>
     <use xlink:href="#DejaVuSans-50" x="39.013672"/>
     <use xlink:href="#DejaVuSans-6f" x="95.691406"/>
     <use xlink:href="#DejaVuSans-73" x="156.873047"/>
     <use xlink:href="#DejaVuSans-69" x="208.972656"/>
     <use xlink:href="#DejaVuSans-74" x="236.755859"/>
     <use xlink:href="#DejaVuSans-69" x="275.964844"/>
     <use xlink:href="#DejaVuSans-76" x="303.748047"/>
     <use xlink:href="#DejaVuSans-65" x="362.927734"/>
     <use xlink:href="#DejaVuSans-20" x="424.451172"/>
     <use xlink:href="#DejaVuSans-6c" x="456.238281"/>
     <use xlink:href="#DejaVuSans-61" x="484.021484"/>
     <use xlink:href="#DejaVuSans-62" x="545.300781"/>
     <use xlink:href="#DejaVuSans-65" x="608.777344"/>
     <use xlink:href="#DejaVuSans-6c" x="670.300781"/>
     <use xlink:href="#DejaVuSans-20" x="698.083984"/>
     <use xlink:href="#DejaVuSans-27" x="729.871094"/>
     <use xlink:href="#DejaVuSans-65" x="757.361328"/>
     <use xlink:href="#DejaVuSans-78" x="817.134766"/>
     <use xlink:href="#DejaVuSans-61" x="876.314453"/>
     <use xlink:href="#DejaVuSans-63" x="937.59375"/>
     <use xlink:href="#DejaVuSans-65" x="992.574219"/>
     <use xlink:href="#DejaVuSans-72" x="1054.097656"/>
     <use xlink:href="#DejaVuSans-62" x="1095.210938"/>
     <use xlink:href="#DejaVuSans-61" x="1158.6875"/>
     <use xlink:href="#DejaVuSans-74" x="1219.966797"/>
     <use xlink:href="#DejaVuSans-69" x="1259.175781"/>
     <use xlink:href="#DejaVuSans-6f" x="1286.958984"/>
     <use xlink:href="#DejaVuSans-6e" x="1348.140625"/>
     <use xlink:href="#DejaVuSans-27" x="1411.519531"/>
     <use xlink:href="#DejaVuSans-29" x="1439.009766"/>
    </g>
   </g>
   <g id="legend_1">
    <g id="patch_7">
     <path d="M 442.2 635.8 
L 641 635.8 
Q 643 635.8 643 633.8 
L 643 532.053125 
Q 643 530.053125 641 530.053125 
L 442.2 530.053125 
Q 440.2 530.053125 440.2 532.053125 
L 440.2 633.8 
Q 440.2 635.8 442.2 635.8 
z
" style="fill: #ffffff; opacity: 0.8; stroke: #cccccc; stroke-linejoin: miter"/>
    </g>
    <g id="line2d_20">
     <path d="M 444.2 538.151562 
L 454.2 538.151562 
L 464.2 538.151562 
" style="fill: none; stroke-dasharray: 5.55,2.4; stroke-dashoffset: 0; stroke: #000000; stroke-width: 1.5"/>
    </g>
    <g id="text_16">
     <!-- chance level (AUC = 0.5) -->
     <g transform="translate(472.2 541.651562) scale(0.1 -0.1)">
      <defs>
       <path id="DejaVuSans-41" d="M 2188 4044 
L 1331 1722 
L 3047 1722 
L 2188 4044 
z
M 1831 4666 
L 2547 4666 
L 4325 0 
L 3669 0 
L 3244 1197 
L 1141 1197 
L 716 0 
L 50 0 
L 1831 4666 
z
" transform="scale(0.015625)"/>
       <path id="DejaVuSans-55" d="M 556 4666 
L 1191 4666 
L 1191 1831 
Q 1191 1081 1462 751 
Q 1734 422 2344 422 
Q 2950 422 3222 751 
Q 3494 1081 3494 1831 
L 3494 4666 
L 4128 4666 
L 4128 1753 
Q 4128 841 3676 375 
Q 3225 -91 2344 -91 
Q 1459 -91 1007 375 
Q 556 841 556 1753 
L 556 4666 
z
" transform="scale(0.015625)"/>
       <path id="DejaVuSans-3d" d="M 678 2906 
L 4684 2906 
L 4684 2381 
L 678 2381 
L 678 2906 
z
M 678 1631 
L 4684 1631 
L 4684 1100 
L 678 1100 
L 678 1631 
z
" transform="scale(0.015625)"/>
       <path id="DejaVuSans-35" d="M 691 4666 
L 3169 4666 
L 3169 4134 
L 1269 4134 
L 1269 2991 
Q 1406 3038 1543 3061 
Q 1681 3084 1819 3084 
Q 2600 3084 3056 2656 
Q 3513 2228 3513 1497 
Q 3513 744 3044 326 
Q 2575 -91 1722 -91 
Q 1428 -91 1123 -41 
Q 819 9 494 109 
L 494 744 
Q 775 591 1075 516 
Q 1375 441 1709 441 
Q 2250 441 2565 725 
Q 2881 1009 2881 1497 
Q 2881 1984 2565 2268 
Q 2250 2553 1709 2553 
Q 1456 2553 1204 2497 
Q 953 2441 691 2322 
L 691 4666 
z
" transform="scale(0.015625)"/>
      </defs>
      <use xlink:href="#DejaVuSans-63"/>
      <use xlink:href="#DejaVuSans-68" x="54.980469"/>
      <use xlink:href="#DejaVuSans-61" x="118.359375"/>
      <use xlink:href="#DejaVuSans-6e" x="179.638672"/>
      <use xlink:href="#DejaVuSans-63" x="243.017578"/>
      <use xlink:href="#DejaVuSans-65" x="297.998047"/>
      <use xlink:href="#DejaVuSans-20" x="359.521484"/>
      <use xlink:href="#DejaVuSans-6c" x="391.308594"/>
      <use xlink:href="#DejaVuSans-65" x="419.091797"/>
      <use xlink:href="#DejaVuSans-76" x="480.615234"/>
      <use xlink:href="#DejaVuSans-65" x="539.794922"/>
      <use xlink:href="#DejaVuSans-6c" x="601.318359"/>
      <use xlink:href="#DejaVuSans-20" x="629.101562"/>
      <use xlink:href="#DejaVuSans-28" x="660.888672"/>
      <use xlink:href="#DejaVuSans-41" x="699.902344"/>
      <use xlink:href="#DejaVuSans-55" x="768.310547"/>
      <use xlink:href="#DejaVuSans-43" x="841.503906"/>
      <use xlink:href="#DejaVuSans-20" x="911.328125"/>
      <use xlink:href="#DejaVuSans-3d" x="943.115234"/>
      <use xlink:href="#DejaVuSans-20" x="1026.904297"/>
      <use xlink:href="#DejaVuSans-30" x="1058.691406"/>
      <use xlink:href="#DejaVuSans-2e" x="1122.314453"/>
      <use xlink:href="#DejaVuSans-35" x="1154.101562"/>
      <use xlink:href="#DejaVuSans-29" x="1217.724609"/>
     </g>
    </g>
    <g id="line2d_21">
     <path d="M 444.2 552.829688 
L 454.2 552.829688 
L 464.2 552.829688 
" style="fill: none; stroke: #0000ff; stroke-opacity: 0.8; stroke-width: 2; stroke-linecap: square"/>
    </g>
    <g id="text_17">
     <!-- Rdm. Forest (AUC = 0.90 $\pm$ 0.04) -->
     <g transform="translate(472.2 556.329688) scale(0.1 -0.1)">
      <defs>
       <path id="DejaVuSans-64" d="M 2906 2969 
L 2906 4863 
L 3481 4863 
L 3481 0 
L 2906 0 
L 2906 525 
Q 2725 213 2448 61 
Q 2172 -91 1784 -91 
Q 1150 -91 751 415 
Q 353 922 353 1747 
Q 353 2572 751 3078 
Q 1150 3584 1784 3584 
Q 2172 3584 2448 3432 
Q 2725 3281 2906 2969 
z
M 947 1747 
Q 947 1113 1208 752 
Q 1469 391 1925 391 
Q 2381 391 2643 752 
Q 2906 1113 2906 1747 
Q 2906 2381 2643 2742 
Q 2381 3103 1925 3103 
Q 1469 3103 1208 2742 
Q 947 2381 947 1747 
z
" transform="scale(0.015625)"/>
       <path id="DejaVuSans-6d" d="M 3328 2828 
Q 3544 3216 3844 3400 
Q 4144 3584 4550 3584 
Q 5097 3584 5394 3201 
Q 5691 2819 5691 2113 
L 5691 0 
L 5113 0 
L 5113 2094 
Q 5113 2597 4934 2840 
Q 4756 3084 4391 3084 
Q 3944 3084 3684 2787 
Q 3425 2491 3425 1978 
L 3425 0 
L 2847 0 
L 2847 2094 
Q 2847 2600 2669 2842 
Q 2491 3084 2119 3084 
Q 1678 3084 1418 2786 
Q 1159 2488 1159 1978 
L 1159 0 
L 581 0 
L 581 3500 
L 1159 3500 
L 1159 2956 
Q 1356 3278 1631 3431 
Q 1906 3584 2284 3584 
Q 2666 3584 2933 3390 
Q 3200 3197 3328 2828 
z
" transform="scale(0.015625)"/>
       <path id="DejaVuSans-39" d="M 703 97 
L 703 672 
Q 941 559 1184 500 
Q 1428 441 1663 441 
Q 2288 441 2617 861 
Q 2947 1281 2994 2138 
Q 2813 1869 2534 1725 
Q 2256 1581 1919 1581 
Q 1219 1581 811 2004 
Q 403 2428 403 3163 
Q 403 3881 828 4315 
Q 1253 4750 1959 4750 
Q 2769 4750 3195 4129 
Q 3622 3509 3622 2328 
Q 3622 1225 3098 567 
Q 2575 -91 1691 -91 
Q 1453 -91 1209 -44 
Q 966 3 703 97 
z
M 1959 2075 
Q 2384 2075 2632 2365 
Q 2881 2656 2881 3163 
Q 2881 3666 2632 3958 
Q 2384 4250 1959 4250 
Q 1534 4250 1286 3958 
Q 1038 3666 1038 3163 
Q 1038 2656 1286 2365 
Q 1534 2075 1959 2075 
z
" transform="scale(0.015625)"/>
       <path id="DejaVuSans-b1" d="M 2944 4013 
L 2944 2803 
L 4684 2803 
L 4684 2272 
L 2944 2272 
L 2944 1063 
L 2419 1063 
L 2419 2272 
L 678 2272 
L 678 2803 
L 2419 2803 
L 2419 4013 
L 2944 4013 
z
M 678 531 
L 4684 531 
L 4684 0 
L 678 0 
L 678 531 
z
" transform="scale(0.015625)"/>
      </defs>
      <use xlink:href="#DejaVuSans-52" transform="translate(0 0.015625)"/>
      <use xlink:href="#DejaVuSans-64" transform="translate(69.482422 0.015625)"/>
      <use xlink:href="#DejaVuSans-6d" transform="translate(132.958984 0.015625)"/>
      <use xlink:href="#DejaVuSans-2e" transform="translate(230.371094 0.015625)"/>
      <use xlink:href="#DejaVuSans-20" transform="translate(262.158203 0.015625)"/>
      <use xlink:href="#DejaVuSans-46" transform="translate(293.945312 0.015625)"/>
      <use xlink:href="#DejaVuSans-6f" transform="translate(351.464844 0.015625)"/>
      <use xlink:href="#DejaVuSans-72" transform="translate(412.646484 0.015625)"/>
      <use xlink:href="#DejaVuSans-65" transform="translate(453.759766 0.015625)"/>
      <use xlink:href="#DejaVuSans-73" transform="translate(515.283203 0.015625)"/>
      <use xlink:href="#DejaVuSans-74" transform="translate(567.382812 0.015625)"/>
      <use xlink:href="#DejaVuSans-20" transform="translate(606.591797 0.015625)"/>
      <use xlink:href="#DejaVuSans-28" transform="translate(638.378906 0.015625)"/>
      <use xlink:href="#DejaVuSans-41" transform="translate(677.392578 0.015625)"/>
      <use xlink:href="#DejaVuSans-55" transform="translate(745.800781 0.015625)"/>
      <use xlink:href="#DejaVuSans-43" transform="translate(818.994141 0.015625)"/>
      <use xlink:href="#DejaVuSans-20" transform="translate(888.818359 0.015625)"/>
      <use xlink:href="#DejaVuSans-3d" transform="translate(920.605469 0.015625)"/>
      <use xlink:href="#DejaVuSans-20" transform="translate(1004.394531 0.015625)"/>
      <use xlink:href="#DejaVuSans-30" transform="translate(1036.181641 0.015625)"/>
      <use xlink:href="#DejaVuSans-2e" transform="translate(1099.804688 0.015625)"/>
      <use xlink:href="#DejaVuSans-39" transform="translate(1131.591797 0.015625)"/>
      <use xlink:href="#DejaVuSans-30" transform="translate(1195.214844 0.015625)"/>
      <use xlink:href="#DejaVuSans-20" transform="translate(1258.837891 0.015625)"/>
      <use xlink:href="#DejaVuSans-b1" transform="translate(1290.625 0.015625)"/>
      <use xlink:href="#DejaVuSans-20" transform="translate(1374.414062 0.015625)"/>
      <use xlink:href="#DejaVuSans-30" transform="translate(1406.201172 0.015625)"/>
      <use xlink:href="#DejaVuSans-2e" transform="translate(1469.824219 0.015625)"/>
      <use xlink:href="#DejaVuSans-30" transform="translate(1501.611328 0.015625)"/>
      <use xlink:href="#DejaVuSans-34" transform="translate(1565.234375 0.015625)"/>
      <use xlink:href="#DejaVuSans-29" transform="translate(1628.857422 0.015625)"/>
     </g>
    </g>
    <g id="line2d_22">
     <path d="M 444.2 567.507812 
L 454.2 567.507812 
L 464.2 567.507812 
" style="fill: none; stroke: #ffa500; stroke-opacity: 0.8; stroke-width: 2; stroke-linecap: square"/>
    </g>
    <g id="text_18">
     <!-- Bertens (AUC = 0.67 $\pm$ 0.15) -->
     <g transform="translate(472.2 571.007812) scale(0.1 -0.1)">
      <defs>
       <path id="DejaVuSans-42" d="M 1259 2228 
L 1259 519 
L 2272 519 
Q 2781 519 3026 730 
Q 3272 941 3272 1375 
Q 3272 1813 3026 2020 
Q 2781 2228 2272 2228 
L 1259 2228 
z
M 1259 4147 
L 1259 2741 
L 2194 2741 
Q 2656 2741 2882 2914 
Q 3109 3088 3109 3444 
Q 3109 3797 2882 3972 
Q 2656 4147 2194 4147 
L 1259 4147 
z
M 628 4666 
L 2241 4666 
Q 2963 4666 3353 4366 
Q 3744 4066 3744 3513 
Q 3744 3084 3544 2831 
Q 3344 2578 2956 2516 
Q 3422 2416 3680 2098 
Q 3938 1781 3938 1306 
Q 3938 681 3513 340 
Q 3088 0 2303 0 
L 628 0 
L 628 4666 
z
" transform="scale(0.015625)"/>
       <path id="DejaVuSans-37" d="M 525 4666 
L 3525 4666 
L 3525 4397 
L 1831 0 
L 1172 0 
L 2766 4134 
L 525 4134 
L 525 4666 
z
" transform="scale(0.015625)"/>
      </defs>
      <use xlink:href="#DejaVuSans-42" transform="translate(0 0.125)"/>
      <use xlink:href="#DejaVuSans-65" transform="translate(68.603516 0.125)"/>
      <use xlink:href="#DejaVuSans-72" transform="translate(130.126953 0.125)"/>
      <use xlink:href="#DejaVuSans-74" transform="translate(171.240234 0.125)"/>
      <use xlink:href="#DejaVuSans-65" transform="translate(210.449219 0.125)"/>
      <use xlink:href="#DejaVuSans-6e" transform="translate(271.972656 0.125)"/>
      <use xlink:href="#DejaVuSans-73" transform="translate(335.351562 0.125)"/>
      <use xlink:href="#DejaVuSans-20" transform="translate(387.451172 0.125)"/>
      <use xlink:href="#DejaVuSans-28" transform="translate(419.238281 0.125)"/>
      <use xlink:href="#DejaVuSans-41" transform="translate(458.251953 0.125)"/>
      <use xlink:href="#DejaVuSans-55" transform="translate(526.660156 0.125)"/>
      <use xlink:href="#DejaVuSans-43" transform="translate(599.853516 0.125)"/>
      <use xlink:href="#DejaVuSans-20" transform="translate(669.677734 0.125)"/>
      <use xlink:href="#DejaVuSans-3d" transform="translate(701.464844 0.125)"/>
      <use xlink:href="#DejaVuSans-20" transform="translate(785.253906 0.125)"/>
      <use xlink:href="#DejaVuSans-30" transform="translate(817.041016 0.125)"/>
      <use xlink:href="#DejaVuSans-2e" transform="translate(880.664062 0.125)"/>
      <use xlink:href="#DejaVuSans-36" transform="translate(912.451172 0.125)"/>
      <use xlink:href="#DejaVuSans-37" transform="translate(976.074219 0.125)"/>
      <use xlink:href="#DejaVuSans-20" transform="translate(1039.697266 0.125)"/>
      <use xlink:href="#DejaVuSans-b1" transform="translate(1071.484375 0.125)"/>
      <use xlink:href="#DejaVuSans-20" transform="translate(1155.273438 0.125)"/>
      <use xlink:href="#DejaVuSans-30" transform="translate(1187.060547 0.125)"/>
      <use xlink:href="#DejaVuSans-2e" transform="translate(1250.683594 0.125)"/>
      <use xlink:href="#DejaVuSans-31" transform="translate(1282.470703 0.125)"/>
      <use xlink:href="#DejaVuSans-35" transform="translate(1346.09375 0.125)"/>
      <use xlink:href="#DejaVuSans-29" transform="translate(1409.716797 0.125)"/>
     </g>
    </g>
    <g id="line2d_23">
     <path d="M 444.2 582.185938 
L 454.2 582.185938 
L 464.2 582.185938 
" style="fill: none; stroke: #008000; stroke-opacity: 0.8; stroke-width: 2; stroke-linecap: square"/>
    </g>
    <g id="text_19">
     <!-- ADO (AUC = 0.59)  -->
     <g transform="translate(472.2 585.685938) scale(0.1 -0.1)">
      <defs>
       <path id="DejaVuSans-44" d="M 1259 4147 
L 1259 519 
L 2022 519 
Q 2988 519 3436 956 
Q 3884 1394 3884 2338 
Q 3884 3275 3436 3711 
Q 2988 4147 2022 4147 
L 1259 4147 
z
M 628 4666 
L 1925 4666 
Q 3281 4666 3915 4102 
Q 4550 3538 4550 2338 
Q 4550 1131 3912 565 
Q 3275 0 1925 0 
L 628 0 
L 628 4666 
z
" transform="scale(0.015625)"/>
      </defs>
      <use xlink:href="#DejaVuSans-41"/>
      <use xlink:href="#DejaVuSans-44" x="68.408203"/>
      <use xlink:href="#DejaVuSans-4f" x="145.410156"/>
      <use xlink:href="#DejaVuSans-20" x="224.121094"/>
      <use xlink:href="#DejaVuSans-28" x="255.908203"/>
      <use xlink:href="#DejaVuSans-41" x="294.921875"/>
      <use xlink:href="#DejaVuSans-55" x="363.330078"/>
      <use xlink:href="#DejaVuSans-43" x="436.523438"/>
      <use xlink:href="#DejaVuSans-20" x="506.347656"/>
      <use xlink:href="#DejaVuSans-3d" x="538.134766"/>
      <use xlink:href="#DejaVuSans-20" x="621.923828"/>
      <use xlink:href="#DejaVuSans-30" x="653.710938"/>
      <use xlink:href="#DejaVuSans-2e" x="717.333984"/>
      <use xlink:href="#DejaVuSans-35" x="749.121094"/>
      <use xlink:href="#DejaVuSans-39" x="812.744141"/>
      <use xlink:href="#DejaVuSans-29" x="876.367188"/>
      <use xlink:href="#DejaVuSans-20" x="915.380859"/>
     </g>
    </g>
    <g id="line2d_24">
     <path d="M 444.2 596.864063 
L 454.2 596.864063 
L 464.2 596.864063 
" style="fill: none; stroke: #ff0000; stroke-opacity: 0.8; stroke-width: 2; stroke-linecap: square"/>
    </g>
    <g id="text_20">
     <!-- BODE (AUC = 0.69) -->
     <g transform="translate(472.2 600.364063) scale(0.1 -0.1)">
      <defs>
       <path id="DejaVuSans-45" d="M 628 4666 
L 3578 4666 
L 3578 4134 
L 1259 4134 
L 1259 2753 
L 3481 2753 
L 3481 2222 
L 1259 2222 
L 1259 531 
L 3634 531 
L 3634 0 
L 628 0 
L 628 4666 
z
" transform="scale(0.015625)"/>
      </defs>
      <use xlink:href="#DejaVuSans-42"/>
      <use xlink:href="#DejaVuSans-4f" x="66.853516"/>
      <use xlink:href="#DejaVuSans-44" x="145.564453"/>
      <use xlink:href="#DejaVuSans-45" x="222.566406"/>
      <use xlink:href="#DejaVuSans-20" x="285.75"/>
      <use xlink:href="#DejaVuSans-28" x="317.537109"/>
      <use xlink:href="#DejaVuSans-41" x="356.550781"/>
      <use xlink:href="#DejaVuSans-55" x="424.958984"/>
      <use xlink:href="#DejaVuSans-43" x="498.152344"/>
      <use xlink:href="#DejaVuSans-20" x="567.976562"/>
      <use xlink:href="#DejaVuSans-3d" x="599.763672"/>
      <use xlink:href="#DejaVuSans-20" x="683.552734"/>
      <use xlink:href="#DejaVuSans-30" x="715.339844"/>
      <use xlink:href="#DejaVuSans-2e" x="778.962891"/>
      <use xlink:href="#DejaVuSans-36" x="810.75"/>
      <use xlink:href="#DejaVuSans-39" x="874.373047"/>
      <use xlink:href="#DejaVuSans-29" x="937.996094"/>
     </g>
    </g>
    <g id="line2d_25">
     <path d="M 444.2 611.542187 
L 454.2 611.542187 
L 464.2 611.542187 
" style="fill: none; stroke: #bfbf00; stroke-opacity: 0.8; stroke-width: 2; stroke-linecap: square"/>
    </g>
    <g id="text_21">
     <!-- DOSE (AUC = 0.59) -->
     <g transform="translate(472.2 615.042187) scale(0.1 -0.1)">
      <defs>
       <path id="DejaVuSans-53" d="M 3425 4513 
L 3425 3897 
Q 3066 4069 2747 4153 
Q 2428 4238 2131 4238 
Q 1616 4238 1336 4038 
Q 1056 3838 1056 3469 
Q 1056 3159 1242 3001 
Q 1428 2844 1947 2747 
L 2328 2669 
Q 3034 2534 3370 2195 
Q 3706 1856 3706 1288 
Q 3706 609 3251 259 
Q 2797 -91 1919 -91 
Q 1588 -91 1214 -16 
Q 841 59 441 206 
L 441 856 
Q 825 641 1194 531 
Q 1563 422 1919 422 
Q 2459 422 2753 634 
Q 3047 847 3047 1241 
Q 3047 1584 2836 1778 
Q 2625 1972 2144 2069 
L 1759 2144 
Q 1053 2284 737 2584 
Q 422 2884 422 3419 
Q 422 4038 858 4394 
Q 1294 4750 2059 4750 
Q 2388 4750 2728 4690 
Q 3069 4631 3425 4513 
z
" transform="scale(0.015625)"/>
      </defs>
      <use xlink:href="#DejaVuSans-44"/>
      <use xlink:href="#DejaVuSans-4f" x="77.001953"/>
      <use xlink:href="#DejaVuSans-53" x="155.712891"/>
      <use xlink:href="#DejaVuSans-45" x="219.189453"/>
      <use xlink:href="#DejaVuSans-20" x="282.373047"/>
      <use xlink:href="#DejaVuSans-28" x="314.160156"/>
      <use xlink:href="#DejaVuSans-41" x="353.173828"/>
      <use xlink:href="#DejaVuSans-55" x="421.582031"/>
      <use xlink:href="#DejaVuSans-43" x="494.775391"/>
      <use xlink:href="#DejaVuSans-20" x="564.599609"/>
      <use xlink:href="#DejaVuSans-3d" x="596.386719"/>
      <use xlink:href="#DejaVuSans-20" x="680.175781"/>
      <use xlink:href="#DejaVuSans-30" x="711.962891"/>
      <use xlink:href="#DejaVuSans-2e" x="775.585938"/>
      <use xlink:href="#DejaVuSans-35" x="807.373047"/>
      <use xlink:href="#DejaVuSans-39" x="870.996094"/>
      <use xlink:href="#DejaVuSans-29" x="934.619141"/>
     </g>
    </g>
    <g id="line2d_26">
     <path d="M 444.2 626.220312 
L 454.2 626.220312 
L 464.2 626.220312 
" style="fill: none; stroke: #800080; stroke-opacity: 0.8; stroke-width: 2; stroke-linecap: square"/>
    </g>
    <g id="text_22">
     <!-- Prev. Exacerbation (AUC = 0.63) -->
     <g transform="translate(472.2 629.720312) scale(0.1 -0.1)">
      <defs>
       <path id="DejaVuSans-33" d="M 2597 2516 
Q 3050 2419 3304 2112 
Q 3559 1806 3559 1356 
Q 3559 666 3084 287 
Q 2609 -91 1734 -91 
Q 1441 -91 1130 -33 
Q 819 25 488 141 
L 488 750 
Q 750 597 1062 519 
Q 1375 441 1716 441 
Q 2309 441 2620 675 
Q 2931 909 2931 1356 
Q 2931 1769 2642 2001 
Q 2353 2234 1838 2234 
L 1294 2234 
L 1294 2753 
L 1863 2753 
Q 2328 2753 2575 2939 
Q 2822 3125 2822 3475 
Q 2822 3834 2567 4026 
Q 2313 4219 1838 4219 
Q 1578 4219 1281 4162 
Q 984 4106 628 3988 
L 628 4550 
Q 988 4650 1302 4700 
Q 1616 4750 1894 4750 
Q 2613 4750 3031 4423 
Q 3450 4097 3450 3541 
Q 3450 3153 3228 2886 
Q 3006 2619 2597 2516 
z
" transform="scale(0.015625)"/>
      </defs>
      <use xlink:href="#DejaVuSans-50"/>
      <use xlink:href="#DejaVuSans-72" x="58.552734"/>
      <use xlink:href="#DejaVuSans-65" x="97.416016"/>
      <use xlink:href="#DejaVuSans-76" x="158.939453"/>
      <use xlink:href="#DejaVuSans-2e" x="210.369141"/>
      <use xlink:href="#DejaVuSans-20" x="242.15625"/>
      <use xlink:href="#DejaVuSans-45" x="273.943359"/>
      <use xlink:href="#DejaVuSans-78" x="337.126953"/>
      <use xlink:href="#DejaVuSans-61" x="396.306641"/>
      <use xlink:href="#DejaVuSans-63" x="457.585938"/>
      <use xlink:href="#DejaVuSans-65" x="512.566406"/>
      <use xlink:href="#DejaVuSans-72" x="574.089844"/>
      <use xlink:href="#DejaVuSans-62" x="615.203125"/>
      <use xlink:href="#DejaVuSans-61" x="678.679688"/>
      <use xlink:href="#DejaVuSans-74" x="739.958984"/>
      <use xlink:href="#DejaVuSans-69" x="779.167969"/>
      <use xlink:href="#DejaVuSans-6f" x="806.951172"/>
      <use xlink:href="#DejaVuSans-6e" x="868.132812"/>
      <use xlink:href="#DejaVuSans-20" x="931.511719"/>
      <use xlink:href="#DejaVuSans-28" x="963.298828"/>
      <use xlink:href="#DejaVuSans-41" x="1002.3125"/>
      <use xlink:href="#DejaVuSans-55" x="1070.720703"/>
      <use xlink:href="#DejaVuSans-43" x="1143.914062"/>
      <use xlink:href="#DejaVuSans-20" x="1213.738281"/>
      <use xlink:href="#DejaVuSans-3d" x="1245.525391"/>
      <use xlink:href="#DejaVuSans-20" x="1329.314453"/>
      <use xlink:href="#DejaVuSans-30" x="1361.101562"/>
      <use xlink:href="#DejaVuSans-2e" x="1424.724609"/>
      <use xlink:href="#DejaVuSans-36" x="1456.511719"/>
      <use xlink:href="#DejaVuSans-33" x="1520.134766"/>
      <use xlink:href="#DejaVuSans-29" x="1583.757812"/>
     </g>
    </g>
   </g>
  </g>
 </g>
 <defs>
  <clipPath id="p0a24ef7250">
   <rect x="90" y="86.4" width="558" height="554.4"/>
  </clipPath>
 </defs>
</svg>
